G04 #@! TF.GenerationSoftware,KiCad,Pcbnew,(2017-08-18 revision 6be2f2934)-master*
G04 #@! TF.CreationDate,2017-08-19T20:32:53-06:00*
G04 #@! TF.ProjectId,tone,746F6E652E6B696361645F7063620000,rev?*
G04 #@! TF.SameCoordinates,Original*
G04 #@! TF.FileFunction,Paste,Top*
G04 #@! TF.FilePolarity,Positive*
%FSLAX46Y46*%
G04 Gerber Fmt 4.6, Leading zero omitted, Abs format (unit mm)*
G04 Created by KiCad (PCBNEW (2017-08-18 revision 6be2f2934)-master) date Sat Aug 19 20:32:53 2017*
%MOMM*%
%LPD*%
G01*
G04 APERTURE LIST*
%ADD10R,0.600000X1.100000*%
%ADD11R,1.450000X1.150000*%
%ADD12R,1.150000X1.450000*%
%ADD13R,0.900000X1.300000*%
%ADD14R,0.800000X1.300000*%
%ADD15R,1.300000X0.900000*%
%ADD16R,1.300000X0.800000*%
%ADD17O,1.500000X0.550000*%
%ADD18O,0.550000X1.500000*%
%ADD19R,1.450000X0.950000*%
%ADD20R,0.950000X1.450000*%
%ADD21R,1.800000X1.200000*%
%ADD22R,0.899160X0.800100*%
%ADD23R,2.190000X1.600000*%
%ADD24R,1.500000X0.950000*%
%ADD25R,1.500000X2.300000*%
%ADD26R,1.800000X1.050000*%
%ADD27O,0.600000X1.550000*%
G04 APERTURE END LIST*
D10*
X7500000Y-14900000D03*
X6550000Y-14900000D03*
X8450000Y-14900000D03*
X7500000Y-17100000D03*
X8450000Y-17100000D03*
X6550000Y-17100000D03*
D11*
X41500000Y-4100000D03*
X41500000Y-5900000D03*
D12*
X43600000Y-8500000D03*
X45400000Y-8500000D03*
D13*
X43550000Y-6100000D03*
X45450000Y-6100000D03*
D14*
X44500000Y-3900000D03*
D15*
X5100000Y-32950000D03*
X5100000Y-31050000D03*
D16*
X2900000Y-32000000D03*
D17*
X34200000Y-24300000D03*
X34200000Y-23500000D03*
X34200000Y-22700000D03*
X34200000Y-21900000D03*
X34200000Y-21100000D03*
X34200000Y-20300000D03*
X34200000Y-19500000D03*
X34200000Y-18700000D03*
D18*
X32800000Y-17300000D03*
X32000000Y-17300000D03*
X31200000Y-17300000D03*
X30400000Y-17300000D03*
X29600000Y-17300000D03*
X28800000Y-17300000D03*
X28000000Y-17300000D03*
X27200000Y-17300000D03*
D17*
X25800000Y-18700000D03*
X25800000Y-19500000D03*
X25800000Y-20300000D03*
X25800000Y-21100000D03*
X25800000Y-21900000D03*
X25800000Y-22700000D03*
X25800000Y-23500000D03*
X25800000Y-24300000D03*
D18*
X27200000Y-25700000D03*
X28000000Y-25700000D03*
X28800000Y-25700000D03*
X29600000Y-25700000D03*
X30400000Y-25700000D03*
X31200000Y-25700000D03*
X32000000Y-25700000D03*
X32800000Y-25700000D03*
D19*
X38250000Y-31000000D03*
X38250000Y-29000000D03*
D20*
X17500000Y-23500000D03*
X15500000Y-23500000D03*
X15500000Y-21000000D03*
X17500000Y-21000000D03*
D21*
X36750000Y-27200000D03*
X36750000Y-24300000D03*
D20*
X37000000Y-6000000D03*
X39000000Y-6000000D03*
X14000000Y-41000000D03*
X16000000Y-41000000D03*
D22*
X19100840Y-41000000D03*
X20899160Y-41000000D03*
X20899160Y-37000000D03*
X19100840Y-37000000D03*
X19100840Y-45000000D03*
X20899160Y-45000000D03*
D23*
X12595000Y-45000000D03*
X3405000Y-45000000D03*
X3520001Y-37000000D03*
X12710001Y-37000000D03*
D24*
X49650000Y-22000000D03*
X51350000Y-22000000D03*
X47350000Y-18000000D03*
X45650000Y-18000000D03*
X40650000Y-39000000D03*
X42350000Y-39000000D03*
D20*
X43500000Y-22000000D03*
X41500000Y-22000000D03*
D21*
X14500000Y-13450000D03*
X14500000Y-10550000D03*
D11*
X10500000Y-15600000D03*
X10500000Y-17400000D03*
D19*
X8250000Y-12000000D03*
X8250000Y-10000000D03*
X6000000Y-10000000D03*
X6000000Y-12000000D03*
D11*
X49500000Y-31400000D03*
X49500000Y-29600000D03*
X23500000Y-17600000D03*
X23500000Y-19400000D03*
D12*
X44600000Y-35000000D03*
X46400000Y-35000000D03*
D11*
X41000000Y-31400000D03*
X41000000Y-29600000D03*
X49500000Y-25600000D03*
X49500000Y-27400000D03*
D25*
X17500000Y-9350000D03*
X17500000Y-13650000D03*
X23500000Y-3350000D03*
X23500000Y-7650000D03*
D20*
X46500000Y-39000000D03*
X44500000Y-39000000D03*
X40500000Y-35000000D03*
X42500000Y-35000000D03*
D19*
X41000000Y-27500000D03*
X41000000Y-25500000D03*
D20*
X56000000Y-24500000D03*
X54000000Y-24500000D03*
X39500000Y-22000000D03*
X37500000Y-22000000D03*
X47500000Y-22000000D03*
X45500000Y-22000000D03*
D19*
X52000000Y-27500000D03*
X52000000Y-25500000D03*
D26*
X20000000Y-21000000D03*
X20000000Y-24000000D03*
D27*
X46905000Y-25800000D03*
X45635000Y-25800000D03*
X44365000Y-25800000D03*
X43095000Y-25800000D03*
X43095000Y-31200000D03*
X44365000Y-31200000D03*
X45635000Y-31200000D03*
X46905000Y-31200000D03*
D15*
X56100000Y-21950000D03*
X56100000Y-20050000D03*
D16*
X53900000Y-21000000D03*
D13*
X16550000Y-18600000D03*
X18450000Y-18600000D03*
D14*
X17500000Y-16400000D03*
M02*
