G04 #@! TF.GenerationSoftware,KiCad,Pcbnew,(2017-08-18 revision 6be2f2934)-master*
G04 #@! TF.CreationDate,2017-08-19T20:32:53-06:00*
G04 #@! TF.ProjectId,tone,746F6E652E6B696361645F7063620000,rev?*
G04 #@! TF.SameCoordinates,Original*
G04 #@! TF.FileFunction,Legend,Top*
G04 #@! TF.FilePolarity,Positive*
%FSLAX46Y46*%
G04 Gerber Fmt 4.6, Leading zero omitted, Abs format (unit mm)*
G04 Created by KiCad (PCBNEW (2017-08-18 revision 6be2f2934)-master) date Sat Aug 19 20:32:53 2017*
%MOMM*%
%LPD*%
G01*
G04 APERTURE LIST*
%ADD10C,0.150000*%
%ADD11C,0.200000*%
%ADD12C,0.300000*%
%ADD13C,0.350000*%
%ADD14C,0.100000*%
G04 APERTURE END LIST*
D10*
X36873809Y-17111904D02*
X36873809Y-16311904D01*
X37178571Y-16311904D01*
X37254761Y-16350000D01*
X37292857Y-16388095D01*
X37330952Y-16464285D01*
X37330952Y-16578571D01*
X37292857Y-16654761D01*
X37254761Y-16692857D01*
X37178571Y-16730952D01*
X36873809Y-16730952D01*
X37635714Y-16883333D02*
X38016666Y-16883333D01*
X37559523Y-17111904D02*
X37826190Y-16311904D01*
X38092857Y-17111904D01*
X38511904Y-16311904D02*
X38588095Y-16311904D01*
X38664285Y-16350000D01*
X38702380Y-16388095D01*
X38740476Y-16464285D01*
X38778571Y-16616666D01*
X38778571Y-16807142D01*
X38740476Y-16959523D01*
X38702380Y-17035714D01*
X38664285Y-17073809D01*
X38588095Y-17111904D01*
X38511904Y-17111904D01*
X38435714Y-17073809D01*
X38397619Y-17035714D01*
X38359523Y-16959523D01*
X38321428Y-16807142D01*
X38321428Y-16616666D01*
X38359523Y-16464285D01*
X38397619Y-16388095D01*
X38435714Y-16350000D01*
X38511904Y-16311904D01*
X39692857Y-16273809D02*
X39007142Y-17302380D01*
X39921428Y-16883333D02*
X40302380Y-16883333D01*
X39845238Y-17111904D02*
X40111904Y-16311904D01*
X40378571Y-17111904D01*
X40645238Y-17111904D02*
X40645238Y-16311904D01*
X40835714Y-16311904D01*
X40950000Y-16350000D01*
X41026190Y-16426190D01*
X41064285Y-16502380D01*
X41102380Y-16654761D01*
X41102380Y-16769047D01*
X41064285Y-16921428D01*
X41026190Y-16997619D01*
X40950000Y-17073809D01*
X40835714Y-17111904D01*
X40645238Y-17111904D01*
X41902380Y-17035714D02*
X41864285Y-17073809D01*
X41750000Y-17111904D01*
X41673809Y-17111904D01*
X41559523Y-17073809D01*
X41483333Y-16997619D01*
X41445238Y-16921428D01*
X41407142Y-16769047D01*
X41407142Y-16654761D01*
X41445238Y-16502380D01*
X41483333Y-16426190D01*
X41559523Y-16350000D01*
X41673809Y-16311904D01*
X41750000Y-16311904D01*
X41864285Y-16350000D01*
X41902380Y-16388095D01*
X42397619Y-16311904D02*
X42473809Y-16311904D01*
X42550000Y-16350000D01*
X42588095Y-16388095D01*
X42626190Y-16464285D01*
X42664285Y-16616666D01*
X42664285Y-16807142D01*
X42626190Y-16959523D01*
X42588095Y-17035714D01*
X42550000Y-17073809D01*
X42473809Y-17111904D01*
X42397619Y-17111904D01*
X42321428Y-17073809D01*
X42283333Y-17035714D01*
X42245238Y-16959523D01*
X42207142Y-16807142D01*
X42207142Y-16616666D01*
X42245238Y-16464285D01*
X42283333Y-16388095D01*
X42321428Y-16350000D01*
X42397619Y-16311904D01*
D11*
X20500000Y-35250000D02*
X21250000Y-35250000D01*
X19500000Y-35250000D02*
X18750000Y-35250000D01*
X19500000Y-35750000D02*
X19500000Y-34750000D01*
X20500000Y-34750000D02*
X20500000Y-35750000D01*
X19500000Y-35250000D02*
X20500000Y-34750000D01*
X20500000Y-35750000D02*
X19500000Y-35250000D01*
X1868095Y-48652380D02*
X1868095Y-47652380D01*
X2439523Y-48652380D01*
X2439523Y-47652380D01*
X3058571Y-48652380D02*
X2963333Y-48604761D01*
X2915714Y-48557142D01*
X2868095Y-48461904D01*
X2868095Y-48176190D01*
X2915714Y-48080952D01*
X2963333Y-48033333D01*
X3058571Y-47985714D01*
X3201428Y-47985714D01*
X3296666Y-48033333D01*
X3344285Y-48080952D01*
X3391904Y-48176190D01*
X3391904Y-48461904D01*
X3344285Y-48557142D01*
X3296666Y-48604761D01*
X3201428Y-48652380D01*
X3058571Y-48652380D01*
X3820476Y-47985714D02*
X3820476Y-48652380D01*
X3820476Y-48080952D02*
X3868095Y-48033333D01*
X3963333Y-47985714D01*
X4106190Y-47985714D01*
X4201428Y-48033333D01*
X4249047Y-48128571D01*
X4249047Y-48652380D01*
X4725238Y-48271428D02*
X5487142Y-48271428D01*
X6391904Y-48604761D02*
X6296666Y-48652380D01*
X6106190Y-48652380D01*
X6010952Y-48604761D01*
X5963333Y-48557142D01*
X5915714Y-48461904D01*
X5915714Y-48176190D01*
X5963333Y-48080952D01*
X6010952Y-48033333D01*
X6106190Y-47985714D01*
X6296666Y-47985714D01*
X6391904Y-48033333D01*
X6963333Y-48652380D02*
X6868095Y-48604761D01*
X6820476Y-48557142D01*
X6772857Y-48461904D01*
X6772857Y-48176190D01*
X6820476Y-48080952D01*
X6868095Y-48033333D01*
X6963333Y-47985714D01*
X7106190Y-47985714D01*
X7201428Y-48033333D01*
X7249047Y-48080952D01*
X7296666Y-48176190D01*
X7296666Y-48461904D01*
X7249047Y-48557142D01*
X7201428Y-48604761D01*
X7106190Y-48652380D01*
X6963333Y-48652380D01*
X7725238Y-47985714D02*
X7725238Y-48652380D01*
X7725238Y-48080952D02*
X7772857Y-48033333D01*
X7868095Y-47985714D01*
X8010952Y-47985714D01*
X8106190Y-48033333D01*
X8153809Y-48128571D01*
X8153809Y-48652380D01*
X8487142Y-47985714D02*
X8868095Y-47985714D01*
X8630000Y-47652380D02*
X8630000Y-48509523D01*
X8677619Y-48604761D01*
X8772857Y-48652380D01*
X8868095Y-48652380D01*
X9630000Y-48652380D02*
X9630000Y-48128571D01*
X9582380Y-48033333D01*
X9487142Y-47985714D01*
X9296666Y-47985714D01*
X9201428Y-48033333D01*
X9630000Y-48604761D02*
X9534761Y-48652380D01*
X9296666Y-48652380D01*
X9201428Y-48604761D01*
X9153809Y-48509523D01*
X9153809Y-48414285D01*
X9201428Y-48319047D01*
X9296666Y-48271428D01*
X9534761Y-48271428D01*
X9630000Y-48223809D01*
X10534761Y-48604761D02*
X10439523Y-48652380D01*
X10249047Y-48652380D01*
X10153809Y-48604761D01*
X10106190Y-48557142D01*
X10058571Y-48461904D01*
X10058571Y-48176190D01*
X10106190Y-48080952D01*
X10153809Y-48033333D01*
X10249047Y-47985714D01*
X10439523Y-47985714D01*
X10534761Y-48033333D01*
X10820476Y-47985714D02*
X11201428Y-47985714D01*
X10963333Y-47652380D02*
X10963333Y-48509523D01*
X11010952Y-48604761D01*
X11106190Y-48652380D01*
X11201428Y-48652380D01*
X12725238Y-48652380D02*
X12725238Y-48128571D01*
X12677619Y-48033333D01*
X12582380Y-47985714D01*
X12391904Y-47985714D01*
X12296666Y-48033333D01*
X12725238Y-48604761D02*
X12629999Y-48652380D01*
X12391904Y-48652380D01*
X12296666Y-48604761D01*
X12249047Y-48509523D01*
X12249047Y-48414285D01*
X12296666Y-48319047D01*
X12391904Y-48271428D01*
X12629999Y-48271428D01*
X12725238Y-48223809D01*
X13629999Y-47985714D02*
X13629999Y-48652380D01*
X13201428Y-47985714D02*
X13201428Y-48509523D01*
X13249047Y-48604761D01*
X13344285Y-48652380D01*
X13487142Y-48652380D01*
X13582380Y-48604761D01*
X13629999Y-48557142D01*
X14534761Y-48652380D02*
X14534761Y-47652380D01*
X14534761Y-48604761D02*
X14439523Y-48652380D01*
X14249047Y-48652380D01*
X14153809Y-48604761D01*
X14106190Y-48557142D01*
X14058571Y-48461904D01*
X14058571Y-48176190D01*
X14106190Y-48080952D01*
X14153809Y-48033333D01*
X14249047Y-47985714D01*
X14439523Y-47985714D01*
X14534761Y-48033333D01*
X15010952Y-48652380D02*
X15010952Y-47985714D01*
X15010952Y-47652380D02*
X14963333Y-47700000D01*
X15010952Y-47747619D01*
X15058571Y-47700000D01*
X15010952Y-47652380D01*
X15010952Y-47747619D01*
X15629999Y-48652380D02*
X15534761Y-48604761D01*
X15487142Y-48557142D01*
X15439523Y-48461904D01*
X15439523Y-48176190D01*
X15487142Y-48080952D01*
X15534761Y-48033333D01*
X15629999Y-47985714D01*
X15772857Y-47985714D01*
X15868095Y-48033333D01*
X15915714Y-48080952D01*
X15963333Y-48176190D01*
X15963333Y-48461904D01*
X15915714Y-48557142D01*
X15868095Y-48604761D01*
X15772857Y-48652380D01*
X15629999Y-48652380D01*
X17106190Y-48604761D02*
X17201428Y-48652380D01*
X17391904Y-48652380D01*
X17487142Y-48604761D01*
X17534761Y-48509523D01*
X17534761Y-48461904D01*
X17487142Y-48366666D01*
X17391904Y-48319047D01*
X17249047Y-48319047D01*
X17153809Y-48271428D01*
X17106190Y-48176190D01*
X17106190Y-48128571D01*
X17153809Y-48033333D01*
X17249047Y-47985714D01*
X17391904Y-47985714D01*
X17487142Y-48033333D01*
X17963333Y-48652380D02*
X17963333Y-47652380D01*
X18391904Y-48652380D02*
X18391904Y-48128571D01*
X18344285Y-48033333D01*
X18249047Y-47985714D01*
X18106190Y-47985714D01*
X18010952Y-48033333D01*
X17963333Y-48080952D01*
X19010952Y-48652380D02*
X18915714Y-48604761D01*
X18868095Y-48557142D01*
X18820476Y-48461904D01*
X18820476Y-48176190D01*
X18868095Y-48080952D01*
X18915714Y-48033333D01*
X19010952Y-47985714D01*
X19153809Y-47985714D01*
X19249047Y-48033333D01*
X19296666Y-48080952D01*
X19344285Y-48176190D01*
X19344285Y-48461904D01*
X19296666Y-48557142D01*
X19249047Y-48604761D01*
X19153809Y-48652380D01*
X19010952Y-48652380D01*
X19772857Y-48652380D02*
X19772857Y-47985714D01*
X19772857Y-48176190D02*
X19820476Y-48080952D01*
X19868095Y-48033333D01*
X19963333Y-47985714D01*
X20058571Y-47985714D01*
X20249047Y-47985714D02*
X20629999Y-47985714D01*
X20391904Y-47652380D02*
X20391904Y-48509523D01*
X20439523Y-48604761D01*
X20534761Y-48652380D01*
X20629999Y-48652380D01*
X20820476Y-47985714D02*
X21201428Y-47985714D01*
X20963333Y-48652380D02*
X20963333Y-47795238D01*
X21010952Y-47700000D01*
X21106190Y-47652380D01*
X21201428Y-47652380D01*
X21534761Y-48652380D02*
X21534761Y-47985714D01*
X21534761Y-47652380D02*
X21487142Y-47700000D01*
X21534761Y-47747619D01*
X21582380Y-47700000D01*
X21534761Y-47652380D01*
X21534761Y-47747619D01*
X22010952Y-47985714D02*
X22010952Y-48652380D01*
X22010952Y-48080952D02*
X22058571Y-48033333D01*
X22153809Y-47985714D01*
X22296666Y-47985714D01*
X22391904Y-48033333D01*
X22439523Y-48128571D01*
X22439523Y-48652380D01*
X23344285Y-48652380D02*
X23344285Y-47652380D01*
X23344285Y-48604761D02*
X23249047Y-48652380D01*
X23058571Y-48652380D01*
X22963333Y-48604761D01*
X22915714Y-48557142D01*
X22868095Y-48461904D01*
X22868095Y-48176190D01*
X22915714Y-48080952D01*
X22963333Y-48033333D01*
X23058571Y-47985714D01*
X23249047Y-47985714D01*
X23344285Y-48033333D01*
X24201428Y-48604761D02*
X24106190Y-48652380D01*
X23915714Y-48652380D01*
X23820476Y-48604761D01*
X23772857Y-48509523D01*
X23772857Y-48128571D01*
X23820476Y-48033333D01*
X23915714Y-47985714D01*
X24106190Y-47985714D01*
X24201428Y-48033333D01*
X24249047Y-48128571D01*
X24249047Y-48223809D01*
X23772857Y-48319047D01*
X24677619Y-48652380D02*
X24677619Y-47985714D01*
X24677619Y-48176190D02*
X24725238Y-48080952D01*
X24772857Y-48033333D01*
X24868095Y-47985714D01*
X24963333Y-47985714D01*
X27796666Y-45204761D02*
X27701428Y-45252380D01*
X27510952Y-45252380D01*
X27415714Y-45204761D01*
X27368095Y-45157142D01*
X27320476Y-45061904D01*
X27320476Y-44776190D01*
X27368095Y-44680952D01*
X27415714Y-44633333D01*
X27510952Y-44585714D01*
X27701428Y-44585714D01*
X27796666Y-44633333D01*
X28653809Y-44585714D02*
X28653809Y-45252380D01*
X28415714Y-44204761D02*
X28177619Y-44919047D01*
X28796666Y-44919047D01*
X29082380Y-44252380D02*
X29749047Y-44252380D01*
X29320476Y-45252380D01*
X30606190Y-44252380D02*
X30130000Y-44252380D01*
X30082380Y-44728571D01*
X30130000Y-44680952D01*
X30225238Y-44633333D01*
X30463333Y-44633333D01*
X30558571Y-44680952D01*
X30606190Y-44728571D01*
X30653809Y-44823809D01*
X30653809Y-45061904D01*
X30606190Y-45157142D01*
X30558571Y-45204761D01*
X30463333Y-45252380D01*
X30225238Y-45252380D01*
X30130000Y-45204761D01*
X30082380Y-45157142D01*
X30987142Y-44252380D02*
X31653809Y-44252380D01*
X31225238Y-45252380D01*
X32034761Y-44585714D02*
X32034761Y-45585714D01*
X32034761Y-44633333D02*
X32130000Y-44585714D01*
X32320476Y-44585714D01*
X32415714Y-44633333D01*
X32463333Y-44680952D01*
X32510952Y-44776190D01*
X32510952Y-45061904D01*
X32463333Y-45157142D01*
X32415714Y-45204761D01*
X32320476Y-45252380D01*
X32130000Y-45252380D01*
X32034761Y-45204761D01*
X27368095Y-46952380D02*
X27368095Y-45952380D01*
X27749047Y-45952380D01*
X27844285Y-46000000D01*
X27891904Y-46047619D01*
X27939523Y-46142857D01*
X27939523Y-46285714D01*
X27891904Y-46380952D01*
X27844285Y-46428571D01*
X27749047Y-46476190D01*
X27368095Y-46476190D01*
X28368095Y-46952380D02*
X28368095Y-46285714D01*
X28368095Y-46476190D02*
X28415714Y-46380952D01*
X28463333Y-46333333D01*
X28558571Y-46285714D01*
X28653809Y-46285714D01*
X29130000Y-46952380D02*
X29034761Y-46904761D01*
X28987142Y-46857142D01*
X28939523Y-46761904D01*
X28939523Y-46476190D01*
X28987142Y-46380952D01*
X29034761Y-46333333D01*
X29130000Y-46285714D01*
X29272857Y-46285714D01*
X29368095Y-46333333D01*
X29415714Y-46380952D01*
X29463333Y-46476190D01*
X29463333Y-46761904D01*
X29415714Y-46857142D01*
X29368095Y-46904761D01*
X29272857Y-46952380D01*
X29130000Y-46952380D01*
X29749047Y-46285714D02*
X30130000Y-46285714D01*
X29891904Y-45952380D02*
X29891904Y-46809523D01*
X29939523Y-46904761D01*
X30034761Y-46952380D01*
X30130000Y-46952380D01*
X30606190Y-46952380D02*
X30510952Y-46904761D01*
X30463333Y-46857142D01*
X30415714Y-46761904D01*
X30415714Y-46476190D01*
X30463333Y-46380952D01*
X30510952Y-46333333D01*
X30606190Y-46285714D01*
X30749047Y-46285714D01*
X30844285Y-46333333D01*
X30891904Y-46380952D01*
X30939523Y-46476190D01*
X30939523Y-46761904D01*
X30891904Y-46857142D01*
X30844285Y-46904761D01*
X30749047Y-46952380D01*
X30606190Y-46952380D01*
X31225238Y-46285714D02*
X31606190Y-46285714D01*
X31368095Y-45952380D02*
X31368095Y-46809523D01*
X31415714Y-46904761D01*
X31510952Y-46952380D01*
X31606190Y-46952380D01*
X31844285Y-46285714D02*
X32082380Y-46952380D01*
X32320476Y-46285714D02*
X32082380Y-46952380D01*
X31987142Y-47190476D01*
X31939523Y-47238095D01*
X31844285Y-47285714D01*
X32701428Y-46285714D02*
X32701428Y-47285714D01*
X32701428Y-46333333D02*
X32796666Y-46285714D01*
X32987142Y-46285714D01*
X33082380Y-46333333D01*
X33130000Y-46380952D01*
X33177619Y-46476190D01*
X33177619Y-46761904D01*
X33130000Y-46857142D01*
X33082380Y-46904761D01*
X32987142Y-46952380D01*
X32796666Y-46952380D01*
X32701428Y-46904761D01*
X33987142Y-46904761D02*
X33891904Y-46952380D01*
X33701428Y-46952380D01*
X33606190Y-46904761D01*
X33558571Y-46809523D01*
X33558571Y-46428571D01*
X33606190Y-46333333D01*
X33701428Y-46285714D01*
X33891904Y-46285714D01*
X33987142Y-46333333D01*
X34034761Y-46428571D01*
X34034761Y-46523809D01*
X33558571Y-46619047D01*
X27320476Y-47747619D02*
X27368095Y-47700000D01*
X27463333Y-47652380D01*
X27701428Y-47652380D01*
X27796666Y-47700000D01*
X27844285Y-47747619D01*
X27891904Y-47842857D01*
X27891904Y-47938095D01*
X27844285Y-48080952D01*
X27272857Y-48652380D01*
X27891904Y-48652380D01*
X28510952Y-47652380D02*
X28606190Y-47652380D01*
X28701428Y-47700000D01*
X28749047Y-47747619D01*
X28796666Y-47842857D01*
X28844285Y-48033333D01*
X28844285Y-48271428D01*
X28796666Y-48461904D01*
X28749047Y-48557142D01*
X28701428Y-48604761D01*
X28606190Y-48652380D01*
X28510952Y-48652380D01*
X28415714Y-48604761D01*
X28368095Y-48557142D01*
X28320476Y-48461904D01*
X28272857Y-48271428D01*
X28272857Y-48033333D01*
X28320476Y-47842857D01*
X28368095Y-47747619D01*
X28415714Y-47700000D01*
X28510952Y-47652380D01*
X29796666Y-48652380D02*
X29225238Y-48652380D01*
X29510952Y-48652380D02*
X29510952Y-47652380D01*
X29415714Y-47795238D01*
X29320476Y-47890476D01*
X29225238Y-47938095D01*
X30130000Y-47652380D02*
X30796666Y-47652380D01*
X30368095Y-48652380D01*
X31177619Y-48271428D02*
X31939523Y-48271428D01*
X32606190Y-47652380D02*
X32701428Y-47652380D01*
X32796666Y-47700000D01*
X32844285Y-47747619D01*
X32891904Y-47842857D01*
X32939523Y-48033333D01*
X32939523Y-48271428D01*
X32891904Y-48461904D01*
X32844285Y-48557142D01*
X32796666Y-48604761D01*
X32701428Y-48652380D01*
X32606190Y-48652380D01*
X32510952Y-48604761D01*
X32463333Y-48557142D01*
X32415714Y-48461904D01*
X32368095Y-48271428D01*
X32368095Y-48033333D01*
X32415714Y-47842857D01*
X32463333Y-47747619D01*
X32510952Y-47700000D01*
X32606190Y-47652380D01*
X33510952Y-48080952D02*
X33415714Y-48033333D01*
X33368095Y-47985714D01*
X33320476Y-47890476D01*
X33320476Y-47842857D01*
X33368095Y-47747619D01*
X33415714Y-47700000D01*
X33510952Y-47652380D01*
X33701428Y-47652380D01*
X33796666Y-47700000D01*
X33844285Y-47747619D01*
X33891904Y-47842857D01*
X33891904Y-47890476D01*
X33844285Y-47985714D01*
X33796666Y-48033333D01*
X33701428Y-48080952D01*
X33510952Y-48080952D01*
X33415714Y-48128571D01*
X33368095Y-48176190D01*
X33320476Y-48271428D01*
X33320476Y-48461904D01*
X33368095Y-48557142D01*
X33415714Y-48604761D01*
X33510952Y-48652380D01*
X33701428Y-48652380D01*
X33796666Y-48604761D01*
X33844285Y-48557142D01*
X33891904Y-48461904D01*
X33891904Y-48271428D01*
X33844285Y-48176190D01*
X33796666Y-48128571D01*
X33701428Y-48080952D01*
X36796666Y-44585714D02*
X36796666Y-45395238D01*
X36749047Y-45490476D01*
X36701428Y-45538095D01*
X36606190Y-45585714D01*
X36463333Y-45585714D01*
X36368095Y-45538095D01*
X36796666Y-45204761D02*
X36701428Y-45252380D01*
X36510952Y-45252380D01*
X36415714Y-45204761D01*
X36368095Y-45157142D01*
X36320476Y-45061904D01*
X36320476Y-44776190D01*
X36368095Y-44680952D01*
X36415714Y-44633333D01*
X36510952Y-44585714D01*
X36701428Y-44585714D01*
X36796666Y-44633333D01*
X37272857Y-45252380D02*
X37272857Y-44585714D01*
X37272857Y-44252380D02*
X37225238Y-44300000D01*
X37272857Y-44347619D01*
X37320476Y-44300000D01*
X37272857Y-44252380D01*
X37272857Y-44347619D01*
X37606190Y-44585714D02*
X37987142Y-44585714D01*
X37749047Y-44252380D02*
X37749047Y-45109523D01*
X37796666Y-45204761D01*
X37891904Y-45252380D01*
X37987142Y-45252380D01*
X38320476Y-45252380D02*
X38320476Y-44252380D01*
X38749047Y-45252380D02*
X38749047Y-44728571D01*
X38701428Y-44633333D01*
X38606190Y-44585714D01*
X38463333Y-44585714D01*
X38368095Y-44633333D01*
X38320476Y-44680952D01*
X39653809Y-44585714D02*
X39653809Y-45252380D01*
X39225238Y-44585714D02*
X39225238Y-45109523D01*
X39272857Y-45204761D01*
X39368095Y-45252380D01*
X39510952Y-45252380D01*
X39606190Y-45204761D01*
X39653809Y-45157142D01*
X40130000Y-45252380D02*
X40130000Y-44252380D01*
X40130000Y-44633333D02*
X40225238Y-44585714D01*
X40415714Y-44585714D01*
X40510952Y-44633333D01*
X40558571Y-44680952D01*
X40606190Y-44776190D01*
X40606190Y-45061904D01*
X40558571Y-45157142D01*
X40510952Y-45204761D01*
X40415714Y-45252380D01*
X40225238Y-45252380D01*
X40130000Y-45204761D01*
X41034761Y-45157142D02*
X41082380Y-45204761D01*
X41034761Y-45252380D01*
X40987142Y-45204761D01*
X41034761Y-45157142D01*
X41034761Y-45252380D01*
X41939523Y-45204761D02*
X41844285Y-45252380D01*
X41653809Y-45252380D01*
X41558571Y-45204761D01*
X41510952Y-45157142D01*
X41463333Y-45061904D01*
X41463333Y-44776190D01*
X41510952Y-44680952D01*
X41558571Y-44633333D01*
X41653809Y-44585714D01*
X41844285Y-44585714D01*
X41939523Y-44633333D01*
X42510952Y-45252380D02*
X42415714Y-45204761D01*
X42368095Y-45157142D01*
X42320476Y-45061904D01*
X42320476Y-44776190D01*
X42368095Y-44680952D01*
X42415714Y-44633333D01*
X42510952Y-44585714D01*
X42653809Y-44585714D01*
X42749047Y-44633333D01*
X42796666Y-44680952D01*
X42844285Y-44776190D01*
X42844285Y-45061904D01*
X42796666Y-45157142D01*
X42749047Y-45204761D01*
X42653809Y-45252380D01*
X42510952Y-45252380D01*
X43272857Y-45252380D02*
X43272857Y-44585714D01*
X43272857Y-44680952D02*
X43320476Y-44633333D01*
X43415714Y-44585714D01*
X43558571Y-44585714D01*
X43653809Y-44633333D01*
X43701428Y-44728571D01*
X43701428Y-45252380D01*
X43701428Y-44728571D02*
X43749047Y-44633333D01*
X43844285Y-44585714D01*
X43987142Y-44585714D01*
X44082380Y-44633333D01*
X44130000Y-44728571D01*
X44130000Y-45252380D01*
X45320476Y-44204761D02*
X44463333Y-45490476D01*
X45606190Y-45204761D02*
X45701428Y-45252380D01*
X45891904Y-45252380D01*
X45987142Y-45204761D01*
X46034761Y-45109523D01*
X46034761Y-45061904D01*
X45987142Y-44966666D01*
X45891904Y-44919047D01*
X45749047Y-44919047D01*
X45653809Y-44871428D01*
X45606190Y-44776190D01*
X45606190Y-44728571D01*
X45653809Y-44633333D01*
X45749047Y-44585714D01*
X45891904Y-44585714D01*
X45987142Y-44633333D01*
X46844285Y-45204761D02*
X46749047Y-45252380D01*
X46558571Y-45252380D01*
X46463333Y-45204761D01*
X46415714Y-45109523D01*
X46415714Y-44728571D01*
X46463333Y-44633333D01*
X46558571Y-44585714D01*
X46749047Y-44585714D01*
X46844285Y-44633333D01*
X46891904Y-44728571D01*
X46891904Y-44823809D01*
X46415714Y-44919047D01*
X47320476Y-45252380D02*
X47320476Y-44585714D01*
X47320476Y-44680952D02*
X47368095Y-44633333D01*
X47463333Y-44585714D01*
X47606190Y-44585714D01*
X47701428Y-44633333D01*
X47749047Y-44728571D01*
X47749047Y-45252380D01*
X47749047Y-44728571D02*
X47796666Y-44633333D01*
X47891904Y-44585714D01*
X48034761Y-44585714D01*
X48130000Y-44633333D01*
X48177619Y-44728571D01*
X48177619Y-45252380D01*
X48653809Y-45252380D02*
X48653809Y-44585714D01*
X48653809Y-44252380D02*
X48606190Y-44300000D01*
X48653809Y-44347619D01*
X48701428Y-44300000D01*
X48653809Y-44252380D01*
X48653809Y-44347619D01*
X49558571Y-45252380D02*
X49558571Y-44728571D01*
X49510952Y-44633333D01*
X49415714Y-44585714D01*
X49225238Y-44585714D01*
X49130000Y-44633333D01*
X49558571Y-45204761D02*
X49463333Y-45252380D01*
X49225238Y-45252380D01*
X49130000Y-45204761D01*
X49082380Y-45109523D01*
X49082380Y-45014285D01*
X49130000Y-44919047D01*
X49225238Y-44871428D01*
X49463333Y-44871428D01*
X49558571Y-44823809D01*
X50034761Y-44585714D02*
X50034761Y-45252380D01*
X50034761Y-44680952D02*
X50082380Y-44633333D01*
X50177619Y-44585714D01*
X50320476Y-44585714D01*
X50415714Y-44633333D01*
X50463333Y-44728571D01*
X50463333Y-45252380D01*
X51368095Y-45252380D02*
X51368095Y-44728571D01*
X51320476Y-44633333D01*
X51225238Y-44585714D01*
X51034761Y-44585714D01*
X50939523Y-44633333D01*
X51368095Y-45204761D02*
X51272857Y-45252380D01*
X51034761Y-45252380D01*
X50939523Y-45204761D01*
X50891904Y-45109523D01*
X50891904Y-45014285D01*
X50939523Y-44919047D01*
X51034761Y-44871428D01*
X51272857Y-44871428D01*
X51368095Y-44823809D01*
X51987142Y-45252380D02*
X51891904Y-45204761D01*
X51844285Y-45109523D01*
X51844285Y-44252380D01*
X52510952Y-45252380D02*
X52415714Y-45204761D01*
X52368095Y-45157142D01*
X52320476Y-45061904D01*
X52320476Y-44776190D01*
X52368095Y-44680952D01*
X52415714Y-44633333D01*
X52510952Y-44585714D01*
X52653809Y-44585714D01*
X52749047Y-44633333D01*
X52796666Y-44680952D01*
X52844285Y-44776190D01*
X52844285Y-45061904D01*
X52796666Y-45157142D01*
X52749047Y-45204761D01*
X52653809Y-45252380D01*
X52510952Y-45252380D01*
X53701428Y-44585714D02*
X53701428Y-45395238D01*
X53653809Y-45490476D01*
X53606190Y-45538095D01*
X53510952Y-45585714D01*
X53368095Y-45585714D01*
X53272857Y-45538095D01*
X53701428Y-45204761D02*
X53606190Y-45252380D01*
X53415714Y-45252380D01*
X53320476Y-45204761D01*
X53272857Y-45157142D01*
X53225238Y-45061904D01*
X53225238Y-44776190D01*
X53272857Y-44680952D01*
X53320476Y-44633333D01*
X53415714Y-44585714D01*
X53606190Y-44585714D01*
X53701428Y-44633333D01*
X54891904Y-44204761D02*
X54034761Y-45490476D01*
X55177619Y-45204761D02*
X55272857Y-45252380D01*
X55463333Y-45252380D01*
X55558571Y-45204761D01*
X55606190Y-45109523D01*
X55606190Y-45061904D01*
X55558571Y-44966666D01*
X55463333Y-44919047D01*
X55320476Y-44919047D01*
X55225238Y-44871428D01*
X55177619Y-44776190D01*
X55177619Y-44728571D01*
X55225238Y-44633333D01*
X55320476Y-44585714D01*
X55463333Y-44585714D01*
X55558571Y-44633333D01*
X55891904Y-44585714D02*
X56272857Y-44585714D01*
X56034761Y-45252380D02*
X56034761Y-44395238D01*
X56082380Y-44300000D01*
X56177619Y-44252380D01*
X56272857Y-44252380D01*
X36320476Y-46904761D02*
X36415714Y-46952380D01*
X36606190Y-46952380D01*
X36701428Y-46904761D01*
X36749047Y-46809523D01*
X36749047Y-46761904D01*
X36701428Y-46666666D01*
X36606190Y-46619047D01*
X36463333Y-46619047D01*
X36368095Y-46571428D01*
X36320476Y-46476190D01*
X36320476Y-46428571D01*
X36368095Y-46333333D01*
X36463333Y-46285714D01*
X36606190Y-46285714D01*
X36701428Y-46333333D01*
X37558571Y-46904761D02*
X37463333Y-46952380D01*
X37272857Y-46952380D01*
X37177619Y-46904761D01*
X37130000Y-46809523D01*
X37130000Y-46428571D01*
X37177619Y-46333333D01*
X37272857Y-46285714D01*
X37463333Y-46285714D01*
X37558571Y-46333333D01*
X37606190Y-46428571D01*
X37606190Y-46523809D01*
X37130000Y-46619047D01*
X38034761Y-46952380D02*
X38034761Y-46285714D01*
X38034761Y-46380952D02*
X38082380Y-46333333D01*
X38177619Y-46285714D01*
X38320476Y-46285714D01*
X38415714Y-46333333D01*
X38463333Y-46428571D01*
X38463333Y-46952380D01*
X38463333Y-46428571D02*
X38510952Y-46333333D01*
X38606190Y-46285714D01*
X38749047Y-46285714D01*
X38844285Y-46333333D01*
X38891904Y-46428571D01*
X38891904Y-46952380D01*
X39368095Y-46952380D02*
X39368095Y-46285714D01*
X39368095Y-45952380D02*
X39320476Y-46000000D01*
X39368095Y-46047619D01*
X39415714Y-46000000D01*
X39368095Y-45952380D01*
X39368095Y-46047619D01*
X40272857Y-46952380D02*
X40272857Y-46428571D01*
X40225238Y-46333333D01*
X40130000Y-46285714D01*
X39939523Y-46285714D01*
X39844285Y-46333333D01*
X40272857Y-46904761D02*
X40177619Y-46952380D01*
X39939523Y-46952380D01*
X39844285Y-46904761D01*
X39796666Y-46809523D01*
X39796666Y-46714285D01*
X39844285Y-46619047D01*
X39939523Y-46571428D01*
X40177619Y-46571428D01*
X40272857Y-46523809D01*
X40749047Y-46285714D02*
X40749047Y-46952380D01*
X40749047Y-46380952D02*
X40796666Y-46333333D01*
X40891904Y-46285714D01*
X41034761Y-46285714D01*
X41130000Y-46333333D01*
X41177619Y-46428571D01*
X41177619Y-46952380D01*
X42082380Y-46952380D02*
X42082380Y-46428571D01*
X42034761Y-46333333D01*
X41939523Y-46285714D01*
X41749047Y-46285714D01*
X41653809Y-46333333D01*
X42082380Y-46904761D02*
X41987142Y-46952380D01*
X41749047Y-46952380D01*
X41653809Y-46904761D01*
X41606190Y-46809523D01*
X41606190Y-46714285D01*
X41653809Y-46619047D01*
X41749047Y-46571428D01*
X41987142Y-46571428D01*
X42082380Y-46523809D01*
X42701428Y-46952380D02*
X42606190Y-46904761D01*
X42558571Y-46809523D01*
X42558571Y-45952380D01*
X43225238Y-46952380D02*
X43130000Y-46904761D01*
X43082380Y-46857142D01*
X43034761Y-46761904D01*
X43034761Y-46476190D01*
X43082380Y-46380952D01*
X43130000Y-46333333D01*
X43225238Y-46285714D01*
X43368095Y-46285714D01*
X43463333Y-46333333D01*
X43510952Y-46380952D01*
X43558571Y-46476190D01*
X43558571Y-46761904D01*
X43510952Y-46857142D01*
X43463333Y-46904761D01*
X43368095Y-46952380D01*
X43225238Y-46952380D01*
X44415714Y-46285714D02*
X44415714Y-47095238D01*
X44368095Y-47190476D01*
X44320476Y-47238095D01*
X44225238Y-47285714D01*
X44082380Y-47285714D01*
X43987142Y-47238095D01*
X44415714Y-46904761D02*
X44320476Y-46952380D01*
X44130000Y-46952380D01*
X44034761Y-46904761D01*
X43987142Y-46857142D01*
X43939523Y-46761904D01*
X43939523Y-46476190D01*
X43987142Y-46380952D01*
X44034761Y-46333333D01*
X44130000Y-46285714D01*
X44320476Y-46285714D01*
X44415714Y-46333333D01*
X44891904Y-46857142D02*
X44939523Y-46904761D01*
X44891904Y-46952380D01*
X44844285Y-46904761D01*
X44891904Y-46857142D01*
X44891904Y-46952380D01*
X45796666Y-46904761D02*
X45701428Y-46952380D01*
X45510952Y-46952380D01*
X45415714Y-46904761D01*
X45368095Y-46857142D01*
X45320476Y-46761904D01*
X45320476Y-46476190D01*
X45368095Y-46380952D01*
X45415714Y-46333333D01*
X45510952Y-46285714D01*
X45701428Y-46285714D01*
X45796666Y-46333333D01*
X46368095Y-46952380D02*
X46272857Y-46904761D01*
X46225238Y-46857142D01*
X46177619Y-46761904D01*
X46177619Y-46476190D01*
X46225238Y-46380952D01*
X46272857Y-46333333D01*
X46368095Y-46285714D01*
X46510952Y-46285714D01*
X46606190Y-46333333D01*
X46653809Y-46380952D01*
X46701428Y-46476190D01*
X46701428Y-46761904D01*
X46653809Y-46857142D01*
X46606190Y-46904761D01*
X46510952Y-46952380D01*
X46368095Y-46952380D01*
X47130000Y-46952380D02*
X47130000Y-46285714D01*
X47130000Y-46380952D02*
X47177619Y-46333333D01*
X47272857Y-46285714D01*
X47415714Y-46285714D01*
X47510952Y-46333333D01*
X47558571Y-46428571D01*
X47558571Y-46952380D01*
X47558571Y-46428571D02*
X47606190Y-46333333D01*
X47701428Y-46285714D01*
X47844285Y-46285714D01*
X47939523Y-46333333D01*
X47987142Y-46428571D01*
X47987142Y-46952380D01*
X49177619Y-45904761D02*
X48320476Y-47190476D01*
X49510952Y-46952380D02*
X49510952Y-45952380D01*
X49939523Y-46952380D02*
X49939523Y-46428571D01*
X49891904Y-46333333D01*
X49796666Y-46285714D01*
X49653809Y-46285714D01*
X49558571Y-46333333D01*
X49510952Y-46380952D01*
X50844285Y-46952380D02*
X50844285Y-46428571D01*
X50796666Y-46333333D01*
X50701428Y-46285714D01*
X50510952Y-46285714D01*
X50415714Y-46333333D01*
X50844285Y-46904761D02*
X50749047Y-46952380D01*
X50510952Y-46952380D01*
X50415714Y-46904761D01*
X50368095Y-46809523D01*
X50368095Y-46714285D01*
X50415714Y-46619047D01*
X50510952Y-46571428D01*
X50749047Y-46571428D01*
X50844285Y-46523809D01*
X51320476Y-46952380D02*
X51320476Y-46285714D01*
X51320476Y-46476190D02*
X51368095Y-46380952D01*
X51415714Y-46333333D01*
X51510952Y-46285714D01*
X51606190Y-46285714D01*
X52368095Y-46952380D02*
X52368095Y-45952380D01*
X52368095Y-46904761D02*
X52272857Y-46952380D01*
X52082380Y-46952380D01*
X51987142Y-46904761D01*
X51939523Y-46857142D01*
X51891904Y-46761904D01*
X51891904Y-46476190D01*
X51939523Y-46380952D01*
X51987142Y-46333333D01*
X52082380Y-46285714D01*
X52272857Y-46285714D01*
X52368095Y-46333333D01*
X52749047Y-46285714D02*
X52939523Y-46952380D01*
X53130000Y-46476190D01*
X53320476Y-46952380D01*
X53510952Y-46285714D01*
X54320476Y-46952380D02*
X54320476Y-46428571D01*
X54272857Y-46333333D01*
X54177619Y-46285714D01*
X53987142Y-46285714D01*
X53891904Y-46333333D01*
X54320476Y-46904761D02*
X54225238Y-46952380D01*
X53987142Y-46952380D01*
X53891904Y-46904761D01*
X53844285Y-46809523D01*
X53844285Y-46714285D01*
X53891904Y-46619047D01*
X53987142Y-46571428D01*
X54225238Y-46571428D01*
X54320476Y-46523809D01*
X54796666Y-46952380D02*
X54796666Y-46285714D01*
X54796666Y-46476190D02*
X54844285Y-46380952D01*
X54891904Y-46333333D01*
X54987142Y-46285714D01*
X55082380Y-46285714D01*
X55796666Y-46904761D02*
X55701428Y-46952380D01*
X55510952Y-46952380D01*
X55415714Y-46904761D01*
X55368095Y-46809523D01*
X55368095Y-46428571D01*
X55415714Y-46333333D01*
X55510952Y-46285714D01*
X55701428Y-46285714D01*
X55796666Y-46333333D01*
X55844285Y-46428571D01*
X55844285Y-46523809D01*
X55368095Y-46619047D01*
X56987142Y-45904761D02*
X56130000Y-47190476D01*
X57272857Y-46904761D02*
X57368095Y-46952380D01*
X57558571Y-46952380D01*
X57653809Y-46904761D01*
X57701428Y-46809523D01*
X57701428Y-46761904D01*
X57653809Y-46666666D01*
X57558571Y-46619047D01*
X57415714Y-46619047D01*
X57320476Y-46571428D01*
X57272857Y-46476190D01*
X57272857Y-46428571D01*
X57320476Y-46333333D01*
X57415714Y-46285714D01*
X57558571Y-46285714D01*
X57653809Y-46333333D01*
X57987142Y-46285714D02*
X58368095Y-46285714D01*
X58130000Y-46952380D02*
X58130000Y-46095238D01*
X58177619Y-46000000D01*
X58272857Y-45952380D01*
X58368095Y-45952380D01*
X36939523Y-48557142D02*
X36891904Y-48604761D01*
X36749047Y-48652380D01*
X36653809Y-48652380D01*
X36510952Y-48604761D01*
X36415714Y-48509523D01*
X36368095Y-48414285D01*
X36320476Y-48223809D01*
X36320476Y-48080952D01*
X36368095Y-47890476D01*
X36415714Y-47795238D01*
X36510952Y-47700000D01*
X36653809Y-47652380D01*
X36749047Y-47652380D01*
X36891904Y-47700000D01*
X36939523Y-47747619D01*
X37939523Y-48557142D02*
X37891904Y-48604761D01*
X37749047Y-48652380D01*
X37653809Y-48652380D01*
X37510952Y-48604761D01*
X37415714Y-48509523D01*
X37368095Y-48414285D01*
X37320476Y-48223809D01*
X37320476Y-48080952D01*
X37368095Y-47890476D01*
X37415714Y-47795238D01*
X37510952Y-47700000D01*
X37653809Y-47652380D01*
X37749047Y-47652380D01*
X37891904Y-47700000D01*
X37939523Y-47747619D01*
X38368095Y-48271428D02*
X39130000Y-48271428D01*
X39939523Y-48128571D02*
X40082380Y-48176190D01*
X40130000Y-48223809D01*
X40177619Y-48319047D01*
X40177619Y-48461904D01*
X40130000Y-48557142D01*
X40082380Y-48604761D01*
X39987142Y-48652380D01*
X39606190Y-48652380D01*
X39606190Y-47652380D01*
X39939523Y-47652380D01*
X40034761Y-47700000D01*
X40082380Y-47747619D01*
X40130000Y-47842857D01*
X40130000Y-47938095D01*
X40082380Y-48033333D01*
X40034761Y-48080952D01*
X39939523Y-48128571D01*
X39606190Y-48128571D01*
X40796666Y-48176190D02*
X40796666Y-48652380D01*
X40463333Y-47652380D02*
X40796666Y-48176190D01*
X41130000Y-47652380D01*
X41463333Y-48271428D02*
X42225238Y-48271428D01*
X42653809Y-48604761D02*
X42796666Y-48652380D01*
X43034761Y-48652380D01*
X43130000Y-48604761D01*
X43177619Y-48557142D01*
X43225238Y-48461904D01*
X43225238Y-48366666D01*
X43177619Y-48271428D01*
X43130000Y-48223809D01*
X43034761Y-48176190D01*
X42844285Y-48128571D01*
X42749047Y-48080952D01*
X42701428Y-48033333D01*
X42653809Y-47938095D01*
X42653809Y-47842857D01*
X42701428Y-47747619D01*
X42749047Y-47700000D01*
X42844285Y-47652380D01*
X43082380Y-47652380D01*
X43225238Y-47700000D01*
X43606190Y-48366666D02*
X44082380Y-48366666D01*
X43510952Y-48652380D02*
X43844285Y-47652380D01*
X44177619Y-48652380D01*
X45701428Y-47985714D02*
X45701428Y-48652380D01*
X45463333Y-47604761D02*
X45225238Y-48319047D01*
X45844285Y-48319047D01*
X46225238Y-48557142D02*
X46272857Y-48604761D01*
X46225238Y-48652380D01*
X46177619Y-48604761D01*
X46225238Y-48557142D01*
X46225238Y-48652380D01*
X46891904Y-47652380D02*
X46987142Y-47652380D01*
X47082380Y-47700000D01*
X47130000Y-47747619D01*
X47177619Y-47842857D01*
X47225238Y-48033333D01*
X47225238Y-48271428D01*
X47177619Y-48461904D01*
X47130000Y-48557142D01*
X47082380Y-48604761D01*
X46987142Y-48652380D01*
X46891904Y-48652380D01*
X46796666Y-48604761D01*
X46749047Y-48557142D01*
X46701428Y-48461904D01*
X46653809Y-48271428D01*
X46653809Y-48033333D01*
X46701428Y-47842857D01*
X46749047Y-47747619D01*
X46796666Y-47700000D01*
X46891904Y-47652380D01*
X11127142Y-26400000D02*
X11012857Y-26342857D01*
X10841428Y-26342857D01*
X10670000Y-26400000D01*
X10555714Y-26514285D01*
X10498571Y-26628571D01*
X10441428Y-26857142D01*
X10441428Y-27028571D01*
X10498571Y-27257142D01*
X10555714Y-27371428D01*
X10670000Y-27485714D01*
X10841428Y-27542857D01*
X10955714Y-27542857D01*
X11127142Y-27485714D01*
X11184285Y-27428571D01*
X11184285Y-27028571D01*
X10955714Y-27028571D01*
X11698571Y-27542857D02*
X11698571Y-26342857D01*
X12384285Y-27542857D01*
X12384285Y-26342857D01*
X12955714Y-27542857D02*
X12955714Y-26342857D01*
X13241428Y-26342857D01*
X13412857Y-26400000D01*
X13527142Y-26514285D01*
X13584285Y-26628571D01*
X13641428Y-26857142D01*
X13641428Y-27028571D01*
X13584285Y-27257142D01*
X13527142Y-27371428D01*
X13412857Y-27485714D01*
X13241428Y-27542857D01*
X12955714Y-27542857D01*
X11927142Y-31342857D02*
X12612857Y-31342857D01*
X12269999Y-32542857D02*
X12269999Y-31342857D01*
X12898571Y-31342857D02*
X13698571Y-32542857D01*
X13698571Y-31342857D02*
X12898571Y-32542857D01*
X12498571Y-30042857D02*
X12098571Y-29471428D01*
X11812857Y-30042857D02*
X11812857Y-28842857D01*
X12270000Y-28842857D01*
X12384285Y-28900000D01*
X12441428Y-28957142D01*
X12498571Y-29071428D01*
X12498571Y-29242857D01*
X12441428Y-29357142D01*
X12384285Y-29414285D01*
X12270000Y-29471428D01*
X11812857Y-29471428D01*
X12898571Y-28842857D02*
X13698571Y-30042857D01*
X13698571Y-28842857D02*
X12898571Y-30042857D01*
D12*
X19428571Y-3107142D02*
X20571428Y-3107142D01*
X19428571Y-5107142D02*
X20571428Y-5107142D01*
X20000000Y-5678571D02*
X20000000Y-4535714D01*
X9492857Y-2042857D02*
X9492857Y-842857D01*
X9778571Y-842857D01*
X9950000Y-900000D01*
X10064285Y-1014285D01*
X10121428Y-1128571D01*
X10178571Y-1357142D01*
X10178571Y-1528571D01*
X10121428Y-1757142D01*
X10064285Y-1871428D01*
X9950000Y-1985714D01*
X9778571Y-2042857D01*
X9492857Y-2042857D01*
X11378571Y-2042857D02*
X10978571Y-1471428D01*
X10692857Y-2042857D02*
X10692857Y-842857D01*
X11150000Y-842857D01*
X11264285Y-900000D01*
X11321428Y-957142D01*
X11378571Y-1071428D01*
X11378571Y-1242857D01*
X11321428Y-1357142D01*
X11264285Y-1414285D01*
X11150000Y-1471428D01*
X10692857Y-1471428D01*
X11892857Y-2042857D02*
X11892857Y-842857D01*
X12292857Y-842857D02*
X12692857Y-2042857D01*
X13092857Y-842857D01*
X13492857Y-1414285D02*
X13892857Y-1414285D01*
X14064285Y-2042857D02*
X13492857Y-2042857D01*
X13492857Y-842857D01*
X14064285Y-842857D01*
D11*
X6500000Y-19000000D02*
X6750000Y-19250000D01*
X6250000Y-19250000D02*
X6500000Y-19000000D01*
X6500000Y-18500000D02*
X6500000Y-19250000D01*
X6750000Y-19250000D02*
X6500000Y-18500000D01*
X6250000Y-19250000D02*
X6750000Y-19250000D01*
X6500000Y-18500000D02*
X6250000Y-19250000D01*
D13*
X9000000Y-16250000D02*
X6000000Y-16250000D01*
X9000000Y-15750000D02*
X9000000Y-16250000D01*
X6000000Y-15750000D02*
X9000000Y-15750000D01*
X6000000Y-16250000D02*
X6000000Y-15750000D01*
X18405000Y-25055000D02*
X18405000Y-33945000D01*
X18405000Y-33945000D02*
X14595000Y-33945000D01*
X14595000Y-33945000D02*
X14595000Y-25055000D01*
X14595000Y-25055000D02*
X18405000Y-25055000D01*
X18405000Y-28230000D02*
X14595000Y-28230000D01*
D10*
X41029000Y-4929000D02*
X41029000Y-5071000D01*
X41029000Y-5071000D02*
X41029000Y-4929000D01*
X41971000Y-4929000D02*
X41971000Y-5071000D01*
X41971000Y-5071000D02*
X41971000Y-4929000D01*
X44429000Y-8971000D02*
X44571000Y-8971000D01*
X44571000Y-8971000D02*
X44429000Y-8971000D01*
X44429000Y-8029000D02*
X44571000Y-8029000D01*
X44571000Y-8029000D02*
X44429000Y-8029000D01*
X45100000Y-4300000D02*
X46000000Y-4300000D01*
X46000000Y-4300000D02*
X46000000Y-5300000D01*
X43000000Y-5300000D02*
X43000000Y-4300000D01*
X43000000Y-4300000D02*
X43900000Y-4300000D01*
D14*
G36*
X34781164Y-43152857D02*
X34718925Y-43152857D01*
X34656686Y-43152857D01*
X34656686Y-42970456D01*
X34656299Y-42902127D01*
X34655156Y-42846084D01*
X34653280Y-42802911D01*
X34650694Y-42773194D01*
X34648175Y-42759650D01*
X34632480Y-42729407D01*
X34607132Y-42703884D01*
X34576665Y-42687211D01*
X34565237Y-42684155D01*
X34535048Y-42684566D01*
X34502471Y-42694315D01*
X34473643Y-42711004D01*
X34458844Y-42725715D01*
X34451091Y-42738083D01*
X34444962Y-42753183D01*
X34440273Y-42772759D01*
X34436841Y-42798558D01*
X34434482Y-42832322D01*
X34433013Y-42875797D01*
X34432250Y-42930728D01*
X34432030Y-42980500D01*
X34431714Y-43152857D01*
X34374866Y-43152857D01*
X34347408Y-43152278D01*
X34325854Y-43150744D01*
X34314078Y-43148560D01*
X34313181Y-43148019D01*
X34312513Y-43140243D01*
X34311872Y-43118923D01*
X34311265Y-43085025D01*
X34310697Y-43039520D01*
X34310176Y-42983376D01*
X34309707Y-42917561D01*
X34309297Y-42843045D01*
X34308952Y-42760797D01*
X34308678Y-42671784D01*
X34308481Y-42576977D01*
X34308369Y-42477343D01*
X34308343Y-42400533D01*
X34308343Y-41657885D01*
X34369590Y-41657885D01*
X34430838Y-41657885D01*
X34433090Y-41683649D01*
X34435343Y-41709413D01*
X34460055Y-41691116D01*
X34503447Y-41666913D01*
X34550132Y-41654513D01*
X34597770Y-41653233D01*
X34644022Y-41662387D01*
X34686545Y-41681293D01*
X34722999Y-41709268D01*
X34751044Y-41745627D01*
X34765897Y-41780441D01*
X34768991Y-41797175D01*
X34772122Y-41824950D01*
X34774978Y-41860295D01*
X34777245Y-41899740D01*
X34777764Y-41911885D01*
X34778827Y-41987630D01*
X34775472Y-42050392D01*
X34767590Y-42101051D01*
X34755071Y-42140484D01*
X34747422Y-42155617D01*
X34717544Y-42193121D01*
X34679184Y-42220812D01*
X34652920Y-42231155D01*
X34652920Y-41948171D01*
X34652653Y-41908291D01*
X34651440Y-41879647D01*
X34648875Y-41858975D01*
X34644553Y-41843006D01*
X34638068Y-41828474D01*
X34638045Y-41828428D01*
X34615917Y-41800180D01*
X34585884Y-41781730D01*
X34551511Y-41773984D01*
X34516363Y-41777845D01*
X34489030Y-41790599D01*
X34472075Y-41803542D01*
X34459769Y-41817762D01*
X34451391Y-41835761D01*
X34446223Y-41860044D01*
X34443544Y-41893114D01*
X34442635Y-41937474D01*
X34442600Y-41952131D01*
X34442869Y-41994346D01*
X34443866Y-42024721D01*
X34445879Y-42045922D01*
X34449193Y-42060616D01*
X34454096Y-42071470D01*
X34455694Y-42074034D01*
X34481054Y-42100396D01*
X34513845Y-42116815D01*
X34550189Y-42122415D01*
X34586204Y-42116321D01*
X34604508Y-42107642D01*
X34622807Y-42093638D01*
X34636060Y-42075751D01*
X34644975Y-42051652D01*
X34650257Y-42019012D01*
X34652616Y-41975502D01*
X34652920Y-41948171D01*
X34652920Y-42231155D01*
X34634961Y-42238229D01*
X34587493Y-42244911D01*
X34539399Y-42240395D01*
X34493297Y-42224220D01*
X34463539Y-42205657D01*
X34447822Y-42194367D01*
X34437326Y-42188105D01*
X34435827Y-42187657D01*
X34434796Y-42194618D01*
X34433861Y-42214320D01*
X34433053Y-42244987D01*
X34432406Y-42284847D01*
X34431955Y-42332124D01*
X34431732Y-42385046D01*
X34431714Y-42405323D01*
X34431714Y-42622989D01*
X34464537Y-42597935D01*
X34488291Y-42582534D01*
X34512742Y-42570841D01*
X34524408Y-42567226D01*
X34560824Y-42562801D01*
X34600056Y-42563103D01*
X34636036Y-42567812D01*
X34657698Y-42574239D01*
X34692382Y-42594775D01*
X34725540Y-42624679D01*
X34752249Y-42659205D01*
X34759676Y-42672532D01*
X34764402Y-42682619D01*
X34768168Y-42692735D01*
X34771105Y-42704632D01*
X34773342Y-42720062D01*
X34775011Y-42740777D01*
X34776241Y-42768529D01*
X34777162Y-42805071D01*
X34777906Y-42852154D01*
X34778602Y-42911531D01*
X34778796Y-42929700D01*
X34781164Y-43152857D01*
X34781164Y-43152857D01*
X34781164Y-43152857D01*
G37*
X34781164Y-43152857D02*
X34718925Y-43152857D01*
X34656686Y-43152857D01*
X34656686Y-42970456D01*
X34656299Y-42902127D01*
X34655156Y-42846084D01*
X34653280Y-42802911D01*
X34650694Y-42773194D01*
X34648175Y-42759650D01*
X34632480Y-42729407D01*
X34607132Y-42703884D01*
X34576665Y-42687211D01*
X34565237Y-42684155D01*
X34535048Y-42684566D01*
X34502471Y-42694315D01*
X34473643Y-42711004D01*
X34458844Y-42725715D01*
X34451091Y-42738083D01*
X34444962Y-42753183D01*
X34440273Y-42772759D01*
X34436841Y-42798558D01*
X34434482Y-42832322D01*
X34433013Y-42875797D01*
X34432250Y-42930728D01*
X34432030Y-42980500D01*
X34431714Y-43152857D01*
X34374866Y-43152857D01*
X34347408Y-43152278D01*
X34325854Y-43150744D01*
X34314078Y-43148560D01*
X34313181Y-43148019D01*
X34312513Y-43140243D01*
X34311872Y-43118923D01*
X34311265Y-43085025D01*
X34310697Y-43039520D01*
X34310176Y-42983376D01*
X34309707Y-42917561D01*
X34309297Y-42843045D01*
X34308952Y-42760797D01*
X34308678Y-42671784D01*
X34308481Y-42576977D01*
X34308369Y-42477343D01*
X34308343Y-42400533D01*
X34308343Y-41657885D01*
X34369590Y-41657885D01*
X34430838Y-41657885D01*
X34433090Y-41683649D01*
X34435343Y-41709413D01*
X34460055Y-41691116D01*
X34503447Y-41666913D01*
X34550132Y-41654513D01*
X34597770Y-41653233D01*
X34644022Y-41662387D01*
X34686545Y-41681293D01*
X34722999Y-41709268D01*
X34751044Y-41745627D01*
X34765897Y-41780441D01*
X34768991Y-41797175D01*
X34772122Y-41824950D01*
X34774978Y-41860295D01*
X34777245Y-41899740D01*
X34777764Y-41911885D01*
X34778827Y-41987630D01*
X34775472Y-42050392D01*
X34767590Y-42101051D01*
X34755071Y-42140484D01*
X34747422Y-42155617D01*
X34717544Y-42193121D01*
X34679184Y-42220812D01*
X34652920Y-42231155D01*
X34652920Y-41948171D01*
X34652653Y-41908291D01*
X34651440Y-41879647D01*
X34648875Y-41858975D01*
X34644553Y-41843006D01*
X34638068Y-41828474D01*
X34638045Y-41828428D01*
X34615917Y-41800180D01*
X34585884Y-41781730D01*
X34551511Y-41773984D01*
X34516363Y-41777845D01*
X34489030Y-41790599D01*
X34472075Y-41803542D01*
X34459769Y-41817762D01*
X34451391Y-41835761D01*
X34446223Y-41860044D01*
X34443544Y-41893114D01*
X34442635Y-41937474D01*
X34442600Y-41952131D01*
X34442869Y-41994346D01*
X34443866Y-42024721D01*
X34445879Y-42045922D01*
X34449193Y-42060616D01*
X34454096Y-42071470D01*
X34455694Y-42074034D01*
X34481054Y-42100396D01*
X34513845Y-42116815D01*
X34550189Y-42122415D01*
X34586204Y-42116321D01*
X34604508Y-42107642D01*
X34622807Y-42093638D01*
X34636060Y-42075751D01*
X34644975Y-42051652D01*
X34650257Y-42019012D01*
X34652616Y-41975502D01*
X34652920Y-41948171D01*
X34652920Y-42231155D01*
X34634961Y-42238229D01*
X34587493Y-42244911D01*
X34539399Y-42240395D01*
X34493297Y-42224220D01*
X34463539Y-42205657D01*
X34447822Y-42194367D01*
X34437326Y-42188105D01*
X34435827Y-42187657D01*
X34434796Y-42194618D01*
X34433861Y-42214320D01*
X34433053Y-42244987D01*
X34432406Y-42284847D01*
X34431955Y-42332124D01*
X34431732Y-42385046D01*
X34431714Y-42405323D01*
X34431714Y-42622989D01*
X34464537Y-42597935D01*
X34488291Y-42582534D01*
X34512742Y-42570841D01*
X34524408Y-42567226D01*
X34560824Y-42562801D01*
X34600056Y-42563103D01*
X34636036Y-42567812D01*
X34657698Y-42574239D01*
X34692382Y-42594775D01*
X34725540Y-42624679D01*
X34752249Y-42659205D01*
X34759676Y-42672532D01*
X34764402Y-42682619D01*
X34768168Y-42692735D01*
X34771105Y-42704632D01*
X34773342Y-42720062D01*
X34775011Y-42740777D01*
X34776241Y-42768529D01*
X34777162Y-42805071D01*
X34777906Y-42852154D01*
X34778602Y-42911531D01*
X34778796Y-42929700D01*
X34781164Y-43152857D01*
X34781164Y-43152857D01*
G36*
X35324343Y-43152857D02*
X35262657Y-43152857D01*
X35200971Y-43152857D01*
X35200971Y-43130716D01*
X35200971Y-43108575D01*
X35200971Y-42939004D01*
X35200971Y-42906114D01*
X35119844Y-42906114D01*
X35072349Y-42907138D01*
X35036992Y-42910615D01*
X35011512Y-42917153D01*
X34993651Y-42927359D01*
X34981148Y-42941840D01*
X34980015Y-42943700D01*
X34972320Y-42969432D01*
X34977404Y-42994950D01*
X34993985Y-43016425D01*
X35007156Y-43024937D01*
X35028246Y-43031146D01*
X35058528Y-43035105D01*
X35092830Y-43036658D01*
X35125983Y-43035652D01*
X35152815Y-43031932D01*
X35160936Y-43029532D01*
X35179243Y-43015293D01*
X35192736Y-42990038D01*
X35200053Y-42956847D01*
X35200971Y-42939004D01*
X35200971Y-43108575D01*
X35174511Y-43128758D01*
X35161199Y-43138067D01*
X35148206Y-43144096D01*
X35131804Y-43147663D01*
X35108265Y-43149587D01*
X35074725Y-43150665D01*
X35041533Y-43150829D01*
X35012093Y-43149864D01*
X34990550Y-43147959D01*
X34983210Y-43146466D01*
X34937773Y-43125017D01*
X34901425Y-43094544D01*
X34874805Y-43057244D01*
X34858551Y-43015310D01*
X34853302Y-42970939D01*
X34859696Y-42926325D01*
X34878372Y-42883663D01*
X34898834Y-42856422D01*
X34916134Y-42839521D01*
X34934663Y-42826936D01*
X34956941Y-42817987D01*
X34985485Y-42811997D01*
X35022815Y-42808285D01*
X35071449Y-42806173D01*
X35086671Y-42805793D01*
X35200971Y-42803239D01*
X35200971Y-42764367D01*
X35197166Y-42730273D01*
X35184593Y-42706272D01*
X35161512Y-42690365D01*
X35128400Y-42680953D01*
X35079626Y-42676823D01*
X35036529Y-42682984D01*
X35001661Y-42699042D01*
X34999161Y-42700849D01*
X34975151Y-42718814D01*
X34948361Y-42700075D01*
X34925669Y-42683631D01*
X34903633Y-42666804D01*
X34899800Y-42663745D01*
X34878028Y-42646153D01*
X34908399Y-42617217D01*
X34938021Y-42593738D01*
X34971369Y-42577459D01*
X35011322Y-42567525D01*
X35060756Y-42563081D01*
X35092114Y-42562662D01*
X35132755Y-42563683D01*
X35163562Y-42566606D01*
X35189159Y-42572074D01*
X35209807Y-42579023D01*
X35251800Y-42601785D01*
X35285586Y-42633616D01*
X35308803Y-42671914D01*
X35316580Y-42696462D01*
X35318772Y-42714170D01*
X35320685Y-42744457D01*
X35322259Y-42785387D01*
X35323433Y-42835025D01*
X35324145Y-42891438D01*
X35324343Y-42942757D01*
X35324343Y-43152857D01*
X35324343Y-43152857D01*
X35324343Y-43152857D01*
G37*
X35324343Y-43152857D02*
X35262657Y-43152857D01*
X35200971Y-43152857D01*
X35200971Y-43130716D01*
X35200971Y-43108575D01*
X35200971Y-42939004D01*
X35200971Y-42906114D01*
X35119844Y-42906114D01*
X35072349Y-42907138D01*
X35036992Y-42910615D01*
X35011512Y-42917153D01*
X34993651Y-42927359D01*
X34981148Y-42941840D01*
X34980015Y-42943700D01*
X34972320Y-42969432D01*
X34977404Y-42994950D01*
X34993985Y-43016425D01*
X35007156Y-43024937D01*
X35028246Y-43031146D01*
X35058528Y-43035105D01*
X35092830Y-43036658D01*
X35125983Y-43035652D01*
X35152815Y-43031932D01*
X35160936Y-43029532D01*
X35179243Y-43015293D01*
X35192736Y-42990038D01*
X35200053Y-42956847D01*
X35200971Y-42939004D01*
X35200971Y-43108575D01*
X35174511Y-43128758D01*
X35161199Y-43138067D01*
X35148206Y-43144096D01*
X35131804Y-43147663D01*
X35108265Y-43149587D01*
X35074725Y-43150665D01*
X35041533Y-43150829D01*
X35012093Y-43149864D01*
X34990550Y-43147959D01*
X34983210Y-43146466D01*
X34937773Y-43125017D01*
X34901425Y-43094544D01*
X34874805Y-43057244D01*
X34858551Y-43015310D01*
X34853302Y-42970939D01*
X34859696Y-42926325D01*
X34878372Y-42883663D01*
X34898834Y-42856422D01*
X34916134Y-42839521D01*
X34934663Y-42826936D01*
X34956941Y-42817987D01*
X34985485Y-42811997D01*
X35022815Y-42808285D01*
X35071449Y-42806173D01*
X35086671Y-42805793D01*
X35200971Y-42803239D01*
X35200971Y-42764367D01*
X35197166Y-42730273D01*
X35184593Y-42706272D01*
X35161512Y-42690365D01*
X35128400Y-42680953D01*
X35079626Y-42676823D01*
X35036529Y-42682984D01*
X35001661Y-42699042D01*
X34999161Y-42700849D01*
X34975151Y-42718814D01*
X34948361Y-42700075D01*
X34925669Y-42683631D01*
X34903633Y-42666804D01*
X34899800Y-42663745D01*
X34878028Y-42646153D01*
X34908399Y-42617217D01*
X34938021Y-42593738D01*
X34971369Y-42577459D01*
X35011322Y-42567525D01*
X35060756Y-42563081D01*
X35092114Y-42562662D01*
X35132755Y-42563683D01*
X35163562Y-42566606D01*
X35189159Y-42572074D01*
X35209807Y-42579023D01*
X35251800Y-42601785D01*
X35285586Y-42633616D01*
X35308803Y-42671914D01*
X35316580Y-42696462D01*
X35318772Y-42714170D01*
X35320685Y-42744457D01*
X35322259Y-42785387D01*
X35323433Y-42835025D01*
X35324145Y-42891438D01*
X35324343Y-42942757D01*
X35324343Y-43152857D01*
X35324343Y-43152857D01*
G36*
X35839600Y-42605587D02*
X35835305Y-42612737D01*
X35824117Y-42627620D01*
X35808584Y-42647147D01*
X35791253Y-42668230D01*
X35774671Y-42687779D01*
X35761384Y-42702707D01*
X35753940Y-42709924D01*
X35753358Y-42710171D01*
X35745316Y-42707276D01*
X35728855Y-42699921D01*
X35718534Y-42695016D01*
X35681406Y-42684227D01*
X35645496Y-42687137D01*
X35613105Y-42702974D01*
X35586529Y-42730964D01*
X35580012Y-42741655D01*
X35576147Y-42750355D01*
X35573086Y-42761900D01*
X35570707Y-42778075D01*
X35568886Y-42800662D01*
X35567502Y-42831446D01*
X35566433Y-42872210D01*
X35565555Y-42924738D01*
X35565116Y-42958728D01*
X35562775Y-43152857D01*
X35506454Y-43152857D01*
X35479127Y-43152273D01*
X35457713Y-43150726D01*
X35446111Y-43148525D01*
X35445295Y-43148019D01*
X35444236Y-43139933D01*
X35443257Y-43118908D01*
X35442384Y-43086516D01*
X35441642Y-43044332D01*
X35441059Y-42993929D01*
X35440659Y-42936882D01*
X35440469Y-42874765D01*
X35440457Y-42854104D01*
X35440457Y-42565028D01*
X35502143Y-42565028D01*
X35563828Y-42565028D01*
X35563828Y-42594009D01*
X35563828Y-42622989D01*
X35596651Y-42597935D01*
X35639006Y-42574350D01*
X35686866Y-42562509D01*
X35736867Y-42562673D01*
X35785641Y-42575097D01*
X35801500Y-42582237D01*
X35821849Y-42593184D01*
X35835673Y-42601820D01*
X35839600Y-42605587D01*
X35839600Y-42605587D01*
X35839600Y-42605587D01*
G37*
X35839600Y-42605587D02*
X35835305Y-42612737D01*
X35824117Y-42627620D01*
X35808584Y-42647147D01*
X35791253Y-42668230D01*
X35774671Y-42687779D01*
X35761384Y-42702707D01*
X35753940Y-42709924D01*
X35753358Y-42710171D01*
X35745316Y-42707276D01*
X35728855Y-42699921D01*
X35718534Y-42695016D01*
X35681406Y-42684227D01*
X35645496Y-42687137D01*
X35613105Y-42702974D01*
X35586529Y-42730964D01*
X35580012Y-42741655D01*
X35576147Y-42750355D01*
X35573086Y-42761900D01*
X35570707Y-42778075D01*
X35568886Y-42800662D01*
X35567502Y-42831446D01*
X35566433Y-42872210D01*
X35565555Y-42924738D01*
X35565116Y-42958728D01*
X35562775Y-43152857D01*
X35506454Y-43152857D01*
X35479127Y-43152273D01*
X35457713Y-43150726D01*
X35446111Y-43148525D01*
X35445295Y-43148019D01*
X35444236Y-43139933D01*
X35443257Y-43118908D01*
X35442384Y-43086516D01*
X35441642Y-43044332D01*
X35441059Y-42993929D01*
X35440659Y-42936882D01*
X35440469Y-42874765D01*
X35440457Y-42854104D01*
X35440457Y-42565028D01*
X35502143Y-42565028D01*
X35563828Y-42565028D01*
X35563828Y-42594009D01*
X35563828Y-42622989D01*
X35596651Y-42597935D01*
X35639006Y-42574350D01*
X35686866Y-42562509D01*
X35736867Y-42562673D01*
X35785641Y-42575097D01*
X35801500Y-42582237D01*
X35821849Y-42593184D01*
X35835673Y-42601820D01*
X35839600Y-42605587D01*
X35839600Y-42605587D01*
G36*
X36304057Y-43152857D02*
X36242371Y-43152857D01*
X36180686Y-43152857D01*
X36180686Y-43122563D01*
X36180686Y-43092270D01*
X36177589Y-43095177D01*
X36177589Y-42871812D01*
X36177097Y-42828721D01*
X36173191Y-42788055D01*
X36166258Y-42753686D01*
X36156682Y-42729482D01*
X36155822Y-42728114D01*
X36131939Y-42702662D01*
X36100464Y-42688700D01*
X36068200Y-42685289D01*
X36029436Y-42690460D01*
X35999517Y-42706492D01*
X35980515Y-42728210D01*
X35970396Y-42752078D01*
X35963029Y-42786455D01*
X35958810Y-42827528D01*
X35958134Y-42871483D01*
X35961297Y-42913755D01*
X35969922Y-42959146D01*
X35983371Y-42991924D01*
X36002992Y-43013568D01*
X36030137Y-43025559D01*
X36066153Y-43029376D01*
X36066746Y-43029378D01*
X36092479Y-43027208D01*
X36115614Y-43021633D01*
X36121911Y-43018971D01*
X36142118Y-43004509D01*
X36156735Y-42983583D01*
X36167095Y-42953505D01*
X36174283Y-42913461D01*
X36177589Y-42871812D01*
X36177589Y-43095177D01*
X36164357Y-43107598D01*
X36128744Y-43131811D01*
X36085179Y-43147182D01*
X36037560Y-43153244D01*
X35989788Y-43149533D01*
X35945762Y-43135584D01*
X35942613Y-43134059D01*
X35900308Y-43105494D01*
X35868560Y-43067814D01*
X35850886Y-43029715D01*
X35842953Y-42995271D01*
X35837629Y-42951540D01*
X35834831Y-42901698D01*
X35834476Y-42848922D01*
X35836483Y-42796387D01*
X35840770Y-42747269D01*
X35847255Y-42704745D01*
X35855856Y-42671991D01*
X35860398Y-42661278D01*
X35888947Y-42620551D01*
X35927122Y-42589979D01*
X35973355Y-42570482D01*
X36026078Y-42562979D01*
X36028286Y-42562942D01*
X36075627Y-42567655D01*
X36120130Y-42581878D01*
X36157130Y-42603992D01*
X36164267Y-42610191D01*
X36180686Y-42625615D01*
X36180686Y-42479208D01*
X36180686Y-42332800D01*
X36242371Y-42332800D01*
X36304057Y-42332800D01*
X36304057Y-42742828D01*
X36304057Y-43152857D01*
X36304057Y-43152857D01*
X36304057Y-43152857D01*
G37*
X36304057Y-43152857D02*
X36242371Y-43152857D01*
X36180686Y-43152857D01*
X36180686Y-43122563D01*
X36180686Y-43092270D01*
X36177589Y-43095177D01*
X36177589Y-42871812D01*
X36177097Y-42828721D01*
X36173191Y-42788055D01*
X36166258Y-42753686D01*
X36156682Y-42729482D01*
X36155822Y-42728114D01*
X36131939Y-42702662D01*
X36100464Y-42688700D01*
X36068200Y-42685289D01*
X36029436Y-42690460D01*
X35999517Y-42706492D01*
X35980515Y-42728210D01*
X35970396Y-42752078D01*
X35963029Y-42786455D01*
X35958810Y-42827528D01*
X35958134Y-42871483D01*
X35961297Y-42913755D01*
X35969922Y-42959146D01*
X35983371Y-42991924D01*
X36002992Y-43013568D01*
X36030137Y-43025559D01*
X36066153Y-43029376D01*
X36066746Y-43029378D01*
X36092479Y-43027208D01*
X36115614Y-43021633D01*
X36121911Y-43018971D01*
X36142118Y-43004509D01*
X36156735Y-42983583D01*
X36167095Y-42953505D01*
X36174283Y-42913461D01*
X36177589Y-42871812D01*
X36177589Y-43095177D01*
X36164357Y-43107598D01*
X36128744Y-43131811D01*
X36085179Y-43147182D01*
X36037560Y-43153244D01*
X35989788Y-43149533D01*
X35945762Y-43135584D01*
X35942613Y-43134059D01*
X35900308Y-43105494D01*
X35868560Y-43067814D01*
X35850886Y-43029715D01*
X35842953Y-42995271D01*
X35837629Y-42951540D01*
X35834831Y-42901698D01*
X35834476Y-42848922D01*
X35836483Y-42796387D01*
X35840770Y-42747269D01*
X35847255Y-42704745D01*
X35855856Y-42671991D01*
X35860398Y-42661278D01*
X35888947Y-42620551D01*
X35927122Y-42589979D01*
X35973355Y-42570482D01*
X36026078Y-42562979D01*
X36028286Y-42562942D01*
X36075627Y-42567655D01*
X36120130Y-42581878D01*
X36157130Y-42603992D01*
X36164267Y-42610191D01*
X36180686Y-42625615D01*
X36180686Y-42479208D01*
X36180686Y-42332800D01*
X36242371Y-42332800D01*
X36304057Y-42332800D01*
X36304057Y-42742828D01*
X36304057Y-43152857D01*
X36304057Y-43152857D01*
G36*
X37180091Y-42568657D02*
X37087509Y-42858943D01*
X36994927Y-43149228D01*
X36940828Y-43151329D01*
X36886729Y-43153430D01*
X36830327Y-42962643D01*
X36815367Y-42912400D01*
X36801570Y-42866746D01*
X36789510Y-42827527D01*
X36779760Y-42796589D01*
X36772896Y-42775777D01*
X36769491Y-42766936D01*
X36769405Y-42766822D01*
X36766268Y-42772162D01*
X36759644Y-42789740D01*
X36750093Y-42817852D01*
X36738175Y-42854798D01*
X36724449Y-42898876D01*
X36709474Y-42948384D01*
X36706828Y-42957270D01*
X36648771Y-43152753D01*
X36596585Y-43152805D01*
X36570594Y-43152127D01*
X36550888Y-43150294D01*
X36541393Y-43147687D01*
X36541166Y-43147414D01*
X36538330Y-43139526D01*
X36531592Y-43119298D01*
X36521437Y-43088225D01*
X36508348Y-43047802D01*
X36492809Y-42999525D01*
X36475303Y-42944889D01*
X36456313Y-42885390D01*
X36449049Y-42862571D01*
X36429606Y-42801493D01*
X36411463Y-42744579D01*
X36395107Y-42693351D01*
X36381025Y-42649329D01*
X36369704Y-42614033D01*
X36361629Y-42588984D01*
X36357289Y-42575703D01*
X36356735Y-42574100D01*
X36358765Y-42569577D01*
X36370205Y-42566740D01*
X36392894Y-42565322D01*
X36418849Y-42565028D01*
X36484394Y-42565028D01*
X36495147Y-42601710D01*
X36500248Y-42619624D01*
X36508406Y-42648883D01*
X36518884Y-42686821D01*
X36530948Y-42730774D01*
X36543863Y-42778076D01*
X36548202Y-42794024D01*
X36560614Y-42839050D01*
X36571950Y-42878966D01*
X36581616Y-42911778D01*
X36589019Y-42935494D01*
X36593566Y-42948120D01*
X36594551Y-42949657D01*
X36597747Y-42943036D01*
X36604740Y-42924349D01*
X36614922Y-42895360D01*
X36627687Y-42857832D01*
X36642425Y-42813530D01*
X36658531Y-42764217D01*
X36660168Y-42759157D01*
X36721738Y-42568657D01*
X36768014Y-42568657D01*
X36814290Y-42568657D01*
X36876438Y-42762691D01*
X36892615Y-42812379D01*
X36907563Y-42856738D01*
X36920687Y-42894122D01*
X36931390Y-42922884D01*
X36939076Y-42941377D01*
X36943149Y-42947957D01*
X36943452Y-42947748D01*
X36946597Y-42938544D01*
X36952926Y-42917286D01*
X36961885Y-42885943D01*
X36972915Y-42846483D01*
X36985460Y-42800877D01*
X36997279Y-42757343D01*
X37010682Y-42708171D01*
X37023080Y-42663617D01*
X37033918Y-42625606D01*
X37042639Y-42596063D01*
X37048687Y-42576912D01*
X37051368Y-42570172D01*
X37060514Y-42567792D01*
X37080452Y-42566422D01*
X37107484Y-42566263D01*
X37118294Y-42566543D01*
X37180091Y-42568657D01*
X37180091Y-42568657D01*
X37180091Y-42568657D01*
G37*
X37180091Y-42568657D02*
X37087509Y-42858943D01*
X36994927Y-43149228D01*
X36940828Y-43151329D01*
X36886729Y-43153430D01*
X36830327Y-42962643D01*
X36815367Y-42912400D01*
X36801570Y-42866746D01*
X36789510Y-42827527D01*
X36779760Y-42796589D01*
X36772896Y-42775777D01*
X36769491Y-42766936D01*
X36769405Y-42766822D01*
X36766268Y-42772162D01*
X36759644Y-42789740D01*
X36750093Y-42817852D01*
X36738175Y-42854798D01*
X36724449Y-42898876D01*
X36709474Y-42948384D01*
X36706828Y-42957270D01*
X36648771Y-43152753D01*
X36596585Y-43152805D01*
X36570594Y-43152127D01*
X36550888Y-43150294D01*
X36541393Y-43147687D01*
X36541166Y-43147414D01*
X36538330Y-43139526D01*
X36531592Y-43119298D01*
X36521437Y-43088225D01*
X36508348Y-43047802D01*
X36492809Y-42999525D01*
X36475303Y-42944889D01*
X36456313Y-42885390D01*
X36449049Y-42862571D01*
X36429606Y-42801493D01*
X36411463Y-42744579D01*
X36395107Y-42693351D01*
X36381025Y-42649329D01*
X36369704Y-42614033D01*
X36361629Y-42588984D01*
X36357289Y-42575703D01*
X36356735Y-42574100D01*
X36358765Y-42569577D01*
X36370205Y-42566740D01*
X36392894Y-42565322D01*
X36418849Y-42565028D01*
X36484394Y-42565028D01*
X36495147Y-42601710D01*
X36500248Y-42619624D01*
X36508406Y-42648883D01*
X36518884Y-42686821D01*
X36530948Y-42730774D01*
X36543863Y-42778076D01*
X36548202Y-42794024D01*
X36560614Y-42839050D01*
X36571950Y-42878966D01*
X36581616Y-42911778D01*
X36589019Y-42935494D01*
X36593566Y-42948120D01*
X36594551Y-42949657D01*
X36597747Y-42943036D01*
X36604740Y-42924349D01*
X36614922Y-42895360D01*
X36627687Y-42857832D01*
X36642425Y-42813530D01*
X36658531Y-42764217D01*
X36660168Y-42759157D01*
X36721738Y-42568657D01*
X36768014Y-42568657D01*
X36814290Y-42568657D01*
X36876438Y-42762691D01*
X36892615Y-42812379D01*
X36907563Y-42856738D01*
X36920687Y-42894122D01*
X36931390Y-42922884D01*
X36939076Y-42941377D01*
X36943149Y-42947957D01*
X36943452Y-42947748D01*
X36946597Y-42938544D01*
X36952926Y-42917286D01*
X36961885Y-42885943D01*
X36972915Y-42846483D01*
X36985460Y-42800877D01*
X36997279Y-42757343D01*
X37010682Y-42708171D01*
X37023080Y-42663617D01*
X37033918Y-42625606D01*
X37042639Y-42596063D01*
X37048687Y-42576912D01*
X37051368Y-42570172D01*
X37060514Y-42567792D01*
X37080452Y-42566422D01*
X37107484Y-42566263D01*
X37118294Y-42566543D01*
X37180091Y-42568657D01*
X37180091Y-42568657D01*
G36*
X37655130Y-43152857D02*
X37592822Y-43152857D01*
X37530514Y-43152857D01*
X37530514Y-42906114D01*
X37445243Y-42906125D01*
X37404327Y-42906661D01*
X37374795Y-42908492D01*
X37353549Y-42911975D01*
X37337489Y-42917466D01*
X37334649Y-42918825D01*
X37311567Y-42937010D01*
X37300128Y-42960353D01*
X37300509Y-42985398D01*
X37312887Y-43008688D01*
X37329323Y-43022426D01*
X37351733Y-43030692D01*
X37383300Y-43035712D01*
X37419009Y-43037383D01*
X37453846Y-43035600D01*
X37482798Y-43030260D01*
X37494251Y-43025845D01*
X37513194Y-43008090D01*
X37525442Y-42978692D01*
X37530396Y-42939180D01*
X37530474Y-42933328D01*
X37530514Y-42906114D01*
X37530514Y-43152857D01*
X37530293Y-43125643D01*
X37529557Y-43109136D01*
X37527060Y-43105390D01*
X37522290Y-43111817D01*
X37511082Y-43122972D01*
X37492232Y-43135003D01*
X37484411Y-43138872D01*
X37455897Y-43147157D01*
X37418413Y-43151688D01*
X37377024Y-43152412D01*
X37336794Y-43149274D01*
X37302788Y-43142222D01*
X37298588Y-43140841D01*
X37253978Y-43118223D01*
X37219318Y-43086037D01*
X37195459Y-43046022D01*
X37183253Y-42999918D01*
X37183550Y-42949466D01*
X37189865Y-42918616D01*
X37205324Y-42885724D01*
X37231334Y-42854340D01*
X37264191Y-42828711D01*
X37272198Y-42824146D01*
X37285209Y-42818019D01*
X37299420Y-42813571D01*
X37317553Y-42810455D01*
X37342330Y-42808327D01*
X37376471Y-42806842D01*
X37417039Y-42805778D01*
X37532164Y-42803209D01*
X37529041Y-42760037D01*
X37524030Y-42727137D01*
X37512895Y-42705104D01*
X37492957Y-42690957D01*
X37461532Y-42681717D01*
X37457887Y-42680993D01*
X37412967Y-42676466D01*
X37372377Y-42680310D01*
X37339484Y-42692033D01*
X37327779Y-42700008D01*
X37313051Y-42711384D01*
X37303130Y-42717223D01*
X37302130Y-42717428D01*
X37293612Y-42713202D01*
X37277914Y-42702355D01*
X37258496Y-42687633D01*
X37238819Y-42671782D01*
X37222342Y-42657548D01*
X37212528Y-42647677D01*
X37211200Y-42645277D01*
X37217131Y-42634312D01*
X37232607Y-42619482D01*
X37254152Y-42603336D01*
X37278288Y-42588422D01*
X37301540Y-42577286D01*
X37306369Y-42575537D01*
X37343223Y-42567213D01*
X37388663Y-42562865D01*
X37437307Y-42562524D01*
X37483773Y-42566222D01*
X37522678Y-42573994D01*
X37523452Y-42574224D01*
X37565231Y-42592664D01*
X37601472Y-42619939D01*
X37628510Y-42652999D01*
X37636414Y-42668277D01*
X37640206Y-42678517D01*
X37643263Y-42690764D01*
X37645693Y-42706719D01*
X37647599Y-42728082D01*
X37649087Y-42756555D01*
X37650264Y-42793839D01*
X37651233Y-42841635D01*
X37652102Y-42901643D01*
X37652405Y-42926071D01*
X37655130Y-43152857D01*
X37655130Y-43152857D01*
X37655130Y-43152857D01*
G37*
X37655130Y-43152857D02*
X37592822Y-43152857D01*
X37530514Y-43152857D01*
X37530514Y-42906114D01*
X37445243Y-42906125D01*
X37404327Y-42906661D01*
X37374795Y-42908492D01*
X37353549Y-42911975D01*
X37337489Y-42917466D01*
X37334649Y-42918825D01*
X37311567Y-42937010D01*
X37300128Y-42960353D01*
X37300509Y-42985398D01*
X37312887Y-43008688D01*
X37329323Y-43022426D01*
X37351733Y-43030692D01*
X37383300Y-43035712D01*
X37419009Y-43037383D01*
X37453846Y-43035600D01*
X37482798Y-43030260D01*
X37494251Y-43025845D01*
X37513194Y-43008090D01*
X37525442Y-42978692D01*
X37530396Y-42939180D01*
X37530474Y-42933328D01*
X37530514Y-42906114D01*
X37530514Y-43152857D01*
X37530293Y-43125643D01*
X37529557Y-43109136D01*
X37527060Y-43105390D01*
X37522290Y-43111817D01*
X37511082Y-43122972D01*
X37492232Y-43135003D01*
X37484411Y-43138872D01*
X37455897Y-43147157D01*
X37418413Y-43151688D01*
X37377024Y-43152412D01*
X37336794Y-43149274D01*
X37302788Y-43142222D01*
X37298588Y-43140841D01*
X37253978Y-43118223D01*
X37219318Y-43086037D01*
X37195459Y-43046022D01*
X37183253Y-42999918D01*
X37183550Y-42949466D01*
X37189865Y-42918616D01*
X37205324Y-42885724D01*
X37231334Y-42854340D01*
X37264191Y-42828711D01*
X37272198Y-42824146D01*
X37285209Y-42818019D01*
X37299420Y-42813571D01*
X37317553Y-42810455D01*
X37342330Y-42808327D01*
X37376471Y-42806842D01*
X37417039Y-42805778D01*
X37532164Y-42803209D01*
X37529041Y-42760037D01*
X37524030Y-42727137D01*
X37512895Y-42705104D01*
X37492957Y-42690957D01*
X37461532Y-42681717D01*
X37457887Y-42680993D01*
X37412967Y-42676466D01*
X37372377Y-42680310D01*
X37339484Y-42692033D01*
X37327779Y-42700008D01*
X37313051Y-42711384D01*
X37303130Y-42717223D01*
X37302130Y-42717428D01*
X37293612Y-42713202D01*
X37277914Y-42702355D01*
X37258496Y-42687633D01*
X37238819Y-42671782D01*
X37222342Y-42657548D01*
X37212528Y-42647677D01*
X37211200Y-42645277D01*
X37217131Y-42634312D01*
X37232607Y-42619482D01*
X37254152Y-42603336D01*
X37278288Y-42588422D01*
X37301540Y-42577286D01*
X37306369Y-42575537D01*
X37343223Y-42567213D01*
X37388663Y-42562865D01*
X37437307Y-42562524D01*
X37483773Y-42566222D01*
X37522678Y-42573994D01*
X37523452Y-42574224D01*
X37565231Y-42592664D01*
X37601472Y-42619939D01*
X37628510Y-42652999D01*
X37636414Y-42668277D01*
X37640206Y-42678517D01*
X37643263Y-42690764D01*
X37645693Y-42706719D01*
X37647599Y-42728082D01*
X37649087Y-42756555D01*
X37650264Y-42793839D01*
X37651233Y-42841635D01*
X37652102Y-42901643D01*
X37652405Y-42926071D01*
X37655130Y-43152857D01*
X37655130Y-43152857D01*
G36*
X38170509Y-42606135D02*
X38128560Y-42656339D01*
X38109747Y-42678884D01*
X38094739Y-42696925D01*
X38085771Y-42707774D01*
X38084283Y-42709618D01*
X38077091Y-42708423D01*
X38061198Y-42702022D01*
X38048683Y-42696076D01*
X38011174Y-42684008D01*
X37975888Y-42686249D01*
X37943071Y-42702730D01*
X37912973Y-42733379D01*
X37911962Y-42734720D01*
X37907510Y-42741399D01*
X37904006Y-42749304D01*
X37901313Y-42760203D01*
X37899290Y-42775863D01*
X37897800Y-42798051D01*
X37896703Y-42828536D01*
X37895861Y-42869085D01*
X37895135Y-42921465D01*
X37894759Y-42953801D01*
X37892518Y-43152857D01*
X37831259Y-43152857D01*
X37770000Y-43152857D01*
X37770000Y-42858943D01*
X37770000Y-42565028D01*
X37831686Y-42565028D01*
X37893371Y-42565028D01*
X37893371Y-42595415D01*
X37893371Y-42625801D01*
X37913328Y-42607187D01*
X37936473Y-42588379D01*
X37960667Y-42575949D01*
X37991730Y-42567165D01*
X38003801Y-42564730D01*
X38054460Y-42562033D01*
X38104745Y-42572029D01*
X38142738Y-42589374D01*
X38170509Y-42606135D01*
X38170509Y-42606135D01*
X38170509Y-42606135D01*
G37*
X38170509Y-42606135D02*
X38128560Y-42656339D01*
X38109747Y-42678884D01*
X38094739Y-42696925D01*
X38085771Y-42707774D01*
X38084283Y-42709618D01*
X38077091Y-42708423D01*
X38061198Y-42702022D01*
X38048683Y-42696076D01*
X38011174Y-42684008D01*
X37975888Y-42686249D01*
X37943071Y-42702730D01*
X37912973Y-42733379D01*
X37911962Y-42734720D01*
X37907510Y-42741399D01*
X37904006Y-42749304D01*
X37901313Y-42760203D01*
X37899290Y-42775863D01*
X37897800Y-42798051D01*
X37896703Y-42828536D01*
X37895861Y-42869085D01*
X37895135Y-42921465D01*
X37894759Y-42953801D01*
X37892518Y-43152857D01*
X37831259Y-43152857D01*
X37770000Y-43152857D01*
X37770000Y-42858943D01*
X37770000Y-42565028D01*
X37831686Y-42565028D01*
X37893371Y-42565028D01*
X37893371Y-42595415D01*
X37893371Y-42625801D01*
X37913328Y-42607187D01*
X37936473Y-42588379D01*
X37960667Y-42575949D01*
X37991730Y-42567165D01*
X38003801Y-42564730D01*
X38054460Y-42562033D01*
X38104745Y-42572029D01*
X38142738Y-42589374D01*
X38170509Y-42606135D01*
X38170509Y-42606135D01*
G36*
X38640857Y-42906114D02*
X38517486Y-42906114D01*
X38517486Y-42804514D01*
X38517486Y-42787909D01*
X38511299Y-42758584D01*
X38494893Y-42728647D01*
X38471493Y-42702943D01*
X38452171Y-42689803D01*
X38414702Y-42677778D01*
X38378130Y-42678970D01*
X38344752Y-42692151D01*
X38316865Y-42716093D01*
X38296765Y-42749565D01*
X38288687Y-42777300D01*
X38283642Y-42804514D01*
X38400564Y-42804514D01*
X38517486Y-42804514D01*
X38517486Y-42906114D01*
X38462249Y-42906114D01*
X38283642Y-42906114D01*
X38288687Y-42933328D01*
X38302734Y-42974362D01*
X38327255Y-43005747D01*
X38361165Y-43026613D01*
X38403380Y-43036090D01*
X38417411Y-43036583D01*
X38451606Y-43032775D01*
X38484779Y-43022852D01*
X38511862Y-43008653D01*
X38523817Y-42997978D01*
X38531806Y-42989865D01*
X38540103Y-42986920D01*
X38550931Y-42990146D01*
X38566513Y-43000547D01*
X38589074Y-43019125D01*
X38608855Y-43036344D01*
X38635305Y-43059568D01*
X38614565Y-43081217D01*
X38597176Y-43095658D01*
X38572111Y-43112134D01*
X38546784Y-43126047D01*
X38523115Y-43137020D01*
X38502858Y-43144003D01*
X38481183Y-43147994D01*
X38453259Y-43149986D01*
X38426972Y-43150733D01*
X38393895Y-43150808D01*
X38364572Y-43149776D01*
X38343173Y-43147839D01*
X38336057Y-43146385D01*
X38282619Y-43121700D01*
X38236815Y-43085175D01*
X38202607Y-43041678D01*
X38183256Y-42999260D01*
X38170542Y-42947324D01*
X38164523Y-42889289D01*
X38165256Y-42828574D01*
X38172799Y-42768600D01*
X38187211Y-42712784D01*
X38196618Y-42688400D01*
X38223288Y-42644399D01*
X38259706Y-42609124D01*
X38303614Y-42583149D01*
X38352753Y-42567045D01*
X38404864Y-42561384D01*
X38457689Y-42566738D01*
X38508969Y-42583680D01*
X38540552Y-42601276D01*
X38580230Y-42634739D01*
X38609602Y-42676205D01*
X38629102Y-42726668D01*
X38639166Y-42787118D01*
X38640857Y-42829992D01*
X38640857Y-42906114D01*
X38640857Y-42906114D01*
X38640857Y-42906114D01*
G37*
X38640857Y-42906114D02*
X38517486Y-42906114D01*
X38517486Y-42804514D01*
X38517486Y-42787909D01*
X38511299Y-42758584D01*
X38494893Y-42728647D01*
X38471493Y-42702943D01*
X38452171Y-42689803D01*
X38414702Y-42677778D01*
X38378130Y-42678970D01*
X38344752Y-42692151D01*
X38316865Y-42716093D01*
X38296765Y-42749565D01*
X38288687Y-42777300D01*
X38283642Y-42804514D01*
X38400564Y-42804514D01*
X38517486Y-42804514D01*
X38517486Y-42906114D01*
X38462249Y-42906114D01*
X38283642Y-42906114D01*
X38288687Y-42933328D01*
X38302734Y-42974362D01*
X38327255Y-43005747D01*
X38361165Y-43026613D01*
X38403380Y-43036090D01*
X38417411Y-43036583D01*
X38451606Y-43032775D01*
X38484779Y-43022852D01*
X38511862Y-43008653D01*
X38523817Y-42997978D01*
X38531806Y-42989865D01*
X38540103Y-42986920D01*
X38550931Y-42990146D01*
X38566513Y-43000547D01*
X38589074Y-43019125D01*
X38608855Y-43036344D01*
X38635305Y-43059568D01*
X38614565Y-43081217D01*
X38597176Y-43095658D01*
X38572111Y-43112134D01*
X38546784Y-43126047D01*
X38523115Y-43137020D01*
X38502858Y-43144003D01*
X38481183Y-43147994D01*
X38453259Y-43149986D01*
X38426972Y-43150733D01*
X38393895Y-43150808D01*
X38364572Y-43149776D01*
X38343173Y-43147839D01*
X38336057Y-43146385D01*
X38282619Y-43121700D01*
X38236815Y-43085175D01*
X38202607Y-43041678D01*
X38183256Y-42999260D01*
X38170542Y-42947324D01*
X38164523Y-42889289D01*
X38165256Y-42828574D01*
X38172799Y-42768600D01*
X38187211Y-42712784D01*
X38196618Y-42688400D01*
X38223288Y-42644399D01*
X38259706Y-42609124D01*
X38303614Y-42583149D01*
X38352753Y-42567045D01*
X38404864Y-42561384D01*
X38457689Y-42566738D01*
X38508969Y-42583680D01*
X38540552Y-42601276D01*
X38580230Y-42634739D01*
X38609602Y-42676205D01*
X38629102Y-42726668D01*
X38639166Y-42787118D01*
X38640857Y-42829992D01*
X38640857Y-42906114D01*
X38640857Y-42906114D01*
G36*
X34217256Y-41931287D02*
X34217030Y-41977361D01*
X34215125Y-42020717D01*
X34211542Y-42057071D01*
X34207861Y-42076748D01*
X34187765Y-42127840D01*
X34156759Y-42170959D01*
X34116637Y-42205150D01*
X34094257Y-42216616D01*
X34094257Y-41948171D01*
X34093831Y-41906927D01*
X34092339Y-41877270D01*
X34089459Y-41856295D01*
X34084869Y-41841093D01*
X34081666Y-41834443D01*
X34057240Y-41803685D01*
X34025055Y-41783893D01*
X33987710Y-41775862D01*
X33947802Y-41780389D01*
X33928148Y-41787410D01*
X33904288Y-41801081D01*
X33886903Y-41819316D01*
X33875144Y-41844282D01*
X33868162Y-41878145D01*
X33865107Y-41923071D01*
X33864786Y-41949082D01*
X33865184Y-41986507D01*
X33866753Y-42013256D01*
X33870059Y-42033156D01*
X33875666Y-42050032D01*
X33881550Y-42062668D01*
X33903497Y-42094350D01*
X33931774Y-42113453D01*
X33967808Y-42120754D01*
X33987515Y-42120353D01*
X34019176Y-42114769D01*
X34043520Y-42104260D01*
X34045572Y-42102819D01*
X34064538Y-42086499D01*
X34077984Y-42068502D01*
X34086788Y-42046039D01*
X34091828Y-42016318D01*
X34093983Y-41976550D01*
X34094257Y-41948171D01*
X34094257Y-42216616D01*
X34069191Y-42229460D01*
X34016217Y-42242933D01*
X33959509Y-42244616D01*
X33908841Y-42235830D01*
X33857431Y-42214657D01*
X33812989Y-42181395D01*
X33777141Y-42137448D01*
X33761195Y-42108197D01*
X33755577Y-42094729D01*
X33751519Y-42080607D01*
X33748773Y-42063237D01*
X33747091Y-42040022D01*
X33746226Y-42008369D01*
X33745929Y-41965682D01*
X33745914Y-41948171D01*
X33746069Y-41901208D01*
X33746702Y-41866153D01*
X33748065Y-41840401D01*
X33750409Y-41821348D01*
X33753986Y-41806390D01*
X33759047Y-41792922D01*
X33761425Y-41787626D01*
X33791848Y-41738067D01*
X33831928Y-41698981D01*
X33880544Y-41671120D01*
X33936576Y-41655235D01*
X33963253Y-41652237D01*
X34022638Y-41654781D01*
X34076783Y-41669611D01*
X34124164Y-41695684D01*
X34163256Y-41731957D01*
X34192535Y-41777387D01*
X34207861Y-41819594D01*
X34212671Y-41848120D01*
X34215803Y-41886779D01*
X34217256Y-41931287D01*
X34217256Y-41931287D01*
X34217256Y-41931287D01*
G37*
X34217256Y-41931287D02*
X34217030Y-41977361D01*
X34215125Y-42020717D01*
X34211542Y-42057071D01*
X34207861Y-42076748D01*
X34187765Y-42127840D01*
X34156759Y-42170959D01*
X34116637Y-42205150D01*
X34094257Y-42216616D01*
X34094257Y-41948171D01*
X34093831Y-41906927D01*
X34092339Y-41877270D01*
X34089459Y-41856295D01*
X34084869Y-41841093D01*
X34081666Y-41834443D01*
X34057240Y-41803685D01*
X34025055Y-41783893D01*
X33987710Y-41775862D01*
X33947802Y-41780389D01*
X33928148Y-41787410D01*
X33904288Y-41801081D01*
X33886903Y-41819316D01*
X33875144Y-41844282D01*
X33868162Y-41878145D01*
X33865107Y-41923071D01*
X33864786Y-41949082D01*
X33865184Y-41986507D01*
X33866753Y-42013256D01*
X33870059Y-42033156D01*
X33875666Y-42050032D01*
X33881550Y-42062668D01*
X33903497Y-42094350D01*
X33931774Y-42113453D01*
X33967808Y-42120754D01*
X33987515Y-42120353D01*
X34019176Y-42114769D01*
X34043520Y-42104260D01*
X34045572Y-42102819D01*
X34064538Y-42086499D01*
X34077984Y-42068502D01*
X34086788Y-42046039D01*
X34091828Y-42016318D01*
X34093983Y-41976550D01*
X34094257Y-41948171D01*
X34094257Y-42216616D01*
X34069191Y-42229460D01*
X34016217Y-42242933D01*
X33959509Y-42244616D01*
X33908841Y-42235830D01*
X33857431Y-42214657D01*
X33812989Y-42181395D01*
X33777141Y-42137448D01*
X33761195Y-42108197D01*
X33755577Y-42094729D01*
X33751519Y-42080607D01*
X33748773Y-42063237D01*
X33747091Y-42040022D01*
X33746226Y-42008369D01*
X33745929Y-41965682D01*
X33745914Y-41948171D01*
X33746069Y-41901208D01*
X33746702Y-41866153D01*
X33748065Y-41840401D01*
X33750409Y-41821348D01*
X33753986Y-41806390D01*
X33759047Y-41792922D01*
X33761425Y-41787626D01*
X33791848Y-41738067D01*
X33831928Y-41698981D01*
X33880544Y-41671120D01*
X33936576Y-41655235D01*
X33963253Y-41652237D01*
X34022638Y-41654781D01*
X34076783Y-41669611D01*
X34124164Y-41695684D01*
X34163256Y-41731957D01*
X34192535Y-41777387D01*
X34207861Y-41819594D01*
X34212671Y-41848120D01*
X34215803Y-41886779D01*
X34217256Y-41931287D01*
X34217256Y-41931287D01*
G36*
X35333389Y-41998971D02*
X35208228Y-41998971D01*
X35208228Y-41877137D01*
X35203698Y-41857730D01*
X35192137Y-41833143D01*
X35176595Y-41808642D01*
X35160118Y-41789494D01*
X35155082Y-41785310D01*
X35129904Y-41774189D01*
X35097917Y-41769715D01*
X35065011Y-41771888D01*
X35037072Y-41780706D01*
X35029595Y-41785334D01*
X34998802Y-41815370D01*
X34981491Y-41849758D01*
X34978489Y-41863070D01*
X34974101Y-41890114D01*
X35091165Y-41890114D01*
X35134930Y-41889998D01*
X35166241Y-41889499D01*
X35187156Y-41888389D01*
X35199734Y-41886439D01*
X35206034Y-41883420D01*
X35208115Y-41879106D01*
X35208228Y-41877137D01*
X35208228Y-41998971D01*
X35154694Y-41998971D01*
X34976000Y-41998971D01*
X34976000Y-42015576D01*
X34979239Y-42031835D01*
X34987437Y-42053873D01*
X34992328Y-42064244D01*
X35015905Y-42096003D01*
X35047526Y-42117293D01*
X35084912Y-42127847D01*
X35125783Y-42127396D01*
X35167860Y-42115675D01*
X35208863Y-42092414D01*
X35212056Y-42090025D01*
X35234808Y-42072671D01*
X35277761Y-42111299D01*
X35320714Y-42149927D01*
X35299012Y-42172825D01*
X35280807Y-42188207D01*
X35255266Y-42205204D01*
X35232079Y-42217990D01*
X35205668Y-42229788D01*
X35181590Y-42236987D01*
X35153943Y-42240926D01*
X35123152Y-42242716D01*
X35090318Y-42243059D01*
X35059579Y-42241791D01*
X35036374Y-42239178D01*
X35032007Y-42238251D01*
X34990611Y-42223577D01*
X34952944Y-42200224D01*
X34931498Y-42182298D01*
X34898032Y-42143265D01*
X34873932Y-42094774D01*
X34858961Y-42036131D01*
X34852883Y-41966641D01*
X34852714Y-41950683D01*
X34857754Y-41875382D01*
X34872676Y-41810705D01*
X34897480Y-41756654D01*
X34932164Y-41713232D01*
X34976727Y-41680442D01*
X35009246Y-41665479D01*
X35064200Y-41652155D01*
X35119376Y-41652231D01*
X35172563Y-41664800D01*
X35221550Y-41688952D01*
X35264127Y-41723780D01*
X35298083Y-41768376D01*
X35308649Y-41788514D01*
X35317136Y-41808847D01*
X35322914Y-41829152D01*
X35326666Y-41853382D01*
X35329077Y-41885494D01*
X35330294Y-41913700D01*
X35333389Y-41998971D01*
X35333389Y-41998971D01*
X35333389Y-41998971D01*
G37*
X35333389Y-41998971D02*
X35208228Y-41998971D01*
X35208228Y-41877137D01*
X35203698Y-41857730D01*
X35192137Y-41833143D01*
X35176595Y-41808642D01*
X35160118Y-41789494D01*
X35155082Y-41785310D01*
X35129904Y-41774189D01*
X35097917Y-41769715D01*
X35065011Y-41771888D01*
X35037072Y-41780706D01*
X35029595Y-41785334D01*
X34998802Y-41815370D01*
X34981491Y-41849758D01*
X34978489Y-41863070D01*
X34974101Y-41890114D01*
X35091165Y-41890114D01*
X35134930Y-41889998D01*
X35166241Y-41889499D01*
X35187156Y-41888389D01*
X35199734Y-41886439D01*
X35206034Y-41883420D01*
X35208115Y-41879106D01*
X35208228Y-41877137D01*
X35208228Y-41998971D01*
X35154694Y-41998971D01*
X34976000Y-41998971D01*
X34976000Y-42015576D01*
X34979239Y-42031835D01*
X34987437Y-42053873D01*
X34992328Y-42064244D01*
X35015905Y-42096003D01*
X35047526Y-42117293D01*
X35084912Y-42127847D01*
X35125783Y-42127396D01*
X35167860Y-42115675D01*
X35208863Y-42092414D01*
X35212056Y-42090025D01*
X35234808Y-42072671D01*
X35277761Y-42111299D01*
X35320714Y-42149927D01*
X35299012Y-42172825D01*
X35280807Y-42188207D01*
X35255266Y-42205204D01*
X35232079Y-42217990D01*
X35205668Y-42229788D01*
X35181590Y-42236987D01*
X35153943Y-42240926D01*
X35123152Y-42242716D01*
X35090318Y-42243059D01*
X35059579Y-42241791D01*
X35036374Y-42239178D01*
X35032007Y-42238251D01*
X34990611Y-42223577D01*
X34952944Y-42200224D01*
X34931498Y-42182298D01*
X34898032Y-42143265D01*
X34873932Y-42094774D01*
X34858961Y-42036131D01*
X34852883Y-41966641D01*
X34852714Y-41950683D01*
X34857754Y-41875382D01*
X34872676Y-41810705D01*
X34897480Y-41756654D01*
X34932164Y-41713232D01*
X34976727Y-41680442D01*
X35009246Y-41665479D01*
X35064200Y-41652155D01*
X35119376Y-41652231D01*
X35172563Y-41664800D01*
X35221550Y-41688952D01*
X35264127Y-41723780D01*
X35298083Y-41768376D01*
X35308649Y-41788514D01*
X35317136Y-41808847D01*
X35322914Y-41829152D01*
X35326666Y-41853382D01*
X35329077Y-41885494D01*
X35330294Y-41913700D01*
X35333389Y-41998971D01*
X35333389Y-41998971D01*
G36*
X36694621Y-42054537D02*
X36690678Y-42103211D01*
X36673550Y-42146341D01*
X36643596Y-42183134D01*
X36601176Y-42212796D01*
X36586020Y-42220208D01*
X36558337Y-42231241D01*
X36531915Y-42237960D01*
X36500840Y-42241569D01*
X36474890Y-42242833D01*
X36440855Y-42243074D01*
X36408155Y-42241783D01*
X36382509Y-42239227D01*
X36377038Y-42238252D01*
X36346941Y-42229151D01*
X36310648Y-42214152D01*
X36273349Y-42195789D01*
X36240231Y-42176592D01*
X36218556Y-42160924D01*
X36194741Y-42140485D01*
X36237577Y-42098096D01*
X36280413Y-42055707D01*
X36317706Y-42082499D01*
X36368562Y-42111382D01*
X36422374Y-42126489D01*
X36463053Y-42129251D01*
X36502326Y-42124732D01*
X36534462Y-42112831D01*
X36557631Y-42094945D01*
X36570003Y-42072469D01*
X36569973Y-42047663D01*
X36564674Y-42034601D01*
X36554812Y-42024623D01*
X36538248Y-42016934D01*
X36512838Y-42010737D01*
X36476443Y-42005238D01*
X36446313Y-42001708D01*
X36384434Y-41992396D01*
X36335340Y-41978931D01*
X36297671Y-41960411D01*
X36270067Y-41935933D01*
X36251168Y-41904597D01*
X36239614Y-41865500D01*
X36239432Y-41864544D01*
X36235884Y-41812683D01*
X36245248Y-41766498D01*
X36266733Y-41726880D01*
X36299549Y-41694720D01*
X36342903Y-41670911D01*
X36396006Y-41656343D01*
X36427428Y-41652700D01*
X36462024Y-41651970D01*
X36498214Y-41653729D01*
X36525131Y-41657115D01*
X36557364Y-41665600D01*
X36593924Y-41678944D01*
X36629535Y-41694894D01*
X36658917Y-41711196D01*
X36669778Y-41718898D01*
X36675807Y-41724166D01*
X36678357Y-41729526D01*
X36676303Y-41737163D01*
X36668520Y-41749264D01*
X36653885Y-41768013D01*
X36631272Y-41795596D01*
X36628741Y-41798667D01*
X36611402Y-41819705D01*
X36564171Y-41796453D01*
X36527506Y-41781385D01*
X36490771Y-41771278D01*
X36475873Y-41768963D01*
X36436664Y-41768866D01*
X36403619Y-41776368D01*
X36378568Y-41790249D01*
X36363338Y-41809294D01*
X36359759Y-41832283D01*
X36362702Y-41844320D01*
X36369719Y-41856617D01*
X36381884Y-41866133D01*
X36401320Y-41873579D01*
X36430151Y-41879670D01*
X36470502Y-41885119D01*
X36490757Y-41887321D01*
X36527667Y-41891889D01*
X36561531Y-41897410D01*
X36588468Y-41903169D01*
X36604023Y-41908171D01*
X36642210Y-41933756D01*
X36670774Y-41968659D01*
X36685021Y-42001114D01*
X36694621Y-42054537D01*
X36694621Y-42054537D01*
X36694621Y-42054537D01*
G37*
X36694621Y-42054537D02*
X36690678Y-42103211D01*
X36673550Y-42146341D01*
X36643596Y-42183134D01*
X36601176Y-42212796D01*
X36586020Y-42220208D01*
X36558337Y-42231241D01*
X36531915Y-42237960D01*
X36500840Y-42241569D01*
X36474890Y-42242833D01*
X36440855Y-42243074D01*
X36408155Y-42241783D01*
X36382509Y-42239227D01*
X36377038Y-42238252D01*
X36346941Y-42229151D01*
X36310648Y-42214152D01*
X36273349Y-42195789D01*
X36240231Y-42176592D01*
X36218556Y-42160924D01*
X36194741Y-42140485D01*
X36237577Y-42098096D01*
X36280413Y-42055707D01*
X36317706Y-42082499D01*
X36368562Y-42111382D01*
X36422374Y-42126489D01*
X36463053Y-42129251D01*
X36502326Y-42124732D01*
X36534462Y-42112831D01*
X36557631Y-42094945D01*
X36570003Y-42072469D01*
X36569973Y-42047663D01*
X36564674Y-42034601D01*
X36554812Y-42024623D01*
X36538248Y-42016934D01*
X36512838Y-42010737D01*
X36476443Y-42005238D01*
X36446313Y-42001708D01*
X36384434Y-41992396D01*
X36335340Y-41978931D01*
X36297671Y-41960411D01*
X36270067Y-41935933D01*
X36251168Y-41904597D01*
X36239614Y-41865500D01*
X36239432Y-41864544D01*
X36235884Y-41812683D01*
X36245248Y-41766498D01*
X36266733Y-41726880D01*
X36299549Y-41694720D01*
X36342903Y-41670911D01*
X36396006Y-41656343D01*
X36427428Y-41652700D01*
X36462024Y-41651970D01*
X36498214Y-41653729D01*
X36525131Y-41657115D01*
X36557364Y-41665600D01*
X36593924Y-41678944D01*
X36629535Y-41694894D01*
X36658917Y-41711196D01*
X36669778Y-41718898D01*
X36675807Y-41724166D01*
X36678357Y-41729526D01*
X36676303Y-41737163D01*
X36668520Y-41749264D01*
X36653885Y-41768013D01*
X36631272Y-41795596D01*
X36628741Y-41798667D01*
X36611402Y-41819705D01*
X36564171Y-41796453D01*
X36527506Y-41781385D01*
X36490771Y-41771278D01*
X36475873Y-41768963D01*
X36436664Y-41768866D01*
X36403619Y-41776368D01*
X36378568Y-41790249D01*
X36363338Y-41809294D01*
X36359759Y-41832283D01*
X36362702Y-41844320D01*
X36369719Y-41856617D01*
X36381884Y-41866133D01*
X36401320Y-41873579D01*
X36430151Y-41879670D01*
X36470502Y-41885119D01*
X36490757Y-41887321D01*
X36527667Y-41891889D01*
X36561531Y-41897410D01*
X36588468Y-41903169D01*
X36604023Y-41908171D01*
X36642210Y-41933756D01*
X36670774Y-41968659D01*
X36685021Y-42001114D01*
X36694621Y-42054537D01*
X36694621Y-42054537D01*
G36*
X37229343Y-41948171D02*
X37229188Y-41995134D01*
X37228554Y-42030190D01*
X37227192Y-42055941D01*
X37224848Y-42074994D01*
X37221271Y-42089952D01*
X37216209Y-42103420D01*
X37213832Y-42108717D01*
X37183500Y-42158558D01*
X37144037Y-42197237D01*
X37109281Y-42216877D01*
X37109281Y-41948171D01*
X37108019Y-41897977D01*
X37103654Y-41859878D01*
X37095315Y-41831630D01*
X37082135Y-41810987D01*
X37063244Y-41795704D01*
X37047040Y-41787380D01*
X37006031Y-41775913D01*
X36967246Y-41777784D01*
X36932722Y-41792401D01*
X36904497Y-41819173D01*
X36896640Y-41831036D01*
X36886283Y-41858344D01*
X36879939Y-41895196D01*
X36877523Y-41937460D01*
X36878951Y-41981005D01*
X36884138Y-42021699D01*
X36893001Y-42055410D01*
X36901578Y-42072991D01*
X36928049Y-42100483D01*
X36961642Y-42116864D01*
X36999388Y-42121456D01*
X37038320Y-42113583D01*
X37052377Y-42107402D01*
X37074086Y-42093231D01*
X37089803Y-42074692D01*
X37100336Y-42049530D01*
X37106489Y-42015492D01*
X37109069Y-41970320D01*
X37109281Y-41948171D01*
X37109281Y-42216877D01*
X37096045Y-42224357D01*
X37040125Y-42239525D01*
X37010207Y-42242465D01*
X36979777Y-42243044D01*
X36952260Y-42242067D01*
X36933140Y-42239749D01*
X36931800Y-42239425D01*
X36883397Y-42220568D01*
X36839998Y-42191944D01*
X36804818Y-42156135D01*
X36782795Y-42119796D01*
X36769584Y-42078982D01*
X36760539Y-42028461D01*
X36755821Y-41972475D01*
X36755587Y-41915269D01*
X36759997Y-41861085D01*
X36769210Y-41814166D01*
X36771094Y-41807765D01*
X36794068Y-41756655D01*
X36827636Y-41714627D01*
X36870408Y-41682581D01*
X36920991Y-41661414D01*
X36977992Y-41652026D01*
X37012004Y-41652237D01*
X37070940Y-41662621D01*
X37122953Y-41685312D01*
X37166922Y-41719559D01*
X37201726Y-41764609D01*
X37213832Y-41787626D01*
X37219527Y-41801212D01*
X37223641Y-41815293D01*
X37226426Y-41832475D01*
X37228134Y-41855360D01*
X37229016Y-41886555D01*
X37229324Y-41928662D01*
X37229343Y-41948171D01*
X37229343Y-41948171D01*
X37229343Y-41948171D01*
G37*
X37229343Y-41948171D02*
X37229188Y-41995134D01*
X37228554Y-42030190D01*
X37227192Y-42055941D01*
X37224848Y-42074994D01*
X37221271Y-42089952D01*
X37216209Y-42103420D01*
X37213832Y-42108717D01*
X37183500Y-42158558D01*
X37144037Y-42197237D01*
X37109281Y-42216877D01*
X37109281Y-41948171D01*
X37108019Y-41897977D01*
X37103654Y-41859878D01*
X37095315Y-41831630D01*
X37082135Y-41810987D01*
X37063244Y-41795704D01*
X37047040Y-41787380D01*
X37006031Y-41775913D01*
X36967246Y-41777784D01*
X36932722Y-41792401D01*
X36904497Y-41819173D01*
X36896640Y-41831036D01*
X36886283Y-41858344D01*
X36879939Y-41895196D01*
X36877523Y-41937460D01*
X36878951Y-41981005D01*
X36884138Y-42021699D01*
X36893001Y-42055410D01*
X36901578Y-42072991D01*
X36928049Y-42100483D01*
X36961642Y-42116864D01*
X36999388Y-42121456D01*
X37038320Y-42113583D01*
X37052377Y-42107402D01*
X37074086Y-42093231D01*
X37089803Y-42074692D01*
X37100336Y-42049530D01*
X37106489Y-42015492D01*
X37109069Y-41970320D01*
X37109281Y-41948171D01*
X37109281Y-42216877D01*
X37096045Y-42224357D01*
X37040125Y-42239525D01*
X37010207Y-42242465D01*
X36979777Y-42243044D01*
X36952260Y-42242067D01*
X36933140Y-42239749D01*
X36931800Y-42239425D01*
X36883397Y-42220568D01*
X36839998Y-42191944D01*
X36804818Y-42156135D01*
X36782795Y-42119796D01*
X36769584Y-42078982D01*
X36760539Y-42028461D01*
X36755821Y-41972475D01*
X36755587Y-41915269D01*
X36759997Y-41861085D01*
X36769210Y-41814166D01*
X36771094Y-41807765D01*
X36794068Y-41756655D01*
X36827636Y-41714627D01*
X36870408Y-41682581D01*
X36920991Y-41661414D01*
X36977992Y-41652026D01*
X37012004Y-41652237D01*
X37070940Y-41662621D01*
X37122953Y-41685312D01*
X37166922Y-41719559D01*
X37201726Y-41764609D01*
X37213832Y-41787626D01*
X37219527Y-41801212D01*
X37223641Y-41815293D01*
X37226426Y-41832475D01*
X37228134Y-41855360D01*
X37229016Y-41886555D01*
X37229324Y-41928662D01*
X37229343Y-41948171D01*
X37229343Y-41948171D01*
G36*
X37791771Y-42238457D02*
X37733714Y-42238457D01*
X37675657Y-42238457D01*
X37675657Y-42208863D01*
X37675657Y-42179269D01*
X37646683Y-42204069D01*
X37604887Y-42230771D01*
X37558219Y-42244499D01*
X37508635Y-42245088D01*
X37458092Y-42232372D01*
X37434991Y-42221974D01*
X37391111Y-42191981D01*
X37358903Y-42153393D01*
X37338494Y-42106373D01*
X37335198Y-42093075D01*
X37332894Y-42074787D01*
X37330900Y-42043979D01*
X37329282Y-42002640D01*
X37328107Y-41952762D01*
X37327442Y-41896335D01*
X37327314Y-41857100D01*
X37327314Y-41657885D01*
X37389000Y-41657885D01*
X37450686Y-41657885D01*
X37450686Y-41845430D01*
X37450734Y-41902632D01*
X37450975Y-41947256D01*
X37451556Y-41981240D01*
X37452623Y-42006520D01*
X37454322Y-42025032D01*
X37456799Y-42038715D01*
X37460201Y-42049504D01*
X37464673Y-42059335D01*
X37467195Y-42064194D01*
X37490461Y-42094788D01*
X37520101Y-42114085D01*
X37553377Y-42122084D01*
X37587549Y-42118783D01*
X37619879Y-42104182D01*
X37647627Y-42078280D01*
X37657122Y-42064261D01*
X37661665Y-42055642D01*
X37665227Y-42045852D01*
X37667958Y-42033025D01*
X37670008Y-42015295D01*
X37671529Y-41990796D01*
X37672671Y-41957662D01*
X37673584Y-41914027D01*
X37674419Y-41858026D01*
X37674548Y-41848385D01*
X37677067Y-41657885D01*
X37734419Y-41657885D01*
X37791771Y-41657885D01*
X37791771Y-41948171D01*
X37791771Y-42238457D01*
X37791771Y-42238457D01*
X37791771Y-42238457D01*
G37*
X37791771Y-42238457D02*
X37733714Y-42238457D01*
X37675657Y-42238457D01*
X37675657Y-42208863D01*
X37675657Y-42179269D01*
X37646683Y-42204069D01*
X37604887Y-42230771D01*
X37558219Y-42244499D01*
X37508635Y-42245088D01*
X37458092Y-42232372D01*
X37434991Y-42221974D01*
X37391111Y-42191981D01*
X37358903Y-42153393D01*
X37338494Y-42106373D01*
X37335198Y-42093075D01*
X37332894Y-42074787D01*
X37330900Y-42043979D01*
X37329282Y-42002640D01*
X37328107Y-41952762D01*
X37327442Y-41896335D01*
X37327314Y-41857100D01*
X37327314Y-41657885D01*
X37389000Y-41657885D01*
X37450686Y-41657885D01*
X37450686Y-41845430D01*
X37450734Y-41902632D01*
X37450975Y-41947256D01*
X37451556Y-41981240D01*
X37452623Y-42006520D01*
X37454322Y-42025032D01*
X37456799Y-42038715D01*
X37460201Y-42049504D01*
X37464673Y-42059335D01*
X37467195Y-42064194D01*
X37490461Y-42094788D01*
X37520101Y-42114085D01*
X37553377Y-42122084D01*
X37587549Y-42118783D01*
X37619879Y-42104182D01*
X37647627Y-42078280D01*
X37657122Y-42064261D01*
X37661665Y-42055642D01*
X37665227Y-42045852D01*
X37667958Y-42033025D01*
X37670008Y-42015295D01*
X37671529Y-41990796D01*
X37672671Y-41957662D01*
X37673584Y-41914027D01*
X37674419Y-41858026D01*
X37674548Y-41848385D01*
X37677067Y-41657885D01*
X37734419Y-41657885D01*
X37791771Y-41657885D01*
X37791771Y-41948171D01*
X37791771Y-42238457D01*
X37791771Y-42238457D01*
G36*
X38764228Y-42144637D02*
X38758480Y-42154023D01*
X38743333Y-42168309D01*
X38721936Y-42185099D01*
X38697439Y-42201998D01*
X38672988Y-42216607D01*
X38662899Y-42221767D01*
X38615145Y-42237677D01*
X38561086Y-42244244D01*
X38505717Y-42241236D01*
X38461990Y-42231183D01*
X38412504Y-42207831D01*
X38379946Y-42182961D01*
X38344574Y-42144819D01*
X38318965Y-42101858D01*
X38302463Y-42052117D01*
X38294414Y-41993634D01*
X38294099Y-41925857D01*
X38298895Y-41868997D01*
X38308569Y-41822848D01*
X38324404Y-41784064D01*
X38347679Y-41749294D01*
X38371709Y-41722919D01*
X38417679Y-41686854D01*
X38469275Y-41663137D01*
X38524548Y-41651735D01*
X38581550Y-41652614D01*
X38638333Y-41665740D01*
X38692948Y-41691081D01*
X38743449Y-41728601D01*
X38744271Y-41729354D01*
X38757283Y-41742567D01*
X38763984Y-41751836D01*
X38764228Y-41752868D01*
X38759114Y-41759728D01*
X38745545Y-41773303D01*
X38726180Y-41790970D01*
X38720728Y-41795734D01*
X38677228Y-41833419D01*
X38653600Y-41813495D01*
X38612831Y-41787414D01*
X38569537Y-41775123D01*
X38525185Y-41776853D01*
X38491368Y-41787828D01*
X38459647Y-41808436D01*
X38436909Y-41837947D01*
X38422637Y-41877456D01*
X38416316Y-41928061D01*
X38415886Y-41948171D01*
X38419600Y-42002835D01*
X38431086Y-42046027D01*
X38450862Y-42078843D01*
X38479444Y-42102381D01*
X38491368Y-42108514D01*
X38535532Y-42121151D01*
X38579779Y-42119598D01*
X38622604Y-42104092D01*
X38653471Y-42082955D01*
X38676971Y-42063139D01*
X38720600Y-42101086D01*
X38741028Y-42119511D01*
X38756336Y-42134568D01*
X38763870Y-42143608D01*
X38764228Y-42144637D01*
X38764228Y-42144637D01*
X38764228Y-42144637D01*
G37*
X38764228Y-42144637D02*
X38758480Y-42154023D01*
X38743333Y-42168309D01*
X38721936Y-42185099D01*
X38697439Y-42201998D01*
X38672988Y-42216607D01*
X38662899Y-42221767D01*
X38615145Y-42237677D01*
X38561086Y-42244244D01*
X38505717Y-42241236D01*
X38461990Y-42231183D01*
X38412504Y-42207831D01*
X38379946Y-42182961D01*
X38344574Y-42144819D01*
X38318965Y-42101858D01*
X38302463Y-42052117D01*
X38294414Y-41993634D01*
X38294099Y-41925857D01*
X38298895Y-41868997D01*
X38308569Y-41822848D01*
X38324404Y-41784064D01*
X38347679Y-41749294D01*
X38371709Y-41722919D01*
X38417679Y-41686854D01*
X38469275Y-41663137D01*
X38524548Y-41651735D01*
X38581550Y-41652614D01*
X38638333Y-41665740D01*
X38692948Y-41691081D01*
X38743449Y-41728601D01*
X38744271Y-41729354D01*
X38757283Y-41742567D01*
X38763984Y-41751836D01*
X38764228Y-41752868D01*
X38759114Y-41759728D01*
X38745545Y-41773303D01*
X38726180Y-41790970D01*
X38720728Y-41795734D01*
X38677228Y-41833419D01*
X38653600Y-41813495D01*
X38612831Y-41787414D01*
X38569537Y-41775123D01*
X38525185Y-41776853D01*
X38491368Y-41787828D01*
X38459647Y-41808436D01*
X38436909Y-41837947D01*
X38422637Y-41877456D01*
X38416316Y-41928061D01*
X38415886Y-41948171D01*
X38419600Y-42002835D01*
X38431086Y-42046027D01*
X38450862Y-42078843D01*
X38479444Y-42102381D01*
X38491368Y-42108514D01*
X38535532Y-42121151D01*
X38579779Y-42119598D01*
X38622604Y-42104092D01*
X38653471Y-42082955D01*
X38676971Y-42063139D01*
X38720600Y-42101086D01*
X38741028Y-42119511D01*
X38756336Y-42134568D01*
X38763870Y-42143608D01*
X38764228Y-42144637D01*
X38764228Y-42144637D01*
G36*
X39264971Y-41998971D02*
X39143499Y-41998971D01*
X39143499Y-41890114D01*
X39139110Y-41863070D01*
X39127026Y-41827343D01*
X39105384Y-41799470D01*
X39076897Y-41780062D01*
X39044279Y-41769734D01*
X39010240Y-41769099D01*
X38977495Y-41778770D01*
X38948755Y-41799361D01*
X38934787Y-41816862D01*
X38922584Y-41839704D01*
X38914008Y-41862693D01*
X38913087Y-41866528D01*
X38908218Y-41890114D01*
X39025858Y-41890114D01*
X39143499Y-41890114D01*
X39143499Y-41998971D01*
X39087171Y-41998971D01*
X39030097Y-41998947D01*
X38986060Y-41999167D01*
X38953586Y-42000066D01*
X38931198Y-42002080D01*
X38917423Y-42005646D01*
X38910784Y-42011199D01*
X38909806Y-42019176D01*
X38913015Y-42030012D01*
X38918934Y-42044144D01*
X38920642Y-42048190D01*
X38943153Y-42086074D01*
X38974118Y-42112165D01*
X39013556Y-42126474D01*
X39047257Y-42129488D01*
X39070292Y-42125878D01*
X39098361Y-42116638D01*
X39126004Y-42104089D01*
X39147760Y-42090550D01*
X39155116Y-42083670D01*
X39161368Y-42078152D01*
X39169030Y-42077494D01*
X39180230Y-42082848D01*
X39197101Y-42095364D01*
X39221772Y-42116193D01*
X39232314Y-42125372D01*
X39261343Y-42150746D01*
X39239571Y-42169453D01*
X39184043Y-42208484D01*
X39124718Y-42233885D01*
X39062689Y-42245420D01*
X38999047Y-42242856D01*
X38950926Y-42231541D01*
X38900187Y-42208285D01*
X38858834Y-42173979D01*
X38826904Y-42128673D01*
X38804435Y-42072418D01*
X38792353Y-42012642D01*
X38788231Y-41943669D01*
X38793437Y-41877891D01*
X38807415Y-41817622D01*
X38829609Y-41765179D01*
X38859461Y-41722877D01*
X38862863Y-41719276D01*
X38896239Y-41689490D01*
X38930315Y-41669797D01*
X38969088Y-41658633D01*
X39016553Y-41654437D01*
X39029114Y-41654293D01*
X39063109Y-41654879D01*
X39087819Y-41657342D01*
X39108447Y-41662672D01*
X39130195Y-41671860D01*
X39135899Y-41674621D01*
X39181255Y-41704484D01*
X39219225Y-41744618D01*
X39246654Y-41791553D01*
X39250215Y-41800419D01*
X39257565Y-41823988D01*
X39262124Y-41849828D01*
X39264414Y-41882168D01*
X39264971Y-41919415D01*
X39264971Y-41998971D01*
X39264971Y-41998971D01*
X39264971Y-41998971D01*
G37*
X39264971Y-41998971D02*
X39143499Y-41998971D01*
X39143499Y-41890114D01*
X39139110Y-41863070D01*
X39127026Y-41827343D01*
X39105384Y-41799470D01*
X39076897Y-41780062D01*
X39044279Y-41769734D01*
X39010240Y-41769099D01*
X38977495Y-41778770D01*
X38948755Y-41799361D01*
X38934787Y-41816862D01*
X38922584Y-41839704D01*
X38914008Y-41862693D01*
X38913087Y-41866528D01*
X38908218Y-41890114D01*
X39025858Y-41890114D01*
X39143499Y-41890114D01*
X39143499Y-41998971D01*
X39087171Y-41998971D01*
X39030097Y-41998947D01*
X38986060Y-41999167D01*
X38953586Y-42000066D01*
X38931198Y-42002080D01*
X38917423Y-42005646D01*
X38910784Y-42011199D01*
X38909806Y-42019176D01*
X38913015Y-42030012D01*
X38918934Y-42044144D01*
X38920642Y-42048190D01*
X38943153Y-42086074D01*
X38974118Y-42112165D01*
X39013556Y-42126474D01*
X39047257Y-42129488D01*
X39070292Y-42125878D01*
X39098361Y-42116638D01*
X39126004Y-42104089D01*
X39147760Y-42090550D01*
X39155116Y-42083670D01*
X39161368Y-42078152D01*
X39169030Y-42077494D01*
X39180230Y-42082848D01*
X39197101Y-42095364D01*
X39221772Y-42116193D01*
X39232314Y-42125372D01*
X39261343Y-42150746D01*
X39239571Y-42169453D01*
X39184043Y-42208484D01*
X39124718Y-42233885D01*
X39062689Y-42245420D01*
X38999047Y-42242856D01*
X38950926Y-42231541D01*
X38900187Y-42208285D01*
X38858834Y-42173979D01*
X38826904Y-42128673D01*
X38804435Y-42072418D01*
X38792353Y-42012642D01*
X38788231Y-41943669D01*
X38793437Y-41877891D01*
X38807415Y-41817622D01*
X38829609Y-41765179D01*
X38859461Y-41722877D01*
X38862863Y-41719276D01*
X38896239Y-41689490D01*
X38930315Y-41669797D01*
X38969088Y-41658633D01*
X39016553Y-41654437D01*
X39029114Y-41654293D01*
X39063109Y-41654879D01*
X39087819Y-41657342D01*
X39108447Y-41662672D01*
X39130195Y-41671860D01*
X39135899Y-41674621D01*
X39181255Y-41704484D01*
X39219225Y-41744618D01*
X39246654Y-41791553D01*
X39250215Y-41800419D01*
X39257565Y-41823988D01*
X39262124Y-41849828D01*
X39264414Y-41882168D01*
X39264971Y-41919415D01*
X39264971Y-41998971D01*
X39264971Y-41998971D01*
G36*
X35891174Y-42238457D02*
X35829101Y-42238457D01*
X35767028Y-42238457D01*
X35767028Y-42051309D01*
X35766976Y-41994111D01*
X35766724Y-41949475D01*
X35766125Y-41915449D01*
X35765035Y-41890080D01*
X35763308Y-41871416D01*
X35760800Y-41857504D01*
X35757365Y-41846393D01*
X35752858Y-41836130D01*
X35750700Y-41831780D01*
X35728404Y-41800520D01*
X35699151Y-41781904D01*
X35662385Y-41775631D01*
X35648559Y-41776213D01*
X35610132Y-41785412D01*
X35580639Y-41805906D01*
X35562025Y-41832573D01*
X35558122Y-41841712D01*
X35555097Y-41853180D01*
X35552843Y-41868817D01*
X35551251Y-41890464D01*
X35550213Y-41919960D01*
X35549620Y-41959147D01*
X35549363Y-42009864D01*
X35549325Y-42047957D01*
X35549314Y-42238457D01*
X35487628Y-42238457D01*
X35425943Y-42238457D01*
X35425943Y-41948171D01*
X35425943Y-41657885D01*
X35487628Y-41657885D01*
X35549314Y-41657885D01*
X35549314Y-41684550D01*
X35549314Y-41711215D01*
X35565643Y-41696285D01*
X35601924Y-41672133D01*
X35646134Y-41656783D01*
X35694042Y-41651114D01*
X35741415Y-41656004D01*
X35749549Y-41658071D01*
X35789239Y-41675540D01*
X35826714Y-41703370D01*
X35857216Y-41737631D01*
X35868628Y-41756457D01*
X35873731Y-41766791D01*
X35877792Y-41776659D01*
X35880948Y-41787815D01*
X35883338Y-41802017D01*
X35885100Y-41821018D01*
X35886371Y-41846575D01*
X35887289Y-41880443D01*
X35887994Y-41924377D01*
X35888622Y-41980134D01*
X35888973Y-42015300D01*
X35891174Y-42238457D01*
X35891174Y-42238457D01*
X35891174Y-42238457D01*
G37*
X35891174Y-42238457D02*
X35829101Y-42238457D01*
X35767028Y-42238457D01*
X35767028Y-42051309D01*
X35766976Y-41994111D01*
X35766724Y-41949475D01*
X35766125Y-41915449D01*
X35765035Y-41890080D01*
X35763308Y-41871416D01*
X35760800Y-41857504D01*
X35757365Y-41846393D01*
X35752858Y-41836130D01*
X35750700Y-41831780D01*
X35728404Y-41800520D01*
X35699151Y-41781904D01*
X35662385Y-41775631D01*
X35648559Y-41776213D01*
X35610132Y-41785412D01*
X35580639Y-41805906D01*
X35562025Y-41832573D01*
X35558122Y-41841712D01*
X35555097Y-41853180D01*
X35552843Y-41868817D01*
X35551251Y-41890464D01*
X35550213Y-41919960D01*
X35549620Y-41959147D01*
X35549363Y-42009864D01*
X35549325Y-42047957D01*
X35549314Y-42238457D01*
X35487628Y-42238457D01*
X35425943Y-42238457D01*
X35425943Y-41948171D01*
X35425943Y-41657885D01*
X35487628Y-41657885D01*
X35549314Y-41657885D01*
X35549314Y-41684550D01*
X35549314Y-41711215D01*
X35565643Y-41696285D01*
X35601924Y-41672133D01*
X35646134Y-41656783D01*
X35694042Y-41651114D01*
X35741415Y-41656004D01*
X35749549Y-41658071D01*
X35789239Y-41675540D01*
X35826714Y-41703370D01*
X35857216Y-41737631D01*
X35868628Y-41756457D01*
X35873731Y-41766791D01*
X35877792Y-41776659D01*
X35880948Y-41787815D01*
X35883338Y-41802017D01*
X35885100Y-41821018D01*
X35886371Y-41846575D01*
X35887289Y-41880443D01*
X35887994Y-41924377D01*
X35888622Y-41980134D01*
X35888973Y-42015300D01*
X35891174Y-42238457D01*
X35891174Y-42238457D01*
G36*
X38307028Y-41695825D02*
X38302694Y-41704538D01*
X38291113Y-41721316D01*
X38274421Y-41743148D01*
X38266448Y-41753042D01*
X38225868Y-41802644D01*
X38196227Y-41787522D01*
X38159137Y-41775838D01*
X38122440Y-41777240D01*
X38089042Y-41790827D01*
X38061845Y-41815695D01*
X38051225Y-41832573D01*
X38047322Y-41841712D01*
X38044297Y-41853180D01*
X38042043Y-41868817D01*
X38040451Y-41890464D01*
X38039413Y-41919960D01*
X38038820Y-41959147D01*
X38038563Y-42009864D01*
X38038525Y-42047957D01*
X38038514Y-42238457D01*
X37976828Y-42238457D01*
X37915143Y-42238457D01*
X37915143Y-41948171D01*
X37915143Y-41657885D01*
X37976828Y-41657885D01*
X38038514Y-41657885D01*
X38038514Y-41683331D01*
X38038514Y-41708776D01*
X38067195Y-41688000D01*
X38112620Y-41663825D01*
X38163504Y-41652236D01*
X38200257Y-41652013D01*
X38225221Y-41656204D01*
X38252052Y-41663975D01*
X38277016Y-41673794D01*
X38296377Y-41684129D01*
X38306401Y-41693447D01*
X38307028Y-41695825D01*
X38307028Y-41695825D01*
X38307028Y-41695825D01*
G37*
X38307028Y-41695825D02*
X38302694Y-41704538D01*
X38291113Y-41721316D01*
X38274421Y-41743148D01*
X38266448Y-41753042D01*
X38225868Y-41802644D01*
X38196227Y-41787522D01*
X38159137Y-41775838D01*
X38122440Y-41777240D01*
X38089042Y-41790827D01*
X38061845Y-41815695D01*
X38051225Y-41832573D01*
X38047322Y-41841712D01*
X38044297Y-41853180D01*
X38042043Y-41868817D01*
X38040451Y-41890464D01*
X38039413Y-41919960D01*
X38038820Y-41959147D01*
X38038563Y-42009864D01*
X38038525Y-42047957D01*
X38038514Y-42238457D01*
X37976828Y-42238457D01*
X37915143Y-42238457D01*
X37915143Y-41948171D01*
X37915143Y-41657885D01*
X37976828Y-41657885D01*
X38038514Y-41657885D01*
X38038514Y-41683331D01*
X38038514Y-41708776D01*
X38067195Y-41688000D01*
X38112620Y-41663825D01*
X38163504Y-41652236D01*
X38200257Y-41652013D01*
X38225221Y-41656204D01*
X38252052Y-41663975D01*
X38277016Y-41673794D01*
X38296377Y-41684129D01*
X38306401Y-41693447D01*
X38307028Y-41695825D01*
X38307028Y-41695825D01*
G36*
X38655371Y-39495046D02*
X38655326Y-39565865D01*
X38655149Y-39623595D01*
X38654776Y-39669660D01*
X38654147Y-39705486D01*
X38653197Y-39732497D01*
X38651865Y-39752118D01*
X38650087Y-39765775D01*
X38647801Y-39774893D01*
X38644944Y-39780895D01*
X38642671Y-39783893D01*
X38637002Y-39788200D01*
X38626635Y-39792756D01*
X38610255Y-39797861D01*
X38586549Y-39803815D01*
X38554201Y-39810920D01*
X38511897Y-39819474D01*
X38458323Y-39829778D01*
X38392164Y-39842132D01*
X38368868Y-39846430D01*
X38295050Y-39860181D01*
X38234555Y-39871830D01*
X38186381Y-39881598D01*
X38149522Y-39889711D01*
X38122975Y-39896391D01*
X38105738Y-39901861D01*
X38096805Y-39906345D01*
X38095923Y-39907148D01*
X38089722Y-39917598D01*
X38079426Y-39939295D01*
X38065832Y-39970216D01*
X38049738Y-40008340D01*
X38031941Y-40051643D01*
X38013241Y-40098103D01*
X37994434Y-40145698D01*
X37976318Y-40192405D01*
X37959692Y-40236203D01*
X37945352Y-40275068D01*
X37934098Y-40306979D01*
X37926726Y-40329913D01*
X37924035Y-40341847D01*
X37924107Y-40342665D01*
X37928877Y-40351401D01*
X37940950Y-40370623D01*
X37959367Y-40398883D01*
X37983167Y-40434732D01*
X38011391Y-40476725D01*
X38043078Y-40523414D01*
X38073160Y-40567374D01*
X38107196Y-40617151D01*
X38138687Y-40663644D01*
X38166658Y-40705379D01*
X38190135Y-40740885D01*
X38208144Y-40768691D01*
X38219710Y-40787323D01*
X38223778Y-40794937D01*
X38223721Y-40800213D01*
X38220215Y-40807997D01*
X38212396Y-40819245D01*
X38199399Y-40834915D01*
X38180357Y-40855962D01*
X38154404Y-40883345D01*
X38120676Y-40918019D01*
X38078307Y-40960941D01*
X38026723Y-41012778D01*
X37968003Y-41071249D01*
X37918187Y-41120033D01*
X37877464Y-41158952D01*
X37846022Y-41187831D01*
X37824047Y-41206495D01*
X37811729Y-41214769D01*
X37810012Y-41215200D01*
X37800799Y-41211205D01*
X37781121Y-41199840D01*
X37752421Y-41182031D01*
X37716141Y-41158705D01*
X37673726Y-41130790D01*
X37626617Y-41099214D01*
X37578292Y-41066299D01*
X37518425Y-41025392D01*
X37469354Y-40992297D01*
X37430067Y-40966388D01*
X37399553Y-40947035D01*
X37376801Y-40933610D01*
X37360799Y-40925485D01*
X37350536Y-40922031D01*
X37346138Y-40922082D01*
X37334255Y-40927153D01*
X37312523Y-40937705D01*
X37283843Y-40952285D01*
X37251116Y-40969441D01*
X37244840Y-40972786D01*
X37204961Y-40994005D01*
X37175859Y-41008965D01*
X37155528Y-41018280D01*
X37141961Y-41022562D01*
X37133150Y-41022426D01*
X37127089Y-41018483D01*
X37121770Y-41011348D01*
X37121244Y-41010546D01*
X37115318Y-40999008D01*
X37104689Y-40975643D01*
X37089910Y-40941805D01*
X37071535Y-40898849D01*
X37050116Y-40848127D01*
X37026208Y-40790995D01*
X37000363Y-40728805D01*
X36973134Y-40662913D01*
X36945075Y-40594671D01*
X36916740Y-40525433D01*
X36888681Y-40456554D01*
X36861452Y-40389388D01*
X36835605Y-40325287D01*
X36811696Y-40265607D01*
X36790275Y-40211701D01*
X36771898Y-40164923D01*
X36757117Y-40126627D01*
X36746486Y-40098166D01*
X36740557Y-40080895D01*
X36739486Y-40076385D01*
X36742589Y-40060275D01*
X36754130Y-40047184D01*
X36766700Y-40038728D01*
X36852565Y-39979474D01*
X36925834Y-39913686D01*
X36986312Y-39841686D01*
X37033805Y-39763796D01*
X37068122Y-39680335D01*
X37089067Y-39591626D01*
X37096448Y-39497990D01*
X37096453Y-39491628D01*
X37089108Y-39400053D01*
X37068283Y-39312614D01*
X37034694Y-39230434D01*
X36989061Y-39154638D01*
X36932102Y-39086350D01*
X36864533Y-39026697D01*
X36787073Y-38976801D01*
X36758441Y-38962177D01*
X36701295Y-38937067D01*
X36649556Y-38920015D01*
X36597767Y-38909784D01*
X36540471Y-38905142D01*
X36503628Y-38904522D01*
X36440812Y-38906556D01*
X36386584Y-38913479D01*
X36335488Y-38926528D01*
X36282066Y-38946937D01*
X36248816Y-38962177D01*
X36168138Y-39008478D01*
X36097106Y-39064921D01*
X36036437Y-39130382D01*
X35986850Y-39203736D01*
X35949061Y-39283860D01*
X35923790Y-39369627D01*
X35911754Y-39459914D01*
X35910804Y-39491628D01*
X35917280Y-39585579D01*
X35937334Y-39674624D01*
X35970771Y-39758442D01*
X36017399Y-39836711D01*
X36077024Y-39909110D01*
X36149452Y-39975319D01*
X36234490Y-40035016D01*
X36240557Y-40038728D01*
X36258868Y-40052249D01*
X36266704Y-40065971D01*
X36267771Y-40076385D01*
X36265062Y-40085975D01*
X36257305Y-40107601D01*
X36245053Y-40139909D01*
X36228858Y-40181545D01*
X36209275Y-40231156D01*
X36186856Y-40287386D01*
X36162155Y-40348882D01*
X36135725Y-40414291D01*
X36108120Y-40482259D01*
X36079893Y-40551431D01*
X36051596Y-40620454D01*
X36023784Y-40687973D01*
X35997009Y-40752636D01*
X35971825Y-40813087D01*
X35948786Y-40867974D01*
X35928444Y-40915942D01*
X35911353Y-40955637D01*
X35898065Y-40985706D01*
X35889135Y-41004794D01*
X35886013Y-41010546D01*
X35880662Y-41017947D01*
X35874754Y-41022211D01*
X35866282Y-41022726D01*
X35853240Y-41018879D01*
X35833621Y-41010057D01*
X35805417Y-40995646D01*
X35766621Y-40975033D01*
X35762416Y-40972786D01*
X35729259Y-40955313D01*
X35699610Y-40940146D01*
X35676371Y-40928738D01*
X35662445Y-40922542D01*
X35661119Y-40922082D01*
X35654356Y-40922566D01*
X35642581Y-40927271D01*
X35624782Y-40936823D01*
X35599949Y-40951852D01*
X35567070Y-40972986D01*
X35525133Y-41000853D01*
X35473127Y-41036081D01*
X35428965Y-41066299D01*
X35378707Y-41100520D01*
X35331756Y-41131969D01*
X35289556Y-41159720D01*
X35253548Y-41182845D01*
X35225177Y-41200417D01*
X35205885Y-41211509D01*
X35197244Y-41215200D01*
X35187714Y-41209921D01*
X35168474Y-41194201D01*
X35139711Y-41168217D01*
X35101615Y-41132142D01*
X35054373Y-41086154D01*
X34998173Y-41030426D01*
X34980534Y-41012778D01*
X34928709Y-40960699D01*
X34886386Y-40917821D01*
X34852701Y-40883187D01*
X34826786Y-40855839D01*
X34807777Y-40834822D01*
X34794808Y-40819177D01*
X34787013Y-40807949D01*
X34783528Y-40800181D01*
X34783479Y-40794937D01*
X34788625Y-40785516D01*
X34801063Y-40765637D01*
X34819821Y-40736772D01*
X34843923Y-40700393D01*
X34872394Y-40657972D01*
X34904262Y-40610981D01*
X34934096Y-40567374D01*
X34968043Y-40517742D01*
X34999374Y-40471530D01*
X35027128Y-40430182D01*
X35050347Y-40395148D01*
X35068069Y-40367873D01*
X35079336Y-40349806D01*
X35083150Y-40342665D01*
X35081376Y-40332901D01*
X35074779Y-40311778D01*
X35064158Y-40281318D01*
X35050309Y-40243544D01*
X35034032Y-40200477D01*
X35016123Y-40154139D01*
X34997381Y-40106554D01*
X34978603Y-40059744D01*
X34960587Y-40015731D01*
X34944131Y-39976537D01*
X34930034Y-39944185D01*
X34919092Y-39920697D01*
X34912103Y-39908096D01*
X34911334Y-39907148D01*
X34903952Y-39902836D01*
X34888467Y-39897582D01*
X34863874Y-39891163D01*
X34829171Y-39883357D01*
X34783354Y-39873939D01*
X34725420Y-39862687D01*
X34654364Y-39849377D01*
X34638389Y-39846430D01*
X34568058Y-39833379D01*
X34510719Y-39822470D01*
X34465058Y-39813405D01*
X34429761Y-39805883D01*
X34403513Y-39799604D01*
X34385000Y-39794267D01*
X34372908Y-39789573D01*
X34365921Y-39785221D01*
X34364586Y-39783893D01*
X34361310Y-39779183D01*
X34358647Y-39772317D01*
X34356535Y-39761869D01*
X34354909Y-39746414D01*
X34353709Y-39724527D01*
X34352871Y-39694784D01*
X34352333Y-39655759D01*
X34352032Y-39606028D01*
X34351904Y-39544166D01*
X34351886Y-39495046D01*
X34351998Y-39432985D01*
X34352319Y-39375240D01*
X34352822Y-39323479D01*
X34353482Y-39279371D01*
X34354273Y-39244585D01*
X34355170Y-39220790D01*
X34356148Y-39209655D01*
X34356260Y-39209272D01*
X34358220Y-39205349D01*
X34361745Y-39201771D01*
X34368138Y-39198236D01*
X34378698Y-39194441D01*
X34394727Y-39190083D01*
X34417526Y-39184859D01*
X34448396Y-39178466D01*
X34488639Y-39170602D01*
X34539554Y-39160964D01*
X34602444Y-39149249D01*
X34659857Y-39138621D01*
X34728844Y-39125737D01*
X34784852Y-39114959D01*
X34829213Y-39105977D01*
X34863261Y-39098486D01*
X34888329Y-39092178D01*
X34905749Y-39086748D01*
X34916856Y-39081887D01*
X34922018Y-39078270D01*
X34928304Y-39068485D01*
X34939194Y-39047398D01*
X34953765Y-39017116D01*
X34971093Y-38979747D01*
X34990256Y-38937399D01*
X35010332Y-38892179D01*
X35030397Y-38846195D01*
X35049529Y-38801554D01*
X35066805Y-38760364D01*
X35081303Y-38724733D01*
X35092099Y-38696768D01*
X35098271Y-38678576D01*
X35099371Y-38673181D01*
X35095390Y-38665001D01*
X35084055Y-38646279D01*
X35066274Y-38618405D01*
X35042958Y-38582769D01*
X35015017Y-38540760D01*
X34983361Y-38493769D01*
X34948899Y-38443185D01*
X34946584Y-38439807D01*
X34911631Y-38388594D01*
X34879106Y-38340516D01*
X34849974Y-38297033D01*
X34825203Y-38259604D01*
X34805756Y-38229689D01*
X34792600Y-38208746D01*
X34786700Y-38198235D01*
X34786640Y-38198083D01*
X34785278Y-38192893D01*
X34785760Y-38187057D01*
X34788995Y-38179544D01*
X34795891Y-38169321D01*
X34807358Y-38155356D01*
X34824302Y-38136617D01*
X34847634Y-38112071D01*
X34878261Y-38080687D01*
X34917092Y-38041432D01*
X34965036Y-37993274D01*
X34980983Y-37977286D01*
X35038630Y-37919822D01*
X35086761Y-37872553D01*
X35125794Y-37835090D01*
X35156148Y-37807045D01*
X35178238Y-37788030D01*
X35192484Y-37777657D01*
X35198335Y-37775314D01*
X35207723Y-37779320D01*
X35227643Y-37790752D01*
X35256723Y-37808729D01*
X35293593Y-37832368D01*
X35336880Y-37860789D01*
X35385215Y-37893111D01*
X35437226Y-37928453D01*
X35446733Y-37934971D01*
X35498649Y-37970410D01*
X35547138Y-38003118D01*
X35590832Y-38032200D01*
X35628366Y-38056766D01*
X35658372Y-38075922D01*
X35679484Y-38088777D01*
X35690336Y-38094437D01*
X35691200Y-38094628D01*
X35702270Y-38091857D01*
X35724438Y-38084140D01*
X35755555Y-38072371D01*
X35793475Y-38057446D01*
X35836051Y-38040259D01*
X35881136Y-38021705D01*
X35926583Y-38002678D01*
X35970245Y-37984074D01*
X36009975Y-37966788D01*
X36043626Y-37951713D01*
X36069050Y-37939745D01*
X36084101Y-37931778D01*
X36086951Y-37929702D01*
X36091484Y-37920643D01*
X36097390Y-37901196D01*
X36104820Y-37870664D01*
X36113928Y-37828351D01*
X36124865Y-37773561D01*
X36137784Y-37705596D01*
X36147698Y-37651943D01*
X36158961Y-37591004D01*
X36169711Y-37533932D01*
X36179605Y-37482458D01*
X36188304Y-37438313D01*
X36195464Y-37403230D01*
X36200746Y-37378941D01*
X36203808Y-37367177D01*
X36203837Y-37367100D01*
X36211475Y-37347143D01*
X36503628Y-37347143D01*
X36795782Y-37347143D01*
X36803448Y-37367100D01*
X36806496Y-37378676D01*
X36811778Y-37402790D01*
X36818949Y-37437695D01*
X36827662Y-37481646D01*
X36837571Y-37532897D01*
X36848329Y-37589701D01*
X36859222Y-37648314D01*
X36870512Y-37708599D01*
X36881398Y-37764804D01*
X36891523Y-37815221D01*
X36900528Y-37858145D01*
X36908057Y-37891866D01*
X36913749Y-37914679D01*
X36917203Y-37924808D01*
X36927914Y-37933148D01*
X36952314Y-37946247D01*
X36990386Y-37964099D01*
X37042111Y-37986692D01*
X37107471Y-38014021D01*
X37115544Y-38017337D01*
X37164985Y-38037443D01*
X37210432Y-38055602D01*
X37250047Y-38071104D01*
X37281991Y-38083242D01*
X37304428Y-38091307D01*
X37315519Y-38094589D01*
X37315996Y-38094628D01*
X37324468Y-38090637D01*
X37343496Y-38079259D01*
X37371710Y-38061387D01*
X37407746Y-38037912D01*
X37450235Y-38009728D01*
X37497811Y-37977726D01*
X37549107Y-37942800D01*
X37560524Y-37934971D01*
X37613044Y-37899186D01*
X37662131Y-37866264D01*
X37706414Y-37837087D01*
X37744522Y-37812535D01*
X37775084Y-37793489D01*
X37796729Y-37780832D01*
X37808086Y-37775444D01*
X37808922Y-37775314D01*
X37817466Y-37779357D01*
X37833537Y-37791747D01*
X37857551Y-37812870D01*
X37889927Y-37843116D01*
X37931082Y-37882872D01*
X37981435Y-37932526D01*
X38026274Y-37977286D01*
X38077067Y-38028255D01*
X38118481Y-38070018D01*
X38151424Y-38103608D01*
X38176804Y-38130055D01*
X38195531Y-38150393D01*
X38208512Y-38165653D01*
X38216656Y-38176868D01*
X38220873Y-38185071D01*
X38222069Y-38191292D01*
X38221155Y-38196565D01*
X38220617Y-38198083D01*
X38214972Y-38208226D01*
X38202039Y-38228849D01*
X38182784Y-38258493D01*
X38158172Y-38295698D01*
X38129169Y-38339005D01*
X38096740Y-38386955D01*
X38061851Y-38438088D01*
X38060673Y-38439807D01*
X38026060Y-38490577D01*
X37994193Y-38537843D01*
X37965983Y-38580218D01*
X37942339Y-38616310D01*
X37924171Y-38644731D01*
X37912389Y-38664090D01*
X37907903Y-38672997D01*
X37907886Y-38673181D01*
X37910786Y-38684382D01*
X37918874Y-38706640D01*
X37931225Y-38737849D01*
X37946917Y-38775902D01*
X37965028Y-38818690D01*
X37984634Y-38864106D01*
X38004813Y-38910042D01*
X38024642Y-38954392D01*
X38043199Y-38995047D01*
X38059560Y-39029899D01*
X38072803Y-39056842D01*
X38082006Y-39073767D01*
X38085239Y-39078270D01*
X38092323Y-39082899D01*
X38104674Y-39087856D01*
X38123625Y-39093450D01*
X38150511Y-39099986D01*
X38186663Y-39107771D01*
X38233416Y-39117113D01*
X38292101Y-39128319D01*
X38347400Y-39138621D01*
X38420398Y-39152141D01*
X38480420Y-39163352D01*
X38528767Y-39172556D01*
X38566739Y-39180055D01*
X38595639Y-39186152D01*
X38616767Y-39191150D01*
X38631423Y-39195352D01*
X38640910Y-39199061D01*
X38646528Y-39202579D01*
X38649579Y-39206209D01*
X38650996Y-39209272D01*
X38651981Y-39218896D01*
X38652889Y-39241366D01*
X38653693Y-39275012D01*
X38654369Y-39318165D01*
X38654891Y-39369158D01*
X38655233Y-39426321D01*
X38655370Y-39487984D01*
X38655371Y-39495046D01*
X38655371Y-39495046D01*
X38655371Y-39495046D01*
G37*
X38655371Y-39495046D02*
X38655326Y-39565865D01*
X38655149Y-39623595D01*
X38654776Y-39669660D01*
X38654147Y-39705486D01*
X38653197Y-39732497D01*
X38651865Y-39752118D01*
X38650087Y-39765775D01*
X38647801Y-39774893D01*
X38644944Y-39780895D01*
X38642671Y-39783893D01*
X38637002Y-39788200D01*
X38626635Y-39792756D01*
X38610255Y-39797861D01*
X38586549Y-39803815D01*
X38554201Y-39810920D01*
X38511897Y-39819474D01*
X38458323Y-39829778D01*
X38392164Y-39842132D01*
X38368868Y-39846430D01*
X38295050Y-39860181D01*
X38234555Y-39871830D01*
X38186381Y-39881598D01*
X38149522Y-39889711D01*
X38122975Y-39896391D01*
X38105738Y-39901861D01*
X38096805Y-39906345D01*
X38095923Y-39907148D01*
X38089722Y-39917598D01*
X38079426Y-39939295D01*
X38065832Y-39970216D01*
X38049738Y-40008340D01*
X38031941Y-40051643D01*
X38013241Y-40098103D01*
X37994434Y-40145698D01*
X37976318Y-40192405D01*
X37959692Y-40236203D01*
X37945352Y-40275068D01*
X37934098Y-40306979D01*
X37926726Y-40329913D01*
X37924035Y-40341847D01*
X37924107Y-40342665D01*
X37928877Y-40351401D01*
X37940950Y-40370623D01*
X37959367Y-40398883D01*
X37983167Y-40434732D01*
X38011391Y-40476725D01*
X38043078Y-40523414D01*
X38073160Y-40567374D01*
X38107196Y-40617151D01*
X38138687Y-40663644D01*
X38166658Y-40705379D01*
X38190135Y-40740885D01*
X38208144Y-40768691D01*
X38219710Y-40787323D01*
X38223778Y-40794937D01*
X38223721Y-40800213D01*
X38220215Y-40807997D01*
X38212396Y-40819245D01*
X38199399Y-40834915D01*
X38180357Y-40855962D01*
X38154404Y-40883345D01*
X38120676Y-40918019D01*
X38078307Y-40960941D01*
X38026723Y-41012778D01*
X37968003Y-41071249D01*
X37918187Y-41120033D01*
X37877464Y-41158952D01*
X37846022Y-41187831D01*
X37824047Y-41206495D01*
X37811729Y-41214769D01*
X37810012Y-41215200D01*
X37800799Y-41211205D01*
X37781121Y-41199840D01*
X37752421Y-41182031D01*
X37716141Y-41158705D01*
X37673726Y-41130790D01*
X37626617Y-41099214D01*
X37578292Y-41066299D01*
X37518425Y-41025392D01*
X37469354Y-40992297D01*
X37430067Y-40966388D01*
X37399553Y-40947035D01*
X37376801Y-40933610D01*
X37360799Y-40925485D01*
X37350536Y-40922031D01*
X37346138Y-40922082D01*
X37334255Y-40927153D01*
X37312523Y-40937705D01*
X37283843Y-40952285D01*
X37251116Y-40969441D01*
X37244840Y-40972786D01*
X37204961Y-40994005D01*
X37175859Y-41008965D01*
X37155528Y-41018280D01*
X37141961Y-41022562D01*
X37133150Y-41022426D01*
X37127089Y-41018483D01*
X37121770Y-41011348D01*
X37121244Y-41010546D01*
X37115318Y-40999008D01*
X37104689Y-40975643D01*
X37089910Y-40941805D01*
X37071535Y-40898849D01*
X37050116Y-40848127D01*
X37026208Y-40790995D01*
X37000363Y-40728805D01*
X36973134Y-40662913D01*
X36945075Y-40594671D01*
X36916740Y-40525433D01*
X36888681Y-40456554D01*
X36861452Y-40389388D01*
X36835605Y-40325287D01*
X36811696Y-40265607D01*
X36790275Y-40211701D01*
X36771898Y-40164923D01*
X36757117Y-40126627D01*
X36746486Y-40098166D01*
X36740557Y-40080895D01*
X36739486Y-40076385D01*
X36742589Y-40060275D01*
X36754130Y-40047184D01*
X36766700Y-40038728D01*
X36852565Y-39979474D01*
X36925834Y-39913686D01*
X36986312Y-39841686D01*
X37033805Y-39763796D01*
X37068122Y-39680335D01*
X37089067Y-39591626D01*
X37096448Y-39497990D01*
X37096453Y-39491628D01*
X37089108Y-39400053D01*
X37068283Y-39312614D01*
X37034694Y-39230434D01*
X36989061Y-39154638D01*
X36932102Y-39086350D01*
X36864533Y-39026697D01*
X36787073Y-38976801D01*
X36758441Y-38962177D01*
X36701295Y-38937067D01*
X36649556Y-38920015D01*
X36597767Y-38909784D01*
X36540471Y-38905142D01*
X36503628Y-38904522D01*
X36440812Y-38906556D01*
X36386584Y-38913479D01*
X36335488Y-38926528D01*
X36282066Y-38946937D01*
X36248816Y-38962177D01*
X36168138Y-39008478D01*
X36097106Y-39064921D01*
X36036437Y-39130382D01*
X35986850Y-39203736D01*
X35949061Y-39283860D01*
X35923790Y-39369627D01*
X35911754Y-39459914D01*
X35910804Y-39491628D01*
X35917280Y-39585579D01*
X35937334Y-39674624D01*
X35970771Y-39758442D01*
X36017399Y-39836711D01*
X36077024Y-39909110D01*
X36149452Y-39975319D01*
X36234490Y-40035016D01*
X36240557Y-40038728D01*
X36258868Y-40052249D01*
X36266704Y-40065971D01*
X36267771Y-40076385D01*
X36265062Y-40085975D01*
X36257305Y-40107601D01*
X36245053Y-40139909D01*
X36228858Y-40181545D01*
X36209275Y-40231156D01*
X36186856Y-40287386D01*
X36162155Y-40348882D01*
X36135725Y-40414291D01*
X36108120Y-40482259D01*
X36079893Y-40551431D01*
X36051596Y-40620454D01*
X36023784Y-40687973D01*
X35997009Y-40752636D01*
X35971825Y-40813087D01*
X35948786Y-40867974D01*
X35928444Y-40915942D01*
X35911353Y-40955637D01*
X35898065Y-40985706D01*
X35889135Y-41004794D01*
X35886013Y-41010546D01*
X35880662Y-41017947D01*
X35874754Y-41022211D01*
X35866282Y-41022726D01*
X35853240Y-41018879D01*
X35833621Y-41010057D01*
X35805417Y-40995646D01*
X35766621Y-40975033D01*
X35762416Y-40972786D01*
X35729259Y-40955313D01*
X35699610Y-40940146D01*
X35676371Y-40928738D01*
X35662445Y-40922542D01*
X35661119Y-40922082D01*
X35654356Y-40922566D01*
X35642581Y-40927271D01*
X35624782Y-40936823D01*
X35599949Y-40951852D01*
X35567070Y-40972986D01*
X35525133Y-41000853D01*
X35473127Y-41036081D01*
X35428965Y-41066299D01*
X35378707Y-41100520D01*
X35331756Y-41131969D01*
X35289556Y-41159720D01*
X35253548Y-41182845D01*
X35225177Y-41200417D01*
X35205885Y-41211509D01*
X35197244Y-41215200D01*
X35187714Y-41209921D01*
X35168474Y-41194201D01*
X35139711Y-41168217D01*
X35101615Y-41132142D01*
X35054373Y-41086154D01*
X34998173Y-41030426D01*
X34980534Y-41012778D01*
X34928709Y-40960699D01*
X34886386Y-40917821D01*
X34852701Y-40883187D01*
X34826786Y-40855839D01*
X34807777Y-40834822D01*
X34794808Y-40819177D01*
X34787013Y-40807949D01*
X34783528Y-40800181D01*
X34783479Y-40794937D01*
X34788625Y-40785516D01*
X34801063Y-40765637D01*
X34819821Y-40736772D01*
X34843923Y-40700393D01*
X34872394Y-40657972D01*
X34904262Y-40610981D01*
X34934096Y-40567374D01*
X34968043Y-40517742D01*
X34999374Y-40471530D01*
X35027128Y-40430182D01*
X35050347Y-40395148D01*
X35068069Y-40367873D01*
X35079336Y-40349806D01*
X35083150Y-40342665D01*
X35081376Y-40332901D01*
X35074779Y-40311778D01*
X35064158Y-40281318D01*
X35050309Y-40243544D01*
X35034032Y-40200477D01*
X35016123Y-40154139D01*
X34997381Y-40106554D01*
X34978603Y-40059744D01*
X34960587Y-40015731D01*
X34944131Y-39976537D01*
X34930034Y-39944185D01*
X34919092Y-39920697D01*
X34912103Y-39908096D01*
X34911334Y-39907148D01*
X34903952Y-39902836D01*
X34888467Y-39897582D01*
X34863874Y-39891163D01*
X34829171Y-39883357D01*
X34783354Y-39873939D01*
X34725420Y-39862687D01*
X34654364Y-39849377D01*
X34638389Y-39846430D01*
X34568058Y-39833379D01*
X34510719Y-39822470D01*
X34465058Y-39813405D01*
X34429761Y-39805883D01*
X34403513Y-39799604D01*
X34385000Y-39794267D01*
X34372908Y-39789573D01*
X34365921Y-39785221D01*
X34364586Y-39783893D01*
X34361310Y-39779183D01*
X34358647Y-39772317D01*
X34356535Y-39761869D01*
X34354909Y-39746414D01*
X34353709Y-39724527D01*
X34352871Y-39694784D01*
X34352333Y-39655759D01*
X34352032Y-39606028D01*
X34351904Y-39544166D01*
X34351886Y-39495046D01*
X34351998Y-39432985D01*
X34352319Y-39375240D01*
X34352822Y-39323479D01*
X34353482Y-39279371D01*
X34354273Y-39244585D01*
X34355170Y-39220790D01*
X34356148Y-39209655D01*
X34356260Y-39209272D01*
X34358220Y-39205349D01*
X34361745Y-39201771D01*
X34368138Y-39198236D01*
X34378698Y-39194441D01*
X34394727Y-39190083D01*
X34417526Y-39184859D01*
X34448396Y-39178466D01*
X34488639Y-39170602D01*
X34539554Y-39160964D01*
X34602444Y-39149249D01*
X34659857Y-39138621D01*
X34728844Y-39125737D01*
X34784852Y-39114959D01*
X34829213Y-39105977D01*
X34863261Y-39098486D01*
X34888329Y-39092178D01*
X34905749Y-39086748D01*
X34916856Y-39081887D01*
X34922018Y-39078270D01*
X34928304Y-39068485D01*
X34939194Y-39047398D01*
X34953765Y-39017116D01*
X34971093Y-38979747D01*
X34990256Y-38937399D01*
X35010332Y-38892179D01*
X35030397Y-38846195D01*
X35049529Y-38801554D01*
X35066805Y-38760364D01*
X35081303Y-38724733D01*
X35092099Y-38696768D01*
X35098271Y-38678576D01*
X35099371Y-38673181D01*
X35095390Y-38665001D01*
X35084055Y-38646279D01*
X35066274Y-38618405D01*
X35042958Y-38582769D01*
X35015017Y-38540760D01*
X34983361Y-38493769D01*
X34948899Y-38443185D01*
X34946584Y-38439807D01*
X34911631Y-38388594D01*
X34879106Y-38340516D01*
X34849974Y-38297033D01*
X34825203Y-38259604D01*
X34805756Y-38229689D01*
X34792600Y-38208746D01*
X34786700Y-38198235D01*
X34786640Y-38198083D01*
X34785278Y-38192893D01*
X34785760Y-38187057D01*
X34788995Y-38179544D01*
X34795891Y-38169321D01*
X34807358Y-38155356D01*
X34824302Y-38136617D01*
X34847634Y-38112071D01*
X34878261Y-38080687D01*
X34917092Y-38041432D01*
X34965036Y-37993274D01*
X34980983Y-37977286D01*
X35038630Y-37919822D01*
X35086761Y-37872553D01*
X35125794Y-37835090D01*
X35156148Y-37807045D01*
X35178238Y-37788030D01*
X35192484Y-37777657D01*
X35198335Y-37775314D01*
X35207723Y-37779320D01*
X35227643Y-37790752D01*
X35256723Y-37808729D01*
X35293593Y-37832368D01*
X35336880Y-37860789D01*
X35385215Y-37893111D01*
X35437226Y-37928453D01*
X35446733Y-37934971D01*
X35498649Y-37970410D01*
X35547138Y-38003118D01*
X35590832Y-38032200D01*
X35628366Y-38056766D01*
X35658372Y-38075922D01*
X35679484Y-38088777D01*
X35690336Y-38094437D01*
X35691200Y-38094628D01*
X35702270Y-38091857D01*
X35724438Y-38084140D01*
X35755555Y-38072371D01*
X35793475Y-38057446D01*
X35836051Y-38040259D01*
X35881136Y-38021705D01*
X35926583Y-38002678D01*
X35970245Y-37984074D01*
X36009975Y-37966788D01*
X36043626Y-37951713D01*
X36069050Y-37939745D01*
X36084101Y-37931778D01*
X36086951Y-37929702D01*
X36091484Y-37920643D01*
X36097390Y-37901196D01*
X36104820Y-37870664D01*
X36113928Y-37828351D01*
X36124865Y-37773561D01*
X36137784Y-37705596D01*
X36147698Y-37651943D01*
X36158961Y-37591004D01*
X36169711Y-37533932D01*
X36179605Y-37482458D01*
X36188304Y-37438313D01*
X36195464Y-37403230D01*
X36200746Y-37378941D01*
X36203808Y-37367177D01*
X36203837Y-37367100D01*
X36211475Y-37347143D01*
X36503628Y-37347143D01*
X36795782Y-37347143D01*
X36803448Y-37367100D01*
X36806496Y-37378676D01*
X36811778Y-37402790D01*
X36818949Y-37437695D01*
X36827662Y-37481646D01*
X36837571Y-37532897D01*
X36848329Y-37589701D01*
X36859222Y-37648314D01*
X36870512Y-37708599D01*
X36881398Y-37764804D01*
X36891523Y-37815221D01*
X36900528Y-37858145D01*
X36908057Y-37891866D01*
X36913749Y-37914679D01*
X36917203Y-37924808D01*
X36927914Y-37933148D01*
X36952314Y-37946247D01*
X36990386Y-37964099D01*
X37042111Y-37986692D01*
X37107471Y-38014021D01*
X37115544Y-38017337D01*
X37164985Y-38037443D01*
X37210432Y-38055602D01*
X37250047Y-38071104D01*
X37281991Y-38083242D01*
X37304428Y-38091307D01*
X37315519Y-38094589D01*
X37315996Y-38094628D01*
X37324468Y-38090637D01*
X37343496Y-38079259D01*
X37371710Y-38061387D01*
X37407746Y-38037912D01*
X37450235Y-38009728D01*
X37497811Y-37977726D01*
X37549107Y-37942800D01*
X37560524Y-37934971D01*
X37613044Y-37899186D01*
X37662131Y-37866264D01*
X37706414Y-37837087D01*
X37744522Y-37812535D01*
X37775084Y-37793489D01*
X37796729Y-37780832D01*
X37808086Y-37775444D01*
X37808922Y-37775314D01*
X37817466Y-37779357D01*
X37833537Y-37791747D01*
X37857551Y-37812870D01*
X37889927Y-37843116D01*
X37931082Y-37882872D01*
X37981435Y-37932526D01*
X38026274Y-37977286D01*
X38077067Y-38028255D01*
X38118481Y-38070018D01*
X38151424Y-38103608D01*
X38176804Y-38130055D01*
X38195531Y-38150393D01*
X38208512Y-38165653D01*
X38216656Y-38176868D01*
X38220873Y-38185071D01*
X38222069Y-38191292D01*
X38221155Y-38196565D01*
X38220617Y-38198083D01*
X38214972Y-38208226D01*
X38202039Y-38228849D01*
X38182784Y-38258493D01*
X38158172Y-38295698D01*
X38129169Y-38339005D01*
X38096740Y-38386955D01*
X38061851Y-38438088D01*
X38060673Y-38439807D01*
X38026060Y-38490577D01*
X37994193Y-38537843D01*
X37965983Y-38580218D01*
X37942339Y-38616310D01*
X37924171Y-38644731D01*
X37912389Y-38664090D01*
X37907903Y-38672997D01*
X37907886Y-38673181D01*
X37910786Y-38684382D01*
X37918874Y-38706640D01*
X37931225Y-38737849D01*
X37946917Y-38775902D01*
X37965028Y-38818690D01*
X37984634Y-38864106D01*
X38004813Y-38910042D01*
X38024642Y-38954392D01*
X38043199Y-38995047D01*
X38059560Y-39029899D01*
X38072803Y-39056842D01*
X38082006Y-39073767D01*
X38085239Y-39078270D01*
X38092323Y-39082899D01*
X38104674Y-39087856D01*
X38123625Y-39093450D01*
X38150511Y-39099986D01*
X38186663Y-39107771D01*
X38233416Y-39117113D01*
X38292101Y-39128319D01*
X38347400Y-39138621D01*
X38420398Y-39152141D01*
X38480420Y-39163352D01*
X38528767Y-39172556D01*
X38566739Y-39180055D01*
X38595639Y-39186152D01*
X38616767Y-39191150D01*
X38631423Y-39195352D01*
X38640910Y-39199061D01*
X38646528Y-39202579D01*
X38649579Y-39206209D01*
X38650996Y-39209272D01*
X38651981Y-39218896D01*
X38652889Y-39241366D01*
X38653693Y-39275012D01*
X38654369Y-39318165D01*
X38654891Y-39369158D01*
X38655233Y-39426321D01*
X38655370Y-39487984D01*
X38655371Y-39495046D01*
X38655371Y-39495046D01*
D10*
X3300000Y-31400000D02*
X3300000Y-30500000D01*
X3300000Y-30500000D02*
X4300000Y-30500000D01*
X4300000Y-33500000D02*
X3300000Y-33500000D01*
X3300000Y-33500000D02*
X3300000Y-32600000D01*
X32942000Y-18558000D02*
X27058000Y-18558000D01*
X27058000Y-18558000D02*
X27058000Y-24442000D01*
X27058000Y-24442000D02*
X32942000Y-24442000D01*
X32942000Y-24442000D02*
X32942000Y-18558000D01*
X32561000Y-23680000D02*
X32180000Y-24061000D01*
X32180000Y-24061000D02*
X31799000Y-23680000D01*
X31799000Y-23680000D02*
X32180000Y-23299000D01*
X32180000Y-23299000D02*
X32561000Y-23680000D01*
X34812500Y-25100000D02*
X34675000Y-25237500D01*
X34675000Y-25237500D02*
X34537500Y-25100000D01*
X34537500Y-25100000D02*
X34675000Y-24962500D01*
X34675000Y-24962500D02*
X34812500Y-25100000D01*
D13*
X2400000Y-17200000D02*
X5200000Y-17200000D01*
X5200000Y-17200000D02*
X5200000Y-24800000D01*
X5200000Y-24800000D02*
X2400000Y-24800000D01*
X15095000Y-7175000D02*
X15095000Y-825000D01*
X15095000Y-825000D02*
X18905000Y-825000D01*
X18905000Y-825000D02*
X18905000Y-7175000D01*
X18905000Y-7175000D02*
X15095000Y-7175000D01*
D10*
X38721000Y-30271000D02*
X38721000Y-29729000D01*
X38721000Y-29729000D02*
X38721000Y-30271000D01*
X37779000Y-30271000D02*
X37779000Y-29729000D01*
X37779000Y-29729000D02*
X37779000Y-30271000D01*
X16771000Y-23029000D02*
X16229000Y-23029000D01*
X16229000Y-23029000D02*
X16771000Y-23029000D01*
X16771000Y-23971000D02*
X16229000Y-23971000D01*
X16229000Y-23971000D02*
X16771000Y-23971000D01*
X16229000Y-21471000D02*
X16771000Y-21471000D01*
X16771000Y-21471000D02*
X16229000Y-21471000D01*
X16229000Y-20529000D02*
X16771000Y-20529000D01*
X16771000Y-20529000D02*
X16229000Y-20529000D01*
X37396000Y-26346000D02*
X37396000Y-25154000D01*
X37396000Y-25154000D02*
X37396000Y-26346000D01*
X36104000Y-26346000D02*
X36104000Y-25154000D01*
X36104000Y-25154000D02*
X36104000Y-26346000D01*
X37729000Y-6471000D02*
X38271000Y-6471000D01*
X38271000Y-6471000D02*
X37729000Y-6471000D01*
X37729000Y-5529000D02*
X38271000Y-5529000D01*
X38271000Y-5529000D02*
X37729000Y-5529000D01*
D13*
X40945000Y-14175000D02*
X32055000Y-14175000D01*
X32055000Y-14175000D02*
X32055000Y-7825000D01*
X32055000Y-7825000D02*
X40945000Y-7825000D01*
X40945000Y-7825000D02*
X40945000Y-14175000D01*
X40945000Y-11000000D02*
X37770000Y-11000000D01*
X37770000Y-11000000D02*
X37770000Y-7825000D01*
D10*
X40945000Y-7190000D02*
X37770000Y-7190000D01*
X14729000Y-41471000D02*
X15271000Y-41471000D01*
X15271000Y-41471000D02*
X14729000Y-41471000D01*
X14729000Y-40529000D02*
X15271000Y-40529000D01*
X15271000Y-40529000D02*
X14729000Y-40529000D01*
X20250000Y-41250000D02*
X19750000Y-41250000D01*
X19750000Y-40750000D02*
X20250000Y-40750000D01*
X18250000Y-40500000D02*
X18250000Y-41500000D01*
X18250000Y-36500000D02*
X18250000Y-37500000D01*
X19750000Y-36750000D02*
X20250000Y-36750000D01*
X20250000Y-37250000D02*
X19750000Y-37250000D01*
X20250000Y-45250000D02*
X19750000Y-45250000D01*
X19750000Y-44750000D02*
X20250000Y-44750000D01*
X18250000Y-44500000D02*
X18250000Y-45500000D01*
D13*
X5000000Y-43250000D02*
X11000000Y-43250000D01*
X11000000Y-43250000D02*
X11000000Y-46750000D01*
X11000000Y-46750000D02*
X5000000Y-46750000D01*
X5000000Y-46750000D02*
X5000000Y-43250000D01*
X6750000Y-44250000D02*
X9250000Y-44250000D01*
X9250000Y-44250000D02*
X9250000Y-45750000D01*
X9250000Y-45750000D02*
X6750000Y-45750000D01*
X6750000Y-45750000D02*
X6750000Y-44250000D01*
X6865001Y-37750000D02*
X6865001Y-36250000D01*
X9365001Y-37750000D02*
X6865001Y-37750000D01*
X9365001Y-36250000D02*
X9365001Y-37750000D01*
X6865001Y-36250000D02*
X9365001Y-36250000D01*
X5115001Y-38750000D02*
X5115001Y-35250000D01*
X11115001Y-38750000D02*
X5115001Y-38750000D01*
X11115001Y-35250000D02*
X11115001Y-38750000D01*
X5115001Y-35250000D02*
X11115001Y-35250000D01*
D10*
X49373000Y-21223000D02*
X51627000Y-21223000D01*
X49373000Y-22777000D02*
X51627000Y-22777000D01*
X48611000Y-20978900D02*
X48738000Y-20851900D01*
X48738000Y-20851900D02*
X48865000Y-20978900D01*
X48865000Y-20978900D02*
X48738000Y-21105900D01*
X48738000Y-21105900D02*
X48611000Y-20978900D01*
X44738000Y-17105900D02*
X44611000Y-16978900D01*
X44865000Y-16978900D02*
X44738000Y-17105900D01*
X44738000Y-16851900D02*
X44865000Y-16978900D01*
X44611000Y-16978900D02*
X44738000Y-16851900D01*
X45373000Y-18777000D02*
X47627000Y-18777000D01*
X45373000Y-17223000D02*
X47627000Y-17223000D01*
X40373000Y-38223000D02*
X42627000Y-38223000D01*
X40373000Y-39777000D02*
X42627000Y-39777000D01*
X39611000Y-37978900D02*
X39738000Y-37851900D01*
X39738000Y-37851900D02*
X39865000Y-37978900D01*
X39865000Y-37978900D02*
X39738000Y-38105900D01*
X39738000Y-38105900D02*
X39611000Y-37978900D01*
X42771000Y-21529000D02*
X42229000Y-21529000D01*
X42229000Y-21529000D02*
X42771000Y-21529000D01*
X42771000Y-22471000D02*
X42229000Y-22471000D01*
X42229000Y-22471000D02*
X42771000Y-22471000D01*
X15146000Y-12596000D02*
X15146000Y-11404000D01*
X15146000Y-11404000D02*
X15146000Y-12596000D01*
X13854000Y-12596000D02*
X13854000Y-11404000D01*
X13854000Y-11404000D02*
X13854000Y-12596000D01*
X10029000Y-16429000D02*
X10029000Y-16571000D01*
X10029000Y-16571000D02*
X10029000Y-16429000D01*
X10971000Y-16429000D02*
X10971000Y-16571000D01*
X10971000Y-16571000D02*
X10971000Y-16429000D01*
X8721000Y-11271000D02*
X8721000Y-10729000D01*
X8721000Y-10729000D02*
X8721000Y-11271000D01*
X7779000Y-11271000D02*
X7779000Y-10729000D01*
X7779000Y-10729000D02*
X7779000Y-11271000D01*
X5529000Y-10729000D02*
X5529000Y-11271000D01*
X5529000Y-11271000D02*
X5529000Y-10729000D01*
X6471000Y-10729000D02*
X6471000Y-11271000D01*
X6471000Y-11271000D02*
X6471000Y-10729000D01*
X49971000Y-30571000D02*
X49971000Y-30429000D01*
X49971000Y-30429000D02*
X49971000Y-30571000D01*
X49029000Y-30571000D02*
X49029000Y-30429000D01*
X49029000Y-30429000D02*
X49029000Y-30571000D01*
X23029000Y-18429000D02*
X23029000Y-18571000D01*
X23029000Y-18571000D02*
X23029000Y-18429000D01*
X23971000Y-18429000D02*
X23971000Y-18571000D01*
X23971000Y-18571000D02*
X23971000Y-18429000D01*
X45429000Y-35471000D02*
X45571000Y-35471000D01*
X45571000Y-35471000D02*
X45429000Y-35471000D01*
X45429000Y-34529000D02*
X45571000Y-34529000D01*
X45571000Y-34529000D02*
X45429000Y-34529000D01*
X41471000Y-30571000D02*
X41471000Y-30429000D01*
X41471000Y-30429000D02*
X41471000Y-30571000D01*
X40529000Y-30571000D02*
X40529000Y-30429000D01*
X40529000Y-30429000D02*
X40529000Y-30571000D01*
X49029000Y-26429000D02*
X49029000Y-26571000D01*
X49029000Y-26571000D02*
X49029000Y-26429000D01*
X49971000Y-26429000D02*
X49971000Y-26571000D01*
X49971000Y-26571000D02*
X49971000Y-26429000D01*
X16330900Y-14897000D02*
X16203900Y-15024000D01*
X16203900Y-14770000D02*
X16330900Y-14897000D01*
X16076900Y-14897000D02*
X16203900Y-14770000D01*
X16203900Y-15024000D02*
X16076900Y-14897000D01*
X18927000Y-8738000D02*
X18631000Y-8738000D01*
X18927000Y-14262000D02*
X18927000Y-8738000D01*
X18631000Y-14262000D02*
X18927000Y-14262000D01*
X16073000Y-8738000D02*
X16369000Y-8738000D01*
X16073000Y-14262000D02*
X16073000Y-8738000D01*
X16369000Y-14262000D02*
X16073000Y-14262000D01*
X24631000Y-2738000D02*
X24927000Y-2738000D01*
X24927000Y-2738000D02*
X24927000Y-8262000D01*
X24927000Y-8262000D02*
X24631000Y-8262000D01*
X22369000Y-2738000D02*
X22073000Y-2738000D01*
X22073000Y-2738000D02*
X22073000Y-8262000D01*
X22073000Y-8262000D02*
X22369000Y-8262000D01*
X24796100Y-1976000D02*
X24923100Y-2103000D01*
X24923100Y-2103000D02*
X24796100Y-2230000D01*
X24796100Y-2230000D02*
X24669100Y-2103000D01*
X24669100Y-2103000D02*
X24796100Y-1976000D01*
X45771000Y-38529000D02*
X45229000Y-38529000D01*
X45229000Y-38529000D02*
X45771000Y-38529000D01*
X45771000Y-39471000D02*
X45229000Y-39471000D01*
X45229000Y-39471000D02*
X45771000Y-39471000D01*
X41229000Y-35471000D02*
X41771000Y-35471000D01*
X41771000Y-35471000D02*
X41229000Y-35471000D01*
X41229000Y-34529000D02*
X41771000Y-34529000D01*
X41771000Y-34529000D02*
X41229000Y-34529000D01*
X41471000Y-26771000D02*
X41471000Y-26229000D01*
X41471000Y-26229000D02*
X41471000Y-26771000D01*
X40529000Y-26771000D02*
X40529000Y-26229000D01*
X40529000Y-26229000D02*
X40529000Y-26771000D01*
X55271000Y-24029000D02*
X54729000Y-24029000D01*
X54729000Y-24029000D02*
X55271000Y-24029000D01*
X55271000Y-24971000D02*
X54729000Y-24971000D01*
X54729000Y-24971000D02*
X55271000Y-24971000D01*
X38771000Y-21529000D02*
X38229000Y-21529000D01*
X38229000Y-21529000D02*
X38771000Y-21529000D01*
X38771000Y-22471000D02*
X38229000Y-22471000D01*
X38229000Y-22471000D02*
X38771000Y-22471000D01*
X46771000Y-21529000D02*
X46229000Y-21529000D01*
X46229000Y-21529000D02*
X46771000Y-21529000D01*
X46771000Y-22471000D02*
X46229000Y-22471000D01*
X46229000Y-22471000D02*
X46771000Y-22471000D01*
X52471000Y-26771000D02*
X52471000Y-26229000D01*
X52471000Y-26229000D02*
X52471000Y-26771000D01*
X51529000Y-26771000D02*
X51529000Y-26229000D01*
X51529000Y-26229000D02*
X51529000Y-26771000D01*
X19354000Y-21779000D02*
X19354000Y-23221000D01*
X19354000Y-23221000D02*
X19354000Y-21779000D01*
X20646000Y-21779000D02*
X20646000Y-23221000D01*
X20646000Y-23221000D02*
X20646000Y-21779000D01*
X47500000Y-29917000D02*
X47500000Y-27083000D01*
X47500000Y-27083000D02*
X42500000Y-27083000D01*
X42500000Y-27083000D02*
X42500000Y-29917000D01*
X42500000Y-29917000D02*
X47500000Y-29917000D01*
X47759000Y-25152000D02*
X47886000Y-25279000D01*
X47886000Y-25279000D02*
X47759000Y-25406000D01*
X47759000Y-25406000D02*
X47632000Y-25279000D01*
X47632000Y-25279000D02*
X47759000Y-25152000D01*
X46992000Y-27210000D02*
X47373000Y-27591000D01*
X47373000Y-27591000D02*
X46992000Y-27972000D01*
X46992000Y-27972000D02*
X46611000Y-27591000D01*
X46611000Y-27591000D02*
X46992000Y-27210000D01*
X54300000Y-20400000D02*
X54300000Y-19500000D01*
X54300000Y-19500000D02*
X55300000Y-19500000D01*
X55300000Y-22500000D02*
X54300000Y-22500000D01*
X54300000Y-22500000D02*
X54300000Y-21600000D01*
X18100000Y-16800000D02*
X19000000Y-16800000D01*
X19000000Y-16800000D02*
X19000000Y-17800000D01*
X16000000Y-17800000D02*
X16000000Y-16800000D01*
X16000000Y-16800000D02*
X16900000Y-16800000D01*
X51952380Y-35583333D02*
X52666666Y-35583333D01*
X52809523Y-35630952D01*
X52904761Y-35726190D01*
X52952380Y-35869047D01*
X52952380Y-35964285D01*
X52952380Y-35107142D02*
X51952380Y-35107142D01*
X51952380Y-34726190D01*
X52000000Y-34630952D01*
X52047619Y-34583333D01*
X52142857Y-34535714D01*
X52285714Y-34535714D01*
X52380952Y-34583333D01*
X52428571Y-34630952D01*
X52476190Y-34726190D01*
X52476190Y-35107142D01*
X52952380Y-33583333D02*
X52952380Y-34154761D01*
X52952380Y-33869047D02*
X51952380Y-33869047D01*
X52095238Y-33964285D01*
X52190476Y-34059523D01*
X52238095Y-34154761D01*
X52047619Y-42785714D02*
X52000000Y-42738095D01*
X51952380Y-42642857D01*
X51952380Y-42404761D01*
X52000000Y-42309523D01*
X52047619Y-42261904D01*
X52142857Y-42214285D01*
X52238095Y-42214285D01*
X52380952Y-42261904D01*
X52952380Y-42833333D01*
X52952380Y-42214285D01*
X52666666Y-41833333D02*
X52666666Y-41357142D01*
X52952380Y-41928571D02*
X51952380Y-41595238D01*
X52952380Y-41261904D01*
X52952380Y-40928571D02*
X51952380Y-40928571D01*
X52666666Y-40595238D01*
X51952380Y-40261904D01*
X52952380Y-40261904D01*
X52952380Y-39785714D02*
X51952380Y-39785714D01*
X51952380Y-39404761D01*
X52000000Y-39309523D01*
X52047619Y-39261904D01*
X52142857Y-39214285D01*
X52285714Y-39214285D01*
X52380952Y-39261904D01*
X52428571Y-39309523D01*
X52476190Y-39404761D01*
X52476190Y-39785714D01*
X54202380Y-35833333D02*
X54916666Y-35833333D01*
X55059523Y-35880952D01*
X55154761Y-35976190D01*
X55202380Y-36119047D01*
X55202380Y-36214285D01*
X55202380Y-35357142D02*
X54202380Y-35357142D01*
X54202380Y-34976190D01*
X54250000Y-34880952D01*
X54297619Y-34833333D01*
X54392857Y-34785714D01*
X54535714Y-34785714D01*
X54630952Y-34833333D01*
X54678571Y-34880952D01*
X54726190Y-34976190D01*
X54726190Y-35357142D01*
X54297619Y-34404761D02*
X54250000Y-34357142D01*
X54202380Y-34261904D01*
X54202380Y-34023809D01*
X54250000Y-33928571D01*
X54297619Y-33880952D01*
X54392857Y-33833333D01*
X54488095Y-33833333D01*
X54630952Y-33880952D01*
X55202380Y-34452380D01*
X55202380Y-33833333D01*
X55452380Y-42214285D02*
X55452380Y-42785714D01*
X55452380Y-42500000D02*
X54452380Y-42500000D01*
X54595238Y-42595238D01*
X54690476Y-42690476D01*
X54738095Y-42785714D01*
X55166666Y-41833333D02*
X55166666Y-41357142D01*
X55452380Y-41928571D02*
X54452380Y-41595238D01*
X55452380Y-41261904D01*
X55452380Y-40928571D02*
X54452380Y-40928571D01*
X55166666Y-40595238D01*
X54452380Y-40261904D01*
X55452380Y-40261904D01*
X55452380Y-39785714D02*
X54452380Y-39785714D01*
X54452380Y-39404761D01*
X54500000Y-39309523D01*
X54547619Y-39261904D01*
X54642857Y-39214285D01*
X54785714Y-39214285D01*
X54880952Y-39261904D01*
X54928571Y-39309523D01*
X54976190Y-39404761D01*
X54976190Y-39785714D01*
X4140476Y-15061904D02*
X4140476Y-15709523D01*
X4178571Y-15785714D01*
X4216666Y-15823809D01*
X4292857Y-15861904D01*
X4445238Y-15861904D01*
X4521428Y-15823809D01*
X4559523Y-15785714D01*
X4597619Y-15709523D01*
X4597619Y-15061904D01*
X4902380Y-15061904D02*
X5397619Y-15061904D01*
X5130952Y-15366666D01*
X5245238Y-15366666D01*
X5321428Y-15404761D01*
X5359523Y-15442857D01*
X5397619Y-15519047D01*
X5397619Y-15709523D01*
X5359523Y-15785714D01*
X5321428Y-15823809D01*
X5245238Y-15861904D01*
X5016666Y-15861904D01*
X4940476Y-15823809D01*
X4902380Y-15785714D01*
X19311904Y-33516666D02*
X19883333Y-33516666D01*
X19997619Y-33554761D01*
X20073809Y-33630952D01*
X20111904Y-33745238D01*
X20111904Y-33821428D01*
X19311904Y-32754761D02*
X19311904Y-33135714D01*
X19692857Y-33173809D01*
X19654761Y-33135714D01*
X19616666Y-33059523D01*
X19616666Y-32869047D01*
X19654761Y-32792857D01*
X19692857Y-32754761D01*
X19769047Y-32716666D01*
X19959523Y-32716666D01*
X20035714Y-32754761D01*
X20073809Y-32792857D01*
X20111904Y-32869047D01*
X20111904Y-33059523D01*
X20073809Y-33135714D01*
X20035714Y-33173809D01*
X19311904Y-31776190D02*
X19959523Y-31776190D01*
X20035714Y-31738095D01*
X20073809Y-31700000D01*
X20111904Y-31623809D01*
X20111904Y-31471428D01*
X20073809Y-31395238D01*
X20035714Y-31357142D01*
X19959523Y-31319047D01*
X19311904Y-31319047D01*
X19883333Y-30976190D02*
X19883333Y-30595238D01*
X20111904Y-31052380D02*
X19311904Y-30785714D01*
X20111904Y-30519047D01*
X20111904Y-29795238D02*
X19730952Y-30061904D01*
X20111904Y-30252380D02*
X19311904Y-30252380D01*
X19311904Y-29947619D01*
X19350000Y-29871428D01*
X19388095Y-29833333D01*
X19464285Y-29795238D01*
X19578571Y-29795238D01*
X19654761Y-29833333D01*
X19692857Y-29871428D01*
X19730952Y-29947619D01*
X19730952Y-30252380D01*
X19311904Y-29566666D02*
X19311904Y-29109523D01*
X20111904Y-29338095D02*
X19311904Y-29338095D01*
X40985714Y-2785714D02*
X40947619Y-2823809D01*
X40833333Y-2861904D01*
X40757142Y-2861904D01*
X40642857Y-2823809D01*
X40566666Y-2747619D01*
X40528571Y-2671428D01*
X40490476Y-2519047D01*
X40490476Y-2404761D01*
X40528571Y-2252380D01*
X40566666Y-2176190D01*
X40642857Y-2100000D01*
X40757142Y-2061904D01*
X40833333Y-2061904D01*
X40947619Y-2100000D01*
X40985714Y-2138095D01*
X41747619Y-2861904D02*
X41290476Y-2861904D01*
X41519047Y-2861904D02*
X41519047Y-2061904D01*
X41442857Y-2176190D01*
X41366666Y-2252380D01*
X41290476Y-2290476D01*
X42052380Y-2138095D02*
X42090476Y-2100000D01*
X42166666Y-2061904D01*
X42357142Y-2061904D01*
X42433333Y-2100000D01*
X42471428Y-2138095D01*
X42509523Y-2214285D01*
X42509523Y-2290476D01*
X42471428Y-2404761D01*
X42014285Y-2861904D01*
X42509523Y-2861904D01*
X43985714Y-10535714D02*
X43947619Y-10573809D01*
X43833333Y-10611904D01*
X43757142Y-10611904D01*
X43642857Y-10573809D01*
X43566666Y-10497619D01*
X43528571Y-10421428D01*
X43490476Y-10269047D01*
X43490476Y-10154761D01*
X43528571Y-10002380D01*
X43566666Y-9926190D01*
X43642857Y-9850000D01*
X43757142Y-9811904D01*
X43833333Y-9811904D01*
X43947619Y-9850000D01*
X43985714Y-9888095D01*
X44747619Y-10611904D02*
X44290476Y-10611904D01*
X44519047Y-10611904D02*
X44519047Y-9811904D01*
X44442857Y-9926190D01*
X44366666Y-10002380D01*
X44290476Y-10040476D01*
X45014285Y-9811904D02*
X45509523Y-9811904D01*
X45242857Y-10116666D01*
X45357142Y-10116666D01*
X45433333Y-10154761D01*
X45471428Y-10192857D01*
X45509523Y-10269047D01*
X45509523Y-10459523D01*
X45471428Y-10535714D01*
X45433333Y-10573809D01*
X45357142Y-10611904D01*
X45128571Y-10611904D01*
X45052380Y-10573809D01*
X45014285Y-10535714D01*
X43909523Y-2611904D02*
X43909523Y-1811904D01*
X44100000Y-1811904D01*
X44214285Y-1850000D01*
X44290476Y-1926190D01*
X44328571Y-2002380D01*
X44366666Y-2154761D01*
X44366666Y-2269047D01*
X44328571Y-2421428D01*
X44290476Y-2497619D01*
X44214285Y-2573809D01*
X44100000Y-2611904D01*
X43909523Y-2611904D01*
X44633333Y-1811904D02*
X45128571Y-1811904D01*
X44861904Y-2116666D01*
X44976190Y-2116666D01*
X45052380Y-2154761D01*
X45090476Y-2192857D01*
X45128571Y-2269047D01*
X45128571Y-2459523D01*
X45090476Y-2535714D01*
X45052380Y-2573809D01*
X44976190Y-2611904D01*
X44747619Y-2611904D01*
X44671428Y-2573809D01*
X44633333Y-2535714D01*
X3923809Y-29938095D02*
X3847619Y-29900000D01*
X3771428Y-29823809D01*
X3657142Y-29709523D01*
X3580952Y-29671428D01*
X3504761Y-29671428D01*
X3542857Y-29861904D02*
X3466666Y-29823809D01*
X3390476Y-29747619D01*
X3352380Y-29595238D01*
X3352380Y-29328571D01*
X3390476Y-29176190D01*
X3466666Y-29100000D01*
X3542857Y-29061904D01*
X3695238Y-29061904D01*
X3771428Y-29100000D01*
X3847619Y-29176190D01*
X3885714Y-29328571D01*
X3885714Y-29595238D01*
X3847619Y-29747619D01*
X3771428Y-29823809D01*
X3695238Y-29861904D01*
X3542857Y-29861904D01*
X4152380Y-29061904D02*
X4647619Y-29061904D01*
X4380952Y-29366666D01*
X4495238Y-29366666D01*
X4571428Y-29404761D01*
X4609523Y-29442857D01*
X4647619Y-29519047D01*
X4647619Y-29709523D01*
X4609523Y-29785714D01*
X4571428Y-29823809D01*
X4495238Y-29861904D01*
X4266666Y-29861904D01*
X4190476Y-29823809D01*
X4152380Y-29785714D01*
X32890476Y-27061904D02*
X32890476Y-27709523D01*
X32928571Y-27785714D01*
X32966666Y-27823809D01*
X33042857Y-27861904D01*
X33195238Y-27861904D01*
X33271428Y-27823809D01*
X33309523Y-27785714D01*
X33347619Y-27709523D01*
X33347619Y-27061904D01*
X34147619Y-27861904D02*
X33690476Y-27861904D01*
X33919047Y-27861904D02*
X33919047Y-27061904D01*
X33842857Y-27176190D01*
X33766666Y-27252380D01*
X33690476Y-27290476D01*
X6702380Y-24095238D02*
X6226190Y-24428571D01*
X6702380Y-24666666D02*
X5702380Y-24666666D01*
X5702380Y-24285714D01*
X5750000Y-24190476D01*
X5797619Y-24142857D01*
X5892857Y-24095238D01*
X6035714Y-24095238D01*
X6130952Y-24142857D01*
X6178571Y-24190476D01*
X6226190Y-24285714D01*
X6226190Y-24666666D01*
X5702380Y-23809523D02*
X6702380Y-23476190D01*
X5702380Y-23142857D01*
X6702380Y-22285714D02*
X6702380Y-22857142D01*
X6702380Y-22571428D02*
X5702380Y-22571428D01*
X5845238Y-22666666D01*
X5940476Y-22761904D01*
X5988095Y-22857142D01*
X7733333Y-1061904D02*
X7733333Y-1633333D01*
X7695238Y-1747619D01*
X7619047Y-1823809D01*
X7504761Y-1861904D01*
X7428571Y-1861904D01*
X8533333Y-1861904D02*
X8076190Y-1861904D01*
X8304761Y-1861904D02*
X8304761Y-1061904D01*
X8228571Y-1176190D01*
X8152380Y-1252380D01*
X8076190Y-1290476D01*
X38611904Y-33764285D02*
X38230952Y-34030952D01*
X38611904Y-34221428D02*
X37811904Y-34221428D01*
X37811904Y-33916666D01*
X37850000Y-33840476D01*
X37888095Y-33802380D01*
X37964285Y-33764285D01*
X38078571Y-33764285D01*
X38154761Y-33802380D01*
X38192857Y-33840476D01*
X38230952Y-33916666D01*
X38230952Y-34221428D01*
X38611904Y-33002380D02*
X38611904Y-33459523D01*
X38611904Y-33230952D02*
X37811904Y-33230952D01*
X37926190Y-33307142D01*
X38002380Y-33383333D01*
X38040476Y-33459523D01*
X37811904Y-32278571D02*
X37811904Y-32659523D01*
X38192857Y-32697619D01*
X38154761Y-32659523D01*
X38116666Y-32583333D01*
X38116666Y-32392857D01*
X38154761Y-32316666D01*
X38192857Y-32278571D01*
X38269047Y-32240476D01*
X38459523Y-32240476D01*
X38535714Y-32278571D01*
X38573809Y-32316666D01*
X38611904Y-32392857D01*
X38611904Y-32583333D01*
X38573809Y-32659523D01*
X38535714Y-32697619D01*
X13116666Y-23861904D02*
X12850000Y-23480952D01*
X12659523Y-23861904D02*
X12659523Y-23061904D01*
X12964285Y-23061904D01*
X13040476Y-23100000D01*
X13078571Y-23138095D01*
X13116666Y-23214285D01*
X13116666Y-23328571D01*
X13078571Y-23404761D01*
X13040476Y-23442857D01*
X12964285Y-23480952D01*
X12659523Y-23480952D01*
X13878571Y-23861904D02*
X13421428Y-23861904D01*
X13650000Y-23861904D02*
X13650000Y-23061904D01*
X13573809Y-23176190D01*
X13497619Y-23252380D01*
X13421428Y-23290476D01*
X12735714Y-21361904D02*
X12469047Y-20980952D01*
X12278571Y-21361904D02*
X12278571Y-20561904D01*
X12583333Y-20561904D01*
X12659523Y-20600000D01*
X12697619Y-20638095D01*
X12735714Y-20714285D01*
X12735714Y-20828571D01*
X12697619Y-20904761D01*
X12659523Y-20942857D01*
X12583333Y-20980952D01*
X12278571Y-20980952D01*
X13497619Y-21361904D02*
X13040476Y-21361904D01*
X13269047Y-21361904D02*
X13269047Y-20561904D01*
X13192857Y-20676190D01*
X13116666Y-20752380D01*
X13040476Y-20790476D01*
X14183333Y-20561904D02*
X14030952Y-20561904D01*
X13954761Y-20600000D01*
X13916666Y-20638095D01*
X13840476Y-20752380D01*
X13802380Y-20904761D01*
X13802380Y-21209523D01*
X13840476Y-21285714D01*
X13878571Y-21323809D01*
X13954761Y-21361904D01*
X14107142Y-21361904D01*
X14183333Y-21323809D01*
X14221428Y-21285714D01*
X14259523Y-21209523D01*
X14259523Y-21019047D01*
X14221428Y-20942857D01*
X14183333Y-20904761D01*
X14107142Y-20866666D01*
X13954761Y-20866666D01*
X13878571Y-20904761D01*
X13840476Y-20942857D01*
X13802380Y-21019047D01*
X38785714Y-26264285D02*
X38823809Y-26302380D01*
X38861904Y-26416666D01*
X38861904Y-26492857D01*
X38823809Y-26607142D01*
X38747619Y-26683333D01*
X38671428Y-26721428D01*
X38519047Y-26759523D01*
X38404761Y-26759523D01*
X38252380Y-26721428D01*
X38176190Y-26683333D01*
X38100000Y-26607142D01*
X38061904Y-26492857D01*
X38061904Y-26416666D01*
X38100000Y-26302380D01*
X38138095Y-26264285D01*
X38861904Y-25502380D02*
X38861904Y-25959523D01*
X38861904Y-25730952D02*
X38061904Y-25730952D01*
X38176190Y-25807142D01*
X38252380Y-25883333D01*
X38290476Y-25959523D01*
X38061904Y-25007142D02*
X38061904Y-24930952D01*
X38100000Y-24854761D01*
X38138095Y-24816666D01*
X38214285Y-24778571D01*
X38366666Y-24740476D01*
X38557142Y-24740476D01*
X38709523Y-24778571D01*
X38785714Y-24816666D01*
X38823809Y-24854761D01*
X38861904Y-24930952D01*
X38861904Y-25007142D01*
X38823809Y-25083333D01*
X38785714Y-25121428D01*
X38709523Y-25159523D01*
X38557142Y-25197619D01*
X38366666Y-25197619D01*
X38214285Y-25159523D01*
X38138095Y-25121428D01*
X38100000Y-25083333D01*
X38061904Y-25007142D01*
X37485714Y-4611904D02*
X37219047Y-4230952D01*
X37028571Y-4611904D02*
X37028571Y-3811904D01*
X37333333Y-3811904D01*
X37409523Y-3850000D01*
X37447619Y-3888095D01*
X37485714Y-3964285D01*
X37485714Y-4078571D01*
X37447619Y-4154761D01*
X37409523Y-4192857D01*
X37333333Y-4230952D01*
X37028571Y-4230952D01*
X38247619Y-4611904D02*
X37790476Y-4611904D01*
X38019047Y-4611904D02*
X38019047Y-3811904D01*
X37942857Y-3926190D01*
X37866666Y-4002380D01*
X37790476Y-4040476D01*
X38933333Y-4078571D02*
X38933333Y-4611904D01*
X38742857Y-3773809D02*
X38552380Y-4345238D01*
X39047619Y-4345238D01*
X33733333Y-14811904D02*
X33733333Y-15383333D01*
X33695238Y-15497619D01*
X33619047Y-15573809D01*
X33504761Y-15611904D01*
X33428571Y-15611904D01*
X34076190Y-14888095D02*
X34114285Y-14850000D01*
X34190476Y-14811904D01*
X34380952Y-14811904D01*
X34457142Y-14850000D01*
X34495238Y-14888095D01*
X34533333Y-14964285D01*
X34533333Y-15040476D01*
X34495238Y-15154761D01*
X34038095Y-15611904D01*
X34533333Y-15611904D01*
X37450000Y-15611904D02*
X37450000Y-14811904D01*
X37754761Y-14811904D01*
X37830952Y-14850000D01*
X37869047Y-14888095D01*
X37907142Y-14964285D01*
X37907142Y-15078571D01*
X37869047Y-15154761D01*
X37830952Y-15192857D01*
X37754761Y-15230952D01*
X37450000Y-15230952D01*
X38250000Y-15611904D02*
X38250000Y-14811904D01*
X38440476Y-14811904D01*
X38554761Y-14850000D01*
X38630952Y-14926190D01*
X38669047Y-15002380D01*
X38707142Y-15154761D01*
X38707142Y-15269047D01*
X38669047Y-15421428D01*
X38630952Y-15497619D01*
X38554761Y-15573809D01*
X38440476Y-15611904D01*
X38250000Y-15611904D01*
X39050000Y-15611904D02*
X39050000Y-14811904D01*
X14485714Y-43111904D02*
X14219047Y-42730952D01*
X14028571Y-43111904D02*
X14028571Y-42311904D01*
X14333333Y-42311904D01*
X14409523Y-42350000D01*
X14447619Y-42388095D01*
X14485714Y-42464285D01*
X14485714Y-42578571D01*
X14447619Y-42654761D01*
X14409523Y-42692857D01*
X14333333Y-42730952D01*
X14028571Y-42730952D01*
X15247619Y-43111904D02*
X14790476Y-43111904D01*
X15019047Y-43111904D02*
X15019047Y-42311904D01*
X14942857Y-42426190D01*
X14866666Y-42502380D01*
X14790476Y-42540476D01*
X15514285Y-42311904D02*
X16009523Y-42311904D01*
X15742857Y-42616666D01*
X15857142Y-42616666D01*
X15933333Y-42654761D01*
X15971428Y-42692857D01*
X16009523Y-42769047D01*
X16009523Y-42959523D01*
X15971428Y-43035714D01*
X15933333Y-43073809D01*
X15857142Y-43111904D01*
X15628571Y-43111904D01*
X15552380Y-43073809D01*
X15514285Y-43035714D01*
X19028571Y-42861904D02*
X19028571Y-42061904D01*
X19219047Y-42061904D01*
X19333333Y-42100000D01*
X19409523Y-42176190D01*
X19447619Y-42252380D01*
X19485714Y-42404761D01*
X19485714Y-42519047D01*
X19447619Y-42671428D01*
X19409523Y-42747619D01*
X19333333Y-42823809D01*
X19219047Y-42861904D01*
X19028571Y-42861904D01*
X19790476Y-42823809D02*
X19904761Y-42861904D01*
X20095238Y-42861904D01*
X20171428Y-42823809D01*
X20209523Y-42785714D01*
X20247619Y-42709523D01*
X20247619Y-42633333D01*
X20209523Y-42557142D01*
X20171428Y-42519047D01*
X20095238Y-42480952D01*
X19942857Y-42442857D01*
X19866666Y-42404761D01*
X19828571Y-42366666D01*
X19790476Y-42290476D01*
X19790476Y-42214285D01*
X19828571Y-42138095D01*
X19866666Y-42100000D01*
X19942857Y-42061904D01*
X20133333Y-42061904D01*
X20247619Y-42100000D01*
X20552380Y-42138095D02*
X20590476Y-42100000D01*
X20666666Y-42061904D01*
X20857142Y-42061904D01*
X20933333Y-42100000D01*
X20971428Y-42138095D01*
X21009523Y-42214285D01*
X21009523Y-42290476D01*
X20971428Y-42404761D01*
X20514285Y-42861904D01*
X21009523Y-42861904D01*
X19028571Y-38861904D02*
X19028571Y-38061904D01*
X19219047Y-38061904D01*
X19333333Y-38100000D01*
X19409523Y-38176190D01*
X19447619Y-38252380D01*
X19485714Y-38404761D01*
X19485714Y-38519047D01*
X19447619Y-38671428D01*
X19409523Y-38747619D01*
X19333333Y-38823809D01*
X19219047Y-38861904D01*
X19028571Y-38861904D01*
X19790476Y-38823809D02*
X19904761Y-38861904D01*
X20095238Y-38861904D01*
X20171428Y-38823809D01*
X20209523Y-38785714D01*
X20247619Y-38709523D01*
X20247619Y-38633333D01*
X20209523Y-38557142D01*
X20171428Y-38519047D01*
X20095238Y-38480952D01*
X19942857Y-38442857D01*
X19866666Y-38404761D01*
X19828571Y-38366666D01*
X19790476Y-38290476D01*
X19790476Y-38214285D01*
X19828571Y-38138095D01*
X19866666Y-38100000D01*
X19942857Y-38061904D01*
X20133333Y-38061904D01*
X20247619Y-38100000D01*
X21009523Y-38861904D02*
X20552380Y-38861904D01*
X20780952Y-38861904D02*
X20780952Y-38061904D01*
X20704761Y-38176190D01*
X20628571Y-38252380D01*
X20552380Y-38290476D01*
X19028571Y-46861904D02*
X19028571Y-46061904D01*
X19219047Y-46061904D01*
X19333333Y-46100000D01*
X19409523Y-46176190D01*
X19447619Y-46252380D01*
X19485714Y-46404761D01*
X19485714Y-46519047D01*
X19447619Y-46671428D01*
X19409523Y-46747619D01*
X19333333Y-46823809D01*
X19219047Y-46861904D01*
X19028571Y-46861904D01*
X19790476Y-46823809D02*
X19904761Y-46861904D01*
X20095238Y-46861904D01*
X20171428Y-46823809D01*
X20209523Y-46785714D01*
X20247619Y-46709523D01*
X20247619Y-46633333D01*
X20209523Y-46557142D01*
X20171428Y-46519047D01*
X20095238Y-46480952D01*
X19942857Y-46442857D01*
X19866666Y-46404761D01*
X19828571Y-46366666D01*
X19790476Y-46290476D01*
X19790476Y-46214285D01*
X19828571Y-46138095D01*
X19866666Y-46100000D01*
X19942857Y-46061904D01*
X20133333Y-46061904D01*
X20247619Y-46100000D01*
X20514285Y-46061904D02*
X21009523Y-46061904D01*
X20742857Y-46366666D01*
X20857142Y-46366666D01*
X20933333Y-46404761D01*
X20971428Y-46442857D01*
X21009523Y-46519047D01*
X21009523Y-46709523D01*
X20971428Y-46785714D01*
X20933333Y-46823809D01*
X20857142Y-46861904D01*
X20628571Y-46861904D01*
X20552380Y-46823809D01*
X20514285Y-46785714D01*
X7238095Y-41561904D02*
X7390476Y-41561904D01*
X7466666Y-41600000D01*
X7542857Y-41676190D01*
X7580952Y-41828571D01*
X7580952Y-42095238D01*
X7542857Y-42247619D01*
X7466666Y-42323809D01*
X7390476Y-42361904D01*
X7238095Y-42361904D01*
X7161904Y-42323809D01*
X7085714Y-42247619D01*
X7047619Y-42095238D01*
X7047619Y-41828571D01*
X7085714Y-41676190D01*
X7161904Y-41600000D01*
X7238095Y-41561904D01*
X8190476Y-41942857D02*
X7923809Y-41942857D01*
X7923809Y-42361904D02*
X7923809Y-41561904D01*
X8304761Y-41561904D01*
X8876190Y-41942857D02*
X8609523Y-41942857D01*
X8609523Y-42361904D02*
X8609523Y-41561904D01*
X8990476Y-41561904D01*
X6661904Y-33561904D02*
X6814285Y-33561904D01*
X6890476Y-33600000D01*
X6966666Y-33676190D01*
X7004761Y-33828571D01*
X7004761Y-34095238D01*
X6966666Y-34247619D01*
X6890476Y-34323809D01*
X6814285Y-34361904D01*
X6661904Y-34361904D01*
X6585714Y-34323809D01*
X6509523Y-34247619D01*
X6471428Y-34095238D01*
X6471428Y-33828571D01*
X6509523Y-33676190D01*
X6585714Y-33600000D01*
X6661904Y-33561904D01*
X7347619Y-34361904D02*
X7347619Y-33561904D01*
X7804761Y-34361904D01*
X7804761Y-33561904D01*
X8757142Y-33523809D02*
X8071428Y-34552380D01*
X9480952Y-34361904D02*
X9214285Y-33980952D01*
X9023809Y-34361904D02*
X9023809Y-33561904D01*
X9328571Y-33561904D01*
X9404761Y-33600000D01*
X9442857Y-33638095D01*
X9480952Y-33714285D01*
X9480952Y-33828571D01*
X9442857Y-33904761D01*
X9404761Y-33942857D01*
X9328571Y-33980952D01*
X9023809Y-33980952D01*
X9785714Y-34133333D02*
X10166666Y-34133333D01*
X9709523Y-34361904D02*
X9976190Y-33561904D01*
X10242857Y-34361904D01*
X10509523Y-34361904D02*
X10509523Y-33561904D01*
X10966666Y-34361904D01*
X10966666Y-33561904D01*
X11766666Y-33600000D02*
X11690476Y-33561904D01*
X11576190Y-33561904D01*
X11461904Y-33600000D01*
X11385714Y-33676190D01*
X11347619Y-33752380D01*
X11309523Y-33904761D01*
X11309523Y-34019047D01*
X11347619Y-34171428D01*
X11385714Y-34247619D01*
X11461904Y-34323809D01*
X11576190Y-34361904D01*
X11652380Y-34361904D01*
X11766666Y-34323809D01*
X11804761Y-34285714D01*
X11804761Y-34019047D01*
X11652380Y-34019047D01*
X12147619Y-33942857D02*
X12414285Y-33942857D01*
X12528571Y-34361904D02*
X12147619Y-34361904D01*
X12147619Y-33561904D01*
X12528571Y-33561904D01*
X50366666Y-20785714D02*
X50328571Y-20823809D01*
X50214285Y-20861904D01*
X50138095Y-20861904D01*
X50023809Y-20823809D01*
X49947619Y-20747619D01*
X49909523Y-20671428D01*
X49871428Y-20519047D01*
X49871428Y-20404761D01*
X49909523Y-20252380D01*
X49947619Y-20176190D01*
X50023809Y-20100000D01*
X50138095Y-20061904D01*
X50214285Y-20061904D01*
X50328571Y-20100000D01*
X50366666Y-20138095D01*
X50671428Y-20138095D02*
X50709523Y-20100000D01*
X50785714Y-20061904D01*
X50976190Y-20061904D01*
X51052380Y-20100000D01*
X51090476Y-20138095D01*
X51128571Y-20214285D01*
X51128571Y-20290476D01*
X51090476Y-20404761D01*
X50633333Y-20861904D01*
X51128571Y-20861904D01*
X46366666Y-16785714D02*
X46328571Y-16823809D01*
X46214285Y-16861904D01*
X46138095Y-16861904D01*
X46023809Y-16823809D01*
X45947619Y-16747619D01*
X45909523Y-16671428D01*
X45871428Y-16519047D01*
X45871428Y-16404761D01*
X45909523Y-16252380D01*
X45947619Y-16176190D01*
X46023809Y-16100000D01*
X46138095Y-16061904D01*
X46214285Y-16061904D01*
X46328571Y-16100000D01*
X46366666Y-16138095D01*
X47128571Y-16861904D02*
X46671428Y-16861904D01*
X46900000Y-16861904D02*
X46900000Y-16061904D01*
X46823809Y-16176190D01*
X46747619Y-16252380D01*
X46671428Y-16290476D01*
X41366666Y-40785714D02*
X41328571Y-40823809D01*
X41214285Y-40861904D01*
X41138095Y-40861904D01*
X41023809Y-40823809D01*
X40947619Y-40747619D01*
X40909523Y-40671428D01*
X40871428Y-40519047D01*
X40871428Y-40404761D01*
X40909523Y-40252380D01*
X40947619Y-40176190D01*
X41023809Y-40100000D01*
X41138095Y-40061904D01*
X41214285Y-40061904D01*
X41328571Y-40100000D01*
X41366666Y-40138095D01*
X42052380Y-40328571D02*
X42052380Y-40861904D01*
X41861904Y-40023809D02*
X41671428Y-40595238D01*
X42166666Y-40595238D01*
X41985714Y-20861904D02*
X41719047Y-20480952D01*
X41528571Y-20861904D02*
X41528571Y-20061904D01*
X41833333Y-20061904D01*
X41909523Y-20100000D01*
X41947619Y-20138095D01*
X41985714Y-20214285D01*
X41985714Y-20328571D01*
X41947619Y-20404761D01*
X41909523Y-20442857D01*
X41833333Y-20480952D01*
X41528571Y-20480952D01*
X42747619Y-20861904D02*
X42290476Y-20861904D01*
X42519047Y-20861904D02*
X42519047Y-20061904D01*
X42442857Y-20176190D01*
X42366666Y-20252380D01*
X42290476Y-20290476D01*
X43052380Y-20138095D02*
X43090476Y-20100000D01*
X43166666Y-20061904D01*
X43357142Y-20061904D01*
X43433333Y-20100000D01*
X43471428Y-20138095D01*
X43509523Y-20214285D01*
X43509523Y-20290476D01*
X43471428Y-20404761D01*
X43014285Y-20861904D01*
X43509523Y-20861904D01*
X13035714Y-12133333D02*
X13073809Y-12171428D01*
X13111904Y-12285714D01*
X13111904Y-12361904D01*
X13073809Y-12476190D01*
X12997619Y-12552380D01*
X12921428Y-12590476D01*
X12769047Y-12628571D01*
X12654761Y-12628571D01*
X12502380Y-12590476D01*
X12426190Y-12552380D01*
X12350000Y-12476190D01*
X12311904Y-12361904D01*
X12311904Y-12285714D01*
X12350000Y-12171428D01*
X12388095Y-12133333D01*
X13111904Y-11752380D02*
X13111904Y-11600000D01*
X13073809Y-11523809D01*
X13035714Y-11485714D01*
X12921428Y-11409523D01*
X12769047Y-11371428D01*
X12464285Y-11371428D01*
X12388095Y-11409523D01*
X12350000Y-11447619D01*
X12311904Y-11523809D01*
X12311904Y-11676190D01*
X12350000Y-11752380D01*
X12388095Y-11790476D01*
X12464285Y-11828571D01*
X12654761Y-11828571D01*
X12730952Y-11790476D01*
X12769047Y-11752380D01*
X12807142Y-11676190D01*
X12807142Y-11523809D01*
X12769047Y-11447619D01*
X12730952Y-11409523D01*
X12654761Y-11371428D01*
X10366666Y-19785714D02*
X10328571Y-19823809D01*
X10214285Y-19861904D01*
X10138095Y-19861904D01*
X10023809Y-19823809D01*
X9947619Y-19747619D01*
X9909523Y-19671428D01*
X9871428Y-19519047D01*
X9871428Y-19404761D01*
X9909523Y-19252380D01*
X9947619Y-19176190D01*
X10023809Y-19100000D01*
X10138095Y-19061904D01*
X10214285Y-19061904D01*
X10328571Y-19100000D01*
X10366666Y-19138095D01*
X10823809Y-19404761D02*
X10747619Y-19366666D01*
X10709523Y-19328571D01*
X10671428Y-19252380D01*
X10671428Y-19214285D01*
X10709523Y-19138095D01*
X10747619Y-19100000D01*
X10823809Y-19061904D01*
X10976190Y-19061904D01*
X11052380Y-19100000D01*
X11090476Y-19138095D01*
X11128571Y-19214285D01*
X11128571Y-19252380D01*
X11090476Y-19328571D01*
X11052380Y-19366666D01*
X10976190Y-19404761D01*
X10823809Y-19404761D01*
X10747619Y-19442857D01*
X10709523Y-19480952D01*
X10671428Y-19557142D01*
X10671428Y-19709523D01*
X10709523Y-19785714D01*
X10747619Y-19823809D01*
X10823809Y-19861904D01*
X10976190Y-19861904D01*
X11052380Y-19823809D01*
X11090476Y-19785714D01*
X11128571Y-19709523D01*
X11128571Y-19557142D01*
X11090476Y-19480952D01*
X11052380Y-19442857D01*
X10976190Y-19404761D01*
X8611904Y-7514285D02*
X8230952Y-7780952D01*
X8611904Y-7971428D02*
X7811904Y-7971428D01*
X7811904Y-7666666D01*
X7850000Y-7590476D01*
X7888095Y-7552380D01*
X7964285Y-7514285D01*
X8078571Y-7514285D01*
X8154761Y-7552380D01*
X8192857Y-7590476D01*
X8230952Y-7666666D01*
X8230952Y-7971428D01*
X8611904Y-6752380D02*
X8611904Y-7209523D01*
X8611904Y-6980952D02*
X7811904Y-6980952D01*
X7926190Y-7057142D01*
X8002380Y-7133333D01*
X8040476Y-7209523D01*
X8611904Y-5990476D02*
X8611904Y-6447619D01*
X8611904Y-6219047D02*
X7811904Y-6219047D01*
X7926190Y-6295238D01*
X8002380Y-6371428D01*
X8040476Y-6447619D01*
X6361904Y-7514285D02*
X5980952Y-7780952D01*
X6361904Y-7971428D02*
X5561904Y-7971428D01*
X5561904Y-7666666D01*
X5600000Y-7590476D01*
X5638095Y-7552380D01*
X5714285Y-7514285D01*
X5828571Y-7514285D01*
X5904761Y-7552380D01*
X5942857Y-7590476D01*
X5980952Y-7666666D01*
X5980952Y-7971428D01*
X6361904Y-6752380D02*
X6361904Y-7209523D01*
X6361904Y-6980952D02*
X5561904Y-6980952D01*
X5676190Y-7057142D01*
X5752380Y-7133333D01*
X5790476Y-7209523D01*
X5561904Y-6257142D02*
X5561904Y-6180952D01*
X5600000Y-6104761D01*
X5638095Y-6066666D01*
X5714285Y-6028571D01*
X5866666Y-5990476D01*
X6057142Y-5990476D01*
X6209523Y-6028571D01*
X6285714Y-6066666D01*
X6323809Y-6104761D01*
X6361904Y-6180952D01*
X6361904Y-6257142D01*
X6323809Y-6333333D01*
X6285714Y-6371428D01*
X6209523Y-6409523D01*
X6057142Y-6447619D01*
X5866666Y-6447619D01*
X5714285Y-6409523D01*
X5638095Y-6371428D01*
X5600000Y-6333333D01*
X5561904Y-6257142D01*
X49366666Y-33285714D02*
X49328571Y-33323809D01*
X49214285Y-33361904D01*
X49138095Y-33361904D01*
X49023809Y-33323809D01*
X48947619Y-33247619D01*
X48909523Y-33171428D01*
X48871428Y-33019047D01*
X48871428Y-32904761D01*
X48909523Y-32752380D01*
X48947619Y-32676190D01*
X49023809Y-32600000D01*
X49138095Y-32561904D01*
X49214285Y-32561904D01*
X49328571Y-32600000D01*
X49366666Y-32638095D01*
X49633333Y-32561904D02*
X50166666Y-32561904D01*
X49823809Y-33361904D01*
X22035714Y-19014285D02*
X22073809Y-19052380D01*
X22111904Y-19166666D01*
X22111904Y-19242857D01*
X22073809Y-19357142D01*
X21997619Y-19433333D01*
X21921428Y-19471428D01*
X21769047Y-19509523D01*
X21654761Y-19509523D01*
X21502380Y-19471428D01*
X21426190Y-19433333D01*
X21350000Y-19357142D01*
X21311904Y-19242857D01*
X21311904Y-19166666D01*
X21350000Y-19052380D01*
X21388095Y-19014285D01*
X22111904Y-18252380D02*
X22111904Y-18709523D01*
X22111904Y-18480952D02*
X21311904Y-18480952D01*
X21426190Y-18557142D01*
X21502380Y-18633333D01*
X21540476Y-18709523D01*
X22111904Y-17490476D02*
X22111904Y-17947619D01*
X22111904Y-17719047D02*
X21311904Y-17719047D01*
X21426190Y-17795238D01*
X21502380Y-17871428D01*
X21540476Y-17947619D01*
X45366666Y-37285714D02*
X45328571Y-37323809D01*
X45214285Y-37361904D01*
X45138095Y-37361904D01*
X45023809Y-37323809D01*
X44947619Y-37247619D01*
X44909523Y-37171428D01*
X44871428Y-37019047D01*
X44871428Y-36904761D01*
X44909523Y-36752380D01*
X44947619Y-36676190D01*
X45023809Y-36600000D01*
X45138095Y-36561904D01*
X45214285Y-36561904D01*
X45328571Y-36600000D01*
X45366666Y-36638095D01*
X46052380Y-36561904D02*
X45900000Y-36561904D01*
X45823809Y-36600000D01*
X45785714Y-36638095D01*
X45709523Y-36752380D01*
X45671428Y-36904761D01*
X45671428Y-37209523D01*
X45709523Y-37285714D01*
X45747619Y-37323809D01*
X45823809Y-37361904D01*
X45976190Y-37361904D01*
X46052380Y-37323809D01*
X46090476Y-37285714D01*
X46128571Y-37209523D01*
X46128571Y-37019047D01*
X46090476Y-36942857D01*
X46052380Y-36904761D01*
X45976190Y-36866666D01*
X45823809Y-36866666D01*
X45747619Y-36904761D01*
X45709523Y-36942857D01*
X45671428Y-37019047D01*
X40866666Y-33285714D02*
X40828571Y-33323809D01*
X40714285Y-33361904D01*
X40638095Y-33361904D01*
X40523809Y-33323809D01*
X40447619Y-33247619D01*
X40409523Y-33171428D01*
X40371428Y-33019047D01*
X40371428Y-32904761D01*
X40409523Y-32752380D01*
X40447619Y-32676190D01*
X40523809Y-32600000D01*
X40638095Y-32561904D01*
X40714285Y-32561904D01*
X40828571Y-32600000D01*
X40866666Y-32638095D01*
X41590476Y-32561904D02*
X41209523Y-32561904D01*
X41171428Y-32942857D01*
X41209523Y-32904761D01*
X41285714Y-32866666D01*
X41476190Y-32866666D01*
X41552380Y-32904761D01*
X41590476Y-32942857D01*
X41628571Y-33019047D01*
X41628571Y-33209523D01*
X41590476Y-33285714D01*
X41552380Y-33323809D01*
X41476190Y-33361904D01*
X41285714Y-33361904D01*
X41209523Y-33323809D01*
X41171428Y-33285714D01*
X49366666Y-24285714D02*
X49328571Y-24323809D01*
X49214285Y-24361904D01*
X49138095Y-24361904D01*
X49023809Y-24323809D01*
X48947619Y-24247619D01*
X48909523Y-24171428D01*
X48871428Y-24019047D01*
X48871428Y-23904761D01*
X48909523Y-23752380D01*
X48947619Y-23676190D01*
X49023809Y-23600000D01*
X49138095Y-23561904D01*
X49214285Y-23561904D01*
X49328571Y-23600000D01*
X49366666Y-23638095D01*
X49633333Y-23561904D02*
X50128571Y-23561904D01*
X49861904Y-23866666D01*
X49976190Y-23866666D01*
X50052380Y-23904761D01*
X50090476Y-23942857D01*
X50128571Y-24019047D01*
X50128571Y-24209523D01*
X50090476Y-24285714D01*
X50052380Y-24323809D01*
X49976190Y-24361904D01*
X49747619Y-24361904D01*
X49671428Y-24323809D01*
X49633333Y-24285714D01*
X20111904Y-12090476D02*
X19311904Y-12090476D01*
X19311904Y-11900000D01*
X19350000Y-11785714D01*
X19426190Y-11709523D01*
X19502380Y-11671428D01*
X19654761Y-11633333D01*
X19769047Y-11633333D01*
X19921428Y-11671428D01*
X19997619Y-11709523D01*
X20073809Y-11785714D01*
X20111904Y-11900000D01*
X20111904Y-12090476D01*
X20111904Y-10871428D02*
X20111904Y-11328571D01*
X20111904Y-11100000D02*
X19311904Y-11100000D01*
X19426190Y-11176190D01*
X19502380Y-11252380D01*
X19540476Y-11328571D01*
X26361904Y-6090476D02*
X25561904Y-6090476D01*
X25561904Y-5900000D01*
X25600000Y-5785714D01*
X25676190Y-5709523D01*
X25752380Y-5671428D01*
X25904761Y-5633333D01*
X26019047Y-5633333D01*
X26171428Y-5671428D01*
X26247619Y-5709523D01*
X26323809Y-5785714D01*
X26361904Y-5900000D01*
X26361904Y-6090476D01*
X25638095Y-5328571D02*
X25600000Y-5290476D01*
X25561904Y-5214285D01*
X25561904Y-5023809D01*
X25600000Y-4947619D01*
X25638095Y-4909523D01*
X25714285Y-4871428D01*
X25790476Y-4871428D01*
X25904761Y-4909523D01*
X26361904Y-5366666D01*
X26361904Y-4871428D01*
X45366666Y-40861904D02*
X45100000Y-40480952D01*
X44909523Y-40861904D02*
X44909523Y-40061904D01*
X45214285Y-40061904D01*
X45290476Y-40100000D01*
X45328571Y-40138095D01*
X45366666Y-40214285D01*
X45366666Y-40328571D01*
X45328571Y-40404761D01*
X45290476Y-40442857D01*
X45214285Y-40480952D01*
X44909523Y-40480952D01*
X45747619Y-40861904D02*
X45900000Y-40861904D01*
X45976190Y-40823809D01*
X46014285Y-40785714D01*
X46090476Y-40671428D01*
X46128571Y-40519047D01*
X46128571Y-40214285D01*
X46090476Y-40138095D01*
X46052380Y-40100000D01*
X45976190Y-40061904D01*
X45823809Y-40061904D01*
X45747619Y-40100000D01*
X45709523Y-40138095D01*
X45671428Y-40214285D01*
X45671428Y-40404761D01*
X45709523Y-40480952D01*
X45747619Y-40519047D01*
X45823809Y-40557142D01*
X45976190Y-40557142D01*
X46052380Y-40519047D01*
X46090476Y-40480952D01*
X46128571Y-40404761D01*
X41366666Y-37361904D02*
X41100000Y-36980952D01*
X40909523Y-37361904D02*
X40909523Y-36561904D01*
X41214285Y-36561904D01*
X41290476Y-36600000D01*
X41328571Y-36638095D01*
X41366666Y-36714285D01*
X41366666Y-36828571D01*
X41328571Y-36904761D01*
X41290476Y-36942857D01*
X41214285Y-36980952D01*
X40909523Y-36980952D01*
X41823809Y-36904761D02*
X41747619Y-36866666D01*
X41709523Y-36828571D01*
X41671428Y-36752380D01*
X41671428Y-36714285D01*
X41709523Y-36638095D01*
X41747619Y-36600000D01*
X41823809Y-36561904D01*
X41976190Y-36561904D01*
X42052380Y-36600000D01*
X42090476Y-36638095D01*
X42128571Y-36714285D01*
X42128571Y-36752380D01*
X42090476Y-36828571D01*
X42052380Y-36866666D01*
X41976190Y-36904761D01*
X41823809Y-36904761D01*
X41747619Y-36942857D01*
X41709523Y-36980952D01*
X41671428Y-37057142D01*
X41671428Y-37209523D01*
X41709523Y-37285714D01*
X41747619Y-37323809D01*
X41823809Y-37361904D01*
X41976190Y-37361904D01*
X42052380Y-37323809D01*
X42090476Y-37285714D01*
X42128571Y-37209523D01*
X42128571Y-37057142D01*
X42090476Y-36980952D01*
X42052380Y-36942857D01*
X41976190Y-36904761D01*
X40866666Y-24361904D02*
X40600000Y-23980952D01*
X40409523Y-24361904D02*
X40409523Y-23561904D01*
X40714285Y-23561904D01*
X40790476Y-23600000D01*
X40828571Y-23638095D01*
X40866666Y-23714285D01*
X40866666Y-23828571D01*
X40828571Y-23904761D01*
X40790476Y-23942857D01*
X40714285Y-23980952D01*
X40409523Y-23980952D01*
X41133333Y-23561904D02*
X41666666Y-23561904D01*
X41323809Y-24361904D01*
X57866666Y-24861904D02*
X57600000Y-24480952D01*
X57409523Y-24861904D02*
X57409523Y-24061904D01*
X57714285Y-24061904D01*
X57790476Y-24100000D01*
X57828571Y-24138095D01*
X57866666Y-24214285D01*
X57866666Y-24328571D01*
X57828571Y-24404761D01*
X57790476Y-24442857D01*
X57714285Y-24480952D01*
X57409523Y-24480952D01*
X58590476Y-24061904D02*
X58209523Y-24061904D01*
X58171428Y-24442857D01*
X58209523Y-24404761D01*
X58285714Y-24366666D01*
X58476190Y-24366666D01*
X58552380Y-24404761D01*
X58590476Y-24442857D01*
X58628571Y-24519047D01*
X58628571Y-24709523D01*
X58590476Y-24785714D01*
X58552380Y-24823809D01*
X58476190Y-24861904D01*
X58285714Y-24861904D01*
X58209523Y-24823809D01*
X58171428Y-24785714D01*
X38366666Y-20861904D02*
X38100000Y-20480952D01*
X37909523Y-20861904D02*
X37909523Y-20061904D01*
X38214285Y-20061904D01*
X38290476Y-20100000D01*
X38328571Y-20138095D01*
X38366666Y-20214285D01*
X38366666Y-20328571D01*
X38328571Y-20404761D01*
X38290476Y-20442857D01*
X38214285Y-20480952D01*
X37909523Y-20480952D01*
X38633333Y-20061904D02*
X39128571Y-20061904D01*
X38861904Y-20366666D01*
X38976190Y-20366666D01*
X39052380Y-20404761D01*
X39090476Y-20442857D01*
X39128571Y-20519047D01*
X39128571Y-20709523D01*
X39090476Y-20785714D01*
X39052380Y-20823809D01*
X38976190Y-20861904D01*
X38747619Y-20861904D01*
X38671428Y-20823809D01*
X38633333Y-20785714D01*
X46366666Y-20861904D02*
X46100000Y-20480952D01*
X45909523Y-20861904D02*
X45909523Y-20061904D01*
X46214285Y-20061904D01*
X46290476Y-20100000D01*
X46328571Y-20138095D01*
X46366666Y-20214285D01*
X46366666Y-20328571D01*
X46328571Y-20404761D01*
X46290476Y-20442857D01*
X46214285Y-20480952D01*
X45909523Y-20480952D01*
X46671428Y-20138095D02*
X46709523Y-20100000D01*
X46785714Y-20061904D01*
X46976190Y-20061904D01*
X47052380Y-20100000D01*
X47090476Y-20138095D01*
X47128571Y-20214285D01*
X47128571Y-20290476D01*
X47090476Y-20404761D01*
X46633333Y-20861904D01*
X47128571Y-20861904D01*
X51866666Y-24361904D02*
X51600000Y-23980952D01*
X51409523Y-24361904D02*
X51409523Y-23561904D01*
X51714285Y-23561904D01*
X51790476Y-23600000D01*
X51828571Y-23638095D01*
X51866666Y-23714285D01*
X51866666Y-23828571D01*
X51828571Y-23904761D01*
X51790476Y-23942857D01*
X51714285Y-23980952D01*
X51409523Y-23980952D01*
X52552380Y-23561904D02*
X52400000Y-23561904D01*
X52323809Y-23600000D01*
X52285714Y-23638095D01*
X52209523Y-23752380D01*
X52171428Y-23904761D01*
X52171428Y-24209523D01*
X52209523Y-24285714D01*
X52247619Y-24323809D01*
X52323809Y-24361904D01*
X52476190Y-24361904D01*
X52552380Y-24323809D01*
X52590476Y-24285714D01*
X52628571Y-24209523D01*
X52628571Y-24019047D01*
X52590476Y-23942857D01*
X52552380Y-23904761D01*
X52476190Y-23866666D01*
X52323809Y-23866666D01*
X52247619Y-23904761D01*
X52209523Y-23942857D01*
X52171428Y-24019047D01*
X19866666Y-25861904D02*
X19600000Y-25480952D01*
X19409523Y-25861904D02*
X19409523Y-25061904D01*
X19714285Y-25061904D01*
X19790476Y-25100000D01*
X19828571Y-25138095D01*
X19866666Y-25214285D01*
X19866666Y-25328571D01*
X19828571Y-25404761D01*
X19790476Y-25442857D01*
X19714285Y-25480952D01*
X19409523Y-25480952D01*
X20552380Y-25328571D02*
X20552380Y-25861904D01*
X20361904Y-25023809D02*
X20171428Y-25595238D01*
X20666666Y-25595238D01*
X45890476Y-23561904D02*
X45890476Y-24209523D01*
X45928571Y-24285714D01*
X45966666Y-24323809D01*
X46042857Y-24361904D01*
X46195238Y-24361904D01*
X46271428Y-24323809D01*
X46309523Y-24285714D01*
X46347619Y-24209523D01*
X46347619Y-23561904D01*
X46690476Y-23638095D02*
X46728571Y-23600000D01*
X46804761Y-23561904D01*
X46995238Y-23561904D01*
X47071428Y-23600000D01*
X47109523Y-23638095D01*
X47147619Y-23714285D01*
X47147619Y-23790476D01*
X47109523Y-23904761D01*
X46652380Y-24361904D01*
X47147619Y-24361904D01*
X54923809Y-18938095D02*
X54847619Y-18900000D01*
X54771428Y-18823809D01*
X54657142Y-18709523D01*
X54580952Y-18671428D01*
X54504761Y-18671428D01*
X54542857Y-18861904D02*
X54466666Y-18823809D01*
X54390476Y-18747619D01*
X54352380Y-18595238D01*
X54352380Y-18328571D01*
X54390476Y-18176190D01*
X54466666Y-18100000D01*
X54542857Y-18061904D01*
X54695238Y-18061904D01*
X54771428Y-18100000D01*
X54847619Y-18176190D01*
X54885714Y-18328571D01*
X54885714Y-18595238D01*
X54847619Y-18747619D01*
X54771428Y-18823809D01*
X54695238Y-18861904D01*
X54542857Y-18861904D01*
X55190476Y-18138095D02*
X55228571Y-18100000D01*
X55304761Y-18061904D01*
X55495238Y-18061904D01*
X55571428Y-18100000D01*
X55609523Y-18138095D01*
X55647619Y-18214285D01*
X55647619Y-18290476D01*
X55609523Y-18404761D01*
X55152380Y-18861904D01*
X55647619Y-18861904D01*
X14673809Y-19438095D02*
X14597619Y-19400000D01*
X14521428Y-19323809D01*
X14407142Y-19209523D01*
X14330952Y-19171428D01*
X14254761Y-19171428D01*
X14292857Y-19361904D02*
X14216666Y-19323809D01*
X14140476Y-19247619D01*
X14102380Y-19095238D01*
X14102380Y-18828571D01*
X14140476Y-18676190D01*
X14216666Y-18600000D01*
X14292857Y-18561904D01*
X14445238Y-18561904D01*
X14521428Y-18600000D01*
X14597619Y-18676190D01*
X14635714Y-18828571D01*
X14635714Y-19095238D01*
X14597619Y-19247619D01*
X14521428Y-19323809D01*
X14445238Y-19361904D01*
X14292857Y-19361904D01*
X15397619Y-19361904D02*
X14940476Y-19361904D01*
X15169047Y-19361904D02*
X15169047Y-18561904D01*
X15092857Y-18676190D01*
X15016666Y-18752380D01*
X14940476Y-18790476D01*
M02*
