M48
;DRILL file {KiCad (2017-08-18 revision 6be2f2934)-master} date Sat Aug 19 20:32:54 2017
;FORMAT={-:-/ absolute / inch / decimal}
FMAT,2
INCH,TZ
T1C0.016
T2C0.028
T3C0.031
T4C0.039
T5C0.046
T6C0.039
T7C0.067
T8C0.140
%
G90
G05
M72
T1
X0.1673Y-0.2756
X0.2067Y-1.4567
X0.2067Y-1.7717
X0.2362Y-0.3445
X0.2756Y-1.2992
X0.2953Y-0.7175
X0.3051Y-1.1024
X0.3051Y-1.1516
X0.3248Y-0.3445
X0.3346Y-0.8465
X0.3937Y-0.7283
X0.4035Y-1.1024
X0.4035Y-1.1516
X0.4331Y-0.7283
X0.4429Y-0.9646
X0.4921Y-1.6142
X0.5512Y-0.2854
X0.5512Y-0.3248
X0.5512Y-0.3642
X0.5906Y-0.2854
X0.5906Y-0.3248
X0.5906Y-0.3642
X0.6299Y-0.2854
X0.6299Y-0.3248
X0.6299Y-0.3642
X0.6693Y-0.2854
X0.7087Y-0.2854
X0.748Y-0.2854
X0.748Y-0.3248
X0.748Y-0.3642
X0.7677Y-0.6693
X0.7677Y-0.7874
X0.7776Y-0.7283
X0.8071Y-0.6693
X0.8071Y-0.7087
X0.8071Y-0.748
X0.8071Y-0.7874
X0.8071Y-1.0728
X0.8169Y-0.502
X0.8858Y-0.3937
X0.9055Y-0.8071
X0.9144Y-0.8858
X0.9144Y-1.0236
X0.9449Y-0.8071
X0.9449Y-0.8563
X0.9449Y-0.9941
X0.9646Y-0.4823
X0.9843Y-0.6004
X0.9843Y-1.7323
X1.1024Y-0.7972
X1.1811Y-0.8465
X1.2402Y-0.0591
X1.25Y-0.8071
X1.378Y-1.7323
X1.4075Y-0.0492
X1.4272Y-0.9931
X1.4665Y-0.9931
X1.5748Y-0.7874
X1.6634Y-0.2953
X1.6634Y-0.3346
X1.6634Y-0.374
X1.6732Y-1.2894
X1.7028Y-1.0728
X1.7028Y-1.4567
X1.7717Y-0.5906
X1.7717Y-1.6929
X1.8012Y-0.0591
X1.8898Y-1.1614
X1.9291Y-0.7087
X1.9685Y-1.378
X2.0472Y-0.8169
X2.0669Y-0.0591
X2.1063Y-1.2303
X2.185Y-1.2303
X2.2047Y-1.6929
X2.2244Y-1.0827
X2.3228Y-0.2953
T2
X0.1181Y-0.7268
X0.1181Y-0.8268
X0.1181Y-0.9268
T3
X0.8753Y-0.542
X1.0145Y-0.4028
T4
X0.6693Y-0.1075
X0.6693Y-0.2075
X0.6496Y-1.0614
X0.6496Y-1.1614
X0.6496Y-1.2614
X1.337Y-0.3831
X1.337Y-0.4831
X1.437Y-0.3831
X1.437Y-0.4831
X1.537Y-0.3831
X1.537Y-0.4831
T5
X0.1512Y-1.0711
X0.1512Y-1.6061
T6
X2.0079Y-0.4724
X2.2441Y-0.4724
T7
X0.1378Y-0.5118
X0.4134Y-0.5118
T8
X1.1811Y-1.3386
T0
M30
