G04 #@! TF.GenerationSoftware,KiCad,Pcbnew,(2017-08-18 revision 6be2f2934)-master*
G04 #@! TF.CreationDate,2017-08-19T20:32:53-06:00*
G04 #@! TF.ProjectId,tone,746F6E652E6B696361645F7063620000,rev?*
G04 #@! TF.SameCoordinates,Original*
G04 #@! TF.FileFunction,Legend,Bot*
G04 #@! TF.FilePolarity,Positive*
%FSLAX46Y46*%
G04 Gerber Fmt 4.6, Leading zero omitted, Abs format (unit mm)*
G04 Created by KiCad (PCBNEW (2017-08-18 revision 6be2f2934)-master) date Sat Aug 19 20:32:53 2017*
%MOMM*%
%LPD*%
G01*
G04 APERTURE LIST*
%ADD10C,0.300000*%
%ADD11C,0.350000*%
%ADD12C,0.150000*%
G04 APERTURE END LIST*
D10*
X6821428Y-40857142D02*
X5678571Y-40857142D01*
X6250000Y-41428571D02*
X6250000Y-40285714D01*
D11*
X59000000Y-49250000D02*
X59000000Y-18750000D01*
X1000000Y-49250000D02*
X59000000Y-49250000D01*
X1000000Y-18750000D02*
X1000000Y-49250000D01*
X59000000Y-18750000D02*
X6000000Y-18750000D01*
X29000000Y-12000000D02*
G75*
G03X29000000Y-12000000I-5000000J0D01*
G01*
D12*
X30785714Y-37928571D02*
X30642857Y-37976190D01*
X30595238Y-38023809D01*
X30547619Y-38119047D01*
X30547619Y-38261904D01*
X30595238Y-38357142D01*
X30642857Y-38404761D01*
X30738095Y-38452380D01*
X31119047Y-38452380D01*
X31119047Y-37452380D01*
X30785714Y-37452380D01*
X30690476Y-37500000D01*
X30642857Y-37547619D01*
X30595238Y-37642857D01*
X30595238Y-37738095D01*
X30642857Y-37833333D01*
X30690476Y-37880952D01*
X30785714Y-37928571D01*
X31119047Y-37928571D01*
X30261904Y-37452380D02*
X29690476Y-37452380D01*
X29976190Y-38452380D02*
X29976190Y-37452380D01*
X28833333Y-38452380D02*
X29404761Y-38452380D01*
X29119047Y-38452380D02*
X29119047Y-37452380D01*
X29214285Y-37595238D01*
X29309523Y-37690476D01*
X29404761Y-37738095D01*
X58083333Y-6952380D02*
X58083333Y-7666666D01*
X58130952Y-7809523D01*
X58226190Y-7904761D01*
X58369047Y-7952380D01*
X58464285Y-7952380D01*
X57178571Y-7285714D02*
X57178571Y-7952380D01*
X57416666Y-6904761D02*
X57654761Y-7619047D01*
X57035714Y-7619047D01*
X55988095Y-7952380D02*
X55988095Y-6952380D01*
X55607142Y-6952380D01*
X55511904Y-7000000D01*
X55464285Y-7047619D01*
X55416666Y-7142857D01*
X55416666Y-7285714D01*
X55464285Y-7380952D01*
X55511904Y-7428571D01*
X55607142Y-7476190D01*
X55988095Y-7476190D01*
X54416666Y-7952380D02*
X54750000Y-7476190D01*
X54988095Y-7952380D02*
X54988095Y-6952380D01*
X54607142Y-6952380D01*
X54511904Y-7000000D01*
X54464285Y-7047619D01*
X54416666Y-7142857D01*
X54416666Y-7285714D01*
X54464285Y-7380952D01*
X54511904Y-7428571D01*
X54607142Y-7476190D01*
X54988095Y-7476190D01*
X53797619Y-6952380D02*
X53607142Y-6952380D01*
X53511904Y-7000000D01*
X53416666Y-7095238D01*
X53369047Y-7285714D01*
X53369047Y-7619047D01*
X53416666Y-7809523D01*
X53511904Y-7904761D01*
X53607142Y-7952380D01*
X53797619Y-7952380D01*
X53892857Y-7904761D01*
X53988095Y-7809523D01*
X54035714Y-7619047D01*
X54035714Y-7285714D01*
X53988095Y-7095238D01*
X53892857Y-7000000D01*
X53797619Y-6952380D01*
X52607142Y-7428571D02*
X52464285Y-7476190D01*
X52416666Y-7523809D01*
X52369047Y-7619047D01*
X52369047Y-7761904D01*
X52416666Y-7857142D01*
X52464285Y-7904761D01*
X52559523Y-7952380D01*
X52940476Y-7952380D01*
X52940476Y-6952380D01*
X52607142Y-6952380D01*
X52511904Y-7000000D01*
X52464285Y-7047619D01*
X52416666Y-7142857D01*
X52416666Y-7238095D01*
X52464285Y-7333333D01*
X52511904Y-7380952D01*
X52607142Y-7428571D01*
X52940476Y-7428571D01*
X51940476Y-7428571D02*
X51607142Y-7428571D01*
X51464285Y-7952380D02*
X51940476Y-7952380D01*
X51940476Y-6952380D01*
X51464285Y-6952380D01*
X12583333Y-5952380D02*
X12583333Y-6666666D01*
X12630952Y-6809523D01*
X12726190Y-6904761D01*
X12869047Y-6952380D01*
X12964285Y-6952380D01*
X12202380Y-5952380D02*
X11583333Y-5952380D01*
X11916666Y-6333333D01*
X11773809Y-6333333D01*
X11678571Y-6380952D01*
X11630952Y-6428571D01*
X11583333Y-6523809D01*
X11583333Y-6761904D01*
X11630952Y-6857142D01*
X11678571Y-6904761D01*
X11773809Y-6952380D01*
X12059523Y-6952380D01*
X12154761Y-6904761D01*
X12202380Y-6857142D01*
X10273809Y-6666666D02*
X9797619Y-6666666D01*
X10369047Y-6952380D02*
X10035714Y-5952380D01*
X9702380Y-6952380D01*
X9369047Y-5952380D02*
X9369047Y-6761904D01*
X9321428Y-6857142D01*
X9273809Y-6904761D01*
X9178571Y-6952380D01*
X8988095Y-6952380D01*
X8892857Y-6904761D01*
X8845238Y-6857142D01*
X8797619Y-6761904D01*
X8797619Y-5952380D01*
X8321428Y-6952380D02*
X8321428Y-5952380D01*
X8083333Y-5952380D01*
X7940476Y-6000000D01*
X7845238Y-6095238D01*
X7797619Y-6190476D01*
X7750000Y-6380952D01*
X7750000Y-6523809D01*
X7797619Y-6714285D01*
X7845238Y-6809523D01*
X7940476Y-6904761D01*
X8083333Y-6952380D01*
X8321428Y-6952380D01*
X7321428Y-6952380D02*
X7321428Y-5952380D01*
X6654761Y-5952380D02*
X6464285Y-5952380D01*
X6369047Y-6000000D01*
X6273809Y-6095238D01*
X6226190Y-6285714D01*
X6226190Y-6619047D01*
X6273809Y-6809523D01*
X6369047Y-6904761D01*
X6464285Y-6952380D01*
X6654761Y-6952380D01*
X6750000Y-6904761D01*
X6845238Y-6809523D01*
X6892857Y-6619047D01*
X6892857Y-6285714D01*
X6845238Y-6095238D01*
X6750000Y-6000000D01*
X6654761Y-5952380D01*
X24133333Y-6111905D02*
X24514285Y-6111905D01*
X24514285Y-5311905D01*
X23447619Y-6111905D02*
X23904761Y-6111905D01*
X23676190Y-6111905D02*
X23676190Y-5311905D01*
X23752380Y-5426191D01*
X23828571Y-5502381D01*
X23904761Y-5540477D01*
M02*
