G04 #@! TF.GenerationSoftware,KiCad,Pcbnew,(2017-08-18 revision 6be2f2934)-master*
G04 #@! TF.CreationDate,2017-08-19T20:32:53-06:00*
G04 #@! TF.ProjectId,tone,746F6E652E6B696361645F7063620000,rev?*
G04 #@! TF.SameCoordinates,Original*
G04 #@! TF.FileFunction,Soldermask,Top*
G04 #@! TF.FilePolarity,Negative*
%FSLAX46Y46*%
G04 Gerber Fmt 4.6, Leading zero omitted, Abs format (unit mm)*
G04 Created by KiCad (PCBNEW (2017-08-18 revision 6be2f2934)-master) date Sat Aug 19 20:32:53 2017*
%MOMM*%
%LPD*%
G01*
G04 APERTURE LIST*
%ADD10C,2.000000*%
%ADD11C,5.000000*%
%ADD12C,0.150000*%
%ADD13C,0.800000*%
%ADD14C,0.100000*%
%ADD15R,0.800000X1.300000*%
%ADD16R,2.486000X1.724000*%
%ADD17O,2.486000X1.724000*%
%ADD18R,1.650000X1.350000*%
%ADD19R,1.350000X1.650000*%
%ADD20R,1.100000X1.500000*%
%ADD21R,1.000000X1.500000*%
%ADD22R,1.500000X1.100000*%
%ADD23R,1.500000X1.000000*%
%ADD24O,1.700000X0.750000*%
%ADD25O,0.750000X1.700000*%
%ADD26C,1.600000*%
%ADD27C,2.200000*%
%ADD28C,3.760000*%
%ADD29R,1.650000X1.150000*%
%ADD30R,1.150000X1.650000*%
%ADD31R,2.000000X1.400000*%
%ADD32R,1.724000X2.486000*%
%ADD33O,1.724000X2.486000*%
%ADD34R,1.099160X1.000100*%
%ADD35R,2.390000X1.800000*%
%ADD36R,1.700000X1.150000*%
%ADD37C,1.200000*%
%ADD38C,1.900000*%
%ADD39R,1.700000X2.500000*%
%ADD40R,2.000000X1.250000*%
%ADD41O,0.800000X1.750000*%
%ADD42C,1.500000*%
%ADD43C,0.254000*%
G04 APERTURE END LIST*
D10*
X59000000Y-3000000D02*
G75*
G03X59000000Y-3000000I-2000000J0D01*
G01*
X5000000Y-3000000D02*
G75*
G03X5000000Y-3000000I-2000000J0D01*
G01*
D11*
X33500000Y-34000000D02*
G75*
G03X33500000Y-34000000I-3500000J0D01*
G01*
D12*
X51611000Y-37627000D02*
G75*
G03X52500000Y-38516000I889000J0D01*
G01*
X52500000Y-38516000D02*
G75*
G03X53389000Y-37627000I0J889000D01*
G01*
X51611000Y-37627000D02*
X53389000Y-37627000D01*
X51674500Y-37754000D02*
X53325500Y-37754000D01*
X53325500Y-37881000D02*
X51674500Y-37881000D01*
X51738000Y-38008000D02*
X53262000Y-38008000D01*
X53198500Y-38135000D02*
X51801500Y-38135000D01*
X52119000Y-38389000D02*
X52881000Y-38389000D01*
X52500000Y-36484000D02*
G75*
G03X51611000Y-37373000I0J-889000D01*
G01*
X53389000Y-37373000D02*
G75*
G03X52500000Y-36484000I-889000J0D01*
G01*
X51611000Y-37373000D02*
X53389000Y-37373000D01*
X53325500Y-37246000D02*
X51674500Y-37246000D01*
X51674500Y-37119000D02*
X53325500Y-37119000D01*
X53262000Y-36992000D02*
X51738000Y-36992000D01*
X51801500Y-36865000D02*
X53198500Y-36865000D01*
X52817500Y-36611000D02*
X52119000Y-36611000D01*
X53389000Y-37500000D02*
X51611000Y-37500000D01*
X51611000Y-37627000D02*
X51611000Y-37373000D01*
X53389000Y-37627000D02*
X53389000Y-37373000D01*
X55889000Y-37627000D02*
X55889000Y-37373000D01*
X54111000Y-37627000D02*
X54111000Y-37373000D01*
X55889000Y-37500000D02*
X54111000Y-37500000D01*
X55317500Y-36611000D02*
X54619000Y-36611000D01*
X54301500Y-36865000D02*
X55698500Y-36865000D01*
X55762000Y-36992000D02*
X54238000Y-36992000D01*
X54174500Y-37119000D02*
X55825500Y-37119000D01*
X55825500Y-37246000D02*
X54174500Y-37246000D01*
X54111000Y-37373000D02*
X55889000Y-37373000D01*
X55889000Y-37373000D02*
G75*
G03X55000000Y-36484000I-889000J0D01*
G01*
X55000000Y-36484000D02*
G75*
G03X54111000Y-37373000I0J-889000D01*
G01*
X54619000Y-38389000D02*
X55381000Y-38389000D01*
X55698500Y-38135000D02*
X54301500Y-38135000D01*
X54238000Y-38008000D02*
X55762000Y-38008000D01*
X55825500Y-37881000D02*
X54174500Y-37881000D01*
X54174500Y-37754000D02*
X55825500Y-37754000D01*
X54111000Y-37627000D02*
X55889000Y-37627000D01*
X55000000Y-38516000D02*
G75*
G03X55889000Y-37627000I0J889000D01*
G01*
X54111000Y-37627000D02*
G75*
G03X55000000Y-38516000I889000J0D01*
G01*
D13*
X52500000Y-37000000D03*
D14*
G36*
X53168046Y-37400000D02*
X51831954Y-37400000D01*
X51965288Y-36600000D01*
X53034712Y-36600000D01*
X53168046Y-37400000D01*
X53168046Y-37400000D01*
G37*
D13*
X52500000Y-38000000D03*
D14*
G36*
X51831954Y-37600000D02*
X53168046Y-37600000D01*
X53034712Y-38400000D01*
X51965288Y-38400000D01*
X51831954Y-37600000D01*
X51831954Y-37600000D01*
G37*
D13*
X55000000Y-38000000D03*
D14*
G36*
X54331954Y-37600000D02*
X55668046Y-37600000D01*
X55534712Y-38400000D01*
X54465288Y-38400000D01*
X54331954Y-37600000D01*
X54331954Y-37600000D01*
G37*
D13*
X55000000Y-37000000D03*
D14*
G36*
X55668046Y-37400000D02*
X54331954Y-37400000D01*
X54465288Y-36600000D01*
X55534712Y-36600000D01*
X55668046Y-37400000D01*
X55668046Y-37400000D01*
G37*
D15*
X7500000Y-14900000D03*
X6550000Y-14900000D03*
X8450000Y-14900000D03*
X7500000Y-17100000D03*
X8450000Y-17100000D03*
X6550000Y-17100000D03*
D16*
X16500000Y-26960000D03*
D17*
X16500000Y-29500000D03*
X16500000Y-32040000D03*
D18*
X41500000Y-4100000D03*
X41500000Y-5900000D03*
D19*
X43600000Y-8500000D03*
X45400000Y-8500000D03*
D20*
X43550000Y-6100000D03*
X45450000Y-6100000D03*
D21*
X44500000Y-3900000D03*
D22*
X5100000Y-32950000D03*
X5100000Y-31050000D03*
D23*
X2900000Y-32000000D03*
D24*
X34200000Y-24300000D03*
X34200000Y-23500000D03*
X34200000Y-22700000D03*
X34200000Y-21900000D03*
X34200000Y-21100000D03*
X34200000Y-20300000D03*
X34200000Y-19500000D03*
X34200000Y-18700000D03*
D25*
X32800000Y-17300000D03*
X32000000Y-17300000D03*
X31200000Y-17300000D03*
X30400000Y-17300000D03*
X29600000Y-17300000D03*
X28800000Y-17300000D03*
X28000000Y-17300000D03*
X27200000Y-17300000D03*
D24*
X25800000Y-18700000D03*
X25800000Y-19500000D03*
X25800000Y-20300000D03*
X25800000Y-21100000D03*
X25800000Y-21900000D03*
X25800000Y-22700000D03*
X25800000Y-23500000D03*
X25800000Y-24300000D03*
D25*
X27200000Y-25700000D03*
X28000000Y-25700000D03*
X28800000Y-25700000D03*
X29600000Y-25700000D03*
X30400000Y-25700000D03*
X31200000Y-25700000D03*
X32000000Y-25700000D03*
X32800000Y-25700000D03*
D26*
X3000000Y-23540000D03*
X3000000Y-21000000D03*
X3000000Y-18460000D03*
D17*
X17000000Y-5270000D03*
X17000000Y-2730000D03*
D27*
X3840000Y-27205000D03*
X3840000Y-40795000D03*
D28*
X30000000Y-34000000D03*
D29*
X38250000Y-31000000D03*
X38250000Y-29000000D03*
D30*
X17500000Y-23500000D03*
X15500000Y-23500000D03*
X15500000Y-21000000D03*
X17500000Y-21000000D03*
D31*
X36750000Y-27200000D03*
X36750000Y-24300000D03*
D30*
X37000000Y-6000000D03*
X39000000Y-6000000D03*
D32*
X39040000Y-9476000D03*
D33*
X36500000Y-9476000D03*
X33960000Y-9476000D03*
X39040000Y-12524000D03*
X36500000Y-12524000D03*
X33960000Y-12524000D03*
D30*
X14000000Y-41000000D03*
X16000000Y-41000000D03*
D34*
X19100840Y-41000000D03*
X20899160Y-41000000D03*
X20899160Y-37000000D03*
X19100840Y-37000000D03*
X19100840Y-45000000D03*
X20899160Y-45000000D03*
D35*
X12595000Y-45000000D03*
X3405000Y-45000000D03*
X3520001Y-37000000D03*
X12710001Y-37000000D03*
D36*
X49650000Y-22000000D03*
X51350000Y-22000000D03*
X47350000Y-18000000D03*
X45650000Y-18000000D03*
X40650000Y-39000000D03*
X42350000Y-39000000D03*
D30*
X43500000Y-22000000D03*
X41500000Y-22000000D03*
D31*
X14500000Y-13450000D03*
X14500000Y-10550000D03*
D37*
X57000000Y-12000000D03*
X51000000Y-12000000D03*
D38*
X10500000Y-13000000D03*
X3500000Y-13000000D03*
D18*
X10500000Y-15600000D03*
X10500000Y-17400000D03*
D29*
X8250000Y-12000000D03*
X8250000Y-10000000D03*
X6000000Y-10000000D03*
X6000000Y-12000000D03*
D18*
X49500000Y-31400000D03*
X49500000Y-29600000D03*
X23500000Y-17600000D03*
X23500000Y-19400000D03*
D19*
X44600000Y-35000000D03*
X46400000Y-35000000D03*
D18*
X41000000Y-31400000D03*
X41000000Y-29600000D03*
X49500000Y-25600000D03*
X49500000Y-27400000D03*
D39*
X17500000Y-9350000D03*
X17500000Y-13650000D03*
X23500000Y-3350000D03*
X23500000Y-7650000D03*
D30*
X46500000Y-39000000D03*
X44500000Y-39000000D03*
X40500000Y-35000000D03*
X42500000Y-35000000D03*
D29*
X41000000Y-27500000D03*
X41000000Y-25500000D03*
D30*
X56000000Y-24500000D03*
X54000000Y-24500000D03*
X39500000Y-22000000D03*
X37500000Y-22000000D03*
X47500000Y-22000000D03*
X45500000Y-22000000D03*
D29*
X52000000Y-27500000D03*
X52000000Y-25500000D03*
D40*
X20000000Y-21000000D03*
X20000000Y-24000000D03*
D41*
X46905000Y-25800000D03*
X45635000Y-25800000D03*
X44365000Y-25800000D03*
X43095000Y-25800000D03*
X43095000Y-31200000D03*
X44365000Y-31200000D03*
X45635000Y-31200000D03*
X46905000Y-31200000D03*
D42*
X25767767Y-10232233D03*
X22232233Y-13767767D03*
D22*
X56100000Y-21950000D03*
X56100000Y-20050000D03*
D23*
X53900000Y-21000000D03*
D20*
X16550000Y-18600000D03*
X18450000Y-18600000D03*
D21*
X17500000Y-16400000D03*
D43*
G36*
X40623000Y-18873000D02*
X38877000Y-18873000D01*
X38877000Y-17627000D01*
X40623000Y-17627000D01*
X40623000Y-18873000D01*
X40623000Y-18873000D01*
G37*
X40623000Y-18873000D02*
X38877000Y-18873000D01*
X38877000Y-17627000D01*
X40623000Y-17627000D01*
X40623000Y-18873000D01*
M02*
