G04 #@! TF.GenerationSoftware,KiCad,Pcbnew,(2017-08-18 revision 6be2f2934)-master*
G04 #@! TF.CreationDate,2017-08-19T20:32:53-06:00*
G04 #@! TF.ProjectId,tone,746F6E652E6B696361645F7063620000,rev?*
G04 #@! TF.SameCoordinates,Original*
G04 #@! TF.FileFunction,Copper,L2,Bot,Signal*
G04 #@! TF.FilePolarity,Positive*
%FSLAX46Y46*%
G04 Gerber Fmt 4.6, Leading zero omitted, Abs format (unit mm)*
G04 Created by KiCad (PCBNEW (2017-08-18 revision 6be2f2934)-master) date Sat Aug 19 20:32:53 2017*
%MOMM*%
%LPD*%
G01*
G04 APERTURE LIST*
%ADD10C,1.000000*%
%ADD11R,2.286000X1.524000*%
%ADD12O,2.286000X1.524000*%
%ADD13C,1.000000*%
%ADD14C,1.400000*%
%ADD15C,2.000000*%
%ADD16R,1.524000X2.286000*%
%ADD17O,1.524000X2.286000*%
%ADD18R,2.400000X2.850000*%
%ADD19R,2.800000X2.800000*%
%ADD20R,2.200000X2.800000*%
%ADD21C,1.300000*%
%ADD22C,0.800000*%
%ADD23C,0.400000*%
%ADD24C,0.250000*%
%ADD25C,0.254000*%
G04 APERTURE END LIST*
D10*
X33328249Y-21421751D02*
X34671751Y-20078249D01*
D11*
X16500000Y-26960000D03*
D12*
X16500000Y-29500000D03*
X16500000Y-32040000D03*
D13*
X33328249Y-21421751D03*
X34671751Y-20078249D03*
D14*
X3000000Y-23540000D03*
X3000000Y-21000000D03*
X3000000Y-18460000D03*
D12*
X17000000Y-5270000D03*
X17000000Y-2730000D03*
D15*
X3840000Y-27205000D03*
X3840000Y-40795000D03*
D16*
X39040000Y-9476000D03*
D17*
X36500000Y-9476000D03*
X33960000Y-9476000D03*
X39040000Y-12524000D03*
X36500000Y-12524000D03*
X33960000Y-12524000D03*
D18*
X58300000Y-15325000D03*
X48600000Y-15325000D03*
X48600000Y-8675000D03*
D19*
X15900000Y-13000000D03*
X11800000Y-9300000D03*
D20*
X2400000Y-9300000D03*
D21*
X25767767Y-10232233D03*
X22232233Y-13767767D03*
D22*
X31500000Y-1500000D03*
X35750000Y-1250000D03*
X52500000Y-1500000D03*
X45750000Y-1500000D03*
X25000000Y-44000000D03*
X7000000Y-33000000D03*
X8500000Y-21500000D03*
X11250000Y-24500000D03*
X20500000Y-27250000D03*
X28000000Y-20250000D03*
X20750000Y-12750000D03*
X22500000Y-10000000D03*
X59000000Y-7500000D03*
X45000000Y-15000000D03*
X40000000Y-20000000D03*
X56500000Y-27500000D03*
X50000000Y-35000000D03*
X56000000Y-43000000D03*
X45000000Y-43000000D03*
X35000000Y-44000000D03*
X19750000Y-18500000D03*
X42500000Y-32750000D03*
X37250000Y-25225000D03*
X36250000Y-25225000D03*
X24000000Y-20500000D03*
X23000000Y-20500000D03*
X7500000Y-18224990D03*
X5250000Y-37000000D03*
X5250000Y-45000000D03*
X12500000Y-41000000D03*
X11000000Y-18500000D03*
X10000000Y-18500000D03*
X19000000Y-8250000D03*
X19000000Y-7250000D03*
X18000000Y-7250000D03*
X17000000Y-7250000D03*
X16000000Y-7250000D03*
X16000000Y-8250000D03*
X19000000Y-9250000D03*
X16000000Y-9250000D03*
X15000000Y-7250000D03*
X14000000Y-7250000D03*
X15000000Y-8250000D03*
X14000000Y-8250000D03*
X15000000Y-9250000D03*
X14000000Y-9250000D03*
X19500000Y-17000000D03*
X20500000Y-17000000D03*
X20500000Y-18000000D03*
X20500000Y-19000000D03*
X20500000Y-20000000D03*
X19500000Y-20000000D03*
X43250000Y-37000000D03*
X52000000Y-20750000D03*
X43250000Y-27250000D03*
X48000000Y-29500000D03*
X25000000Y-15250000D03*
X31750000Y-20500000D03*
X30000000Y-21500000D03*
X4250000Y-7000000D03*
X53500000Y-31250000D03*
X55500000Y-31250000D03*
X24500000Y-12250000D03*
X6000000Y-8750000D03*
X8250000Y-8750000D03*
X49000000Y-18000000D03*
X7750000Y-28000000D03*
X10250000Y-28000000D03*
X7750000Y-29250000D03*
X10250000Y-29250000D03*
X23225000Y-22500000D03*
X23225000Y-26000000D03*
X24000000Y-21750000D03*
X24000000Y-25250000D03*
X42250000Y-7500000D03*
X42250000Y-8500000D03*
X42250000Y-9500000D03*
D10*
X33000000Y-21750000D02*
X32000000Y-21750000D01*
X33328249Y-21421751D02*
X33000000Y-21750000D01*
D23*
X25000000Y-13750000D02*
X24500000Y-13250000D01*
X24500000Y-13250000D02*
X24500000Y-12250000D01*
X25000000Y-15250000D02*
X25000000Y-13750000D01*
X30000000Y-20750000D02*
X30250000Y-20500000D01*
X30250000Y-20500000D02*
X31750000Y-20500000D01*
X30000000Y-21500000D02*
X30000000Y-20750000D01*
D24*
X7000000Y-8250000D02*
X5750000Y-7000000D01*
X5750000Y-7000000D02*
X4250000Y-7000000D01*
X55500000Y-31250000D02*
X53500000Y-31250000D01*
D23*
X6000000Y-8750000D02*
X2950000Y-8750000D01*
X2950000Y-8750000D02*
X2400000Y-9300000D01*
X8250000Y-8750000D02*
X11250000Y-8750000D01*
X11250000Y-8750000D02*
X11800000Y-9300000D01*
D24*
X7000000Y-9750000D02*
X7000000Y-8250000D01*
X8000000Y-10750000D02*
X7000000Y-9750000D01*
X11500000Y-11500000D02*
X8750000Y-11500000D01*
X8750000Y-11500000D02*
X8000000Y-10750000D01*
X13000000Y-13000000D02*
X11500000Y-11500000D01*
X15900000Y-13000000D02*
X13000000Y-13000000D01*
D23*
X48600000Y-15325000D02*
X48600000Y-17600000D01*
X48600000Y-17600000D02*
X49000000Y-18000000D01*
D24*
X10250000Y-28000000D02*
X7750000Y-28000000D01*
X10250000Y-29250000D02*
X7750000Y-29250000D01*
X23225000Y-26000000D02*
X23225000Y-22500000D01*
X24000000Y-25250000D02*
X24000000Y-21750000D01*
D10*
X42250000Y-8500000D02*
X42250000Y-7500000D01*
X42250000Y-9500000D02*
X42250000Y-8500000D01*
X34671751Y-20078249D02*
X42250000Y-12500000D01*
X42250000Y-12500000D02*
X42250000Y-9500000D01*
D25*
G36*
X33873000Y-7680472D02*
X33425391Y-7769507D01*
X32972172Y-8072339D01*
X32669340Y-8525558D01*
X32563000Y-9060167D01*
X32563000Y-9891833D01*
X32669340Y-10426442D01*
X32972172Y-10879661D01*
X33165657Y-11008944D01*
X33061974Y-11065370D01*
X32717941Y-11491059D01*
X32563000Y-12016000D01*
X32563000Y-12397000D01*
X33833000Y-12397000D01*
X33833000Y-12377000D01*
X33873000Y-12377000D01*
X33873000Y-12671000D01*
X33833000Y-12671000D01*
X33833000Y-12651000D01*
X32563000Y-12651000D01*
X32563000Y-13032000D01*
X32717941Y-13556941D01*
X33061974Y-13982630D01*
X33542723Y-14244260D01*
X33616930Y-14259220D01*
X33832998Y-14136721D01*
X33832998Y-14302000D01*
X33873000Y-14302000D01*
X33873000Y-17447394D01*
X31855302Y-19465092D01*
X31545029Y-19464821D01*
X31164485Y-19622058D01*
X31121468Y-19665000D01*
X30250000Y-19665000D01*
X29930459Y-19728561D01*
X29720424Y-19868902D01*
X29659566Y-19909566D01*
X29409566Y-20159566D01*
X29228561Y-20430459D01*
X29165000Y-20750000D01*
X29165000Y-20871108D01*
X29123081Y-20912954D01*
X28965180Y-21293223D01*
X28964821Y-21704971D01*
X29122058Y-22085515D01*
X29412954Y-22376919D01*
X29793223Y-22534820D01*
X30204971Y-22535179D01*
X30585515Y-22377942D01*
X30876919Y-22087046D01*
X31034820Y-21706777D01*
X31035144Y-21335000D01*
X31121108Y-21335000D01*
X31162954Y-21376919D01*
X31543223Y-21534820D01*
X31954971Y-21535179D01*
X32196001Y-21435588D01*
X32244763Y-21680730D01*
X32212032Y-21727126D01*
X32413861Y-22131038D01*
X32754897Y-22426968D01*
X33022874Y-22537968D01*
X33069270Y-22505237D01*
X33328249Y-22556751D01*
X33587228Y-22505237D01*
X33633624Y-22537968D01*
X34037536Y-22336139D01*
X34159192Y-22195940D01*
X35473903Y-20881229D01*
X35633396Y-20722014D01*
X35633593Y-20721539D01*
X42455132Y-13900000D01*
X46752560Y-13900000D01*
X46752560Y-16750000D01*
X46801843Y-16997765D01*
X46942191Y-17207809D01*
X47152235Y-17348157D01*
X47400000Y-17397440D01*
X47765000Y-17397440D01*
X47765000Y-17600000D01*
X47828561Y-17919541D01*
X47882322Y-18000000D01*
X47964892Y-18123574D01*
X47964821Y-18204971D01*
X48122058Y-18585515D01*
X48412954Y-18876919D01*
X48793223Y-19034820D01*
X49204971Y-19035179D01*
X49585515Y-18877942D01*
X49876919Y-18587046D01*
X50034820Y-18206777D01*
X50035179Y-17795029D01*
X49877942Y-17414485D01*
X49850833Y-17387329D01*
X50047765Y-17348157D01*
X50257809Y-17207809D01*
X50398157Y-16997765D01*
X50447440Y-16750000D01*
X50447440Y-15610750D01*
X56465000Y-15610750D01*
X56465000Y-16876310D01*
X56561673Y-17109699D01*
X56740302Y-17288327D01*
X56973691Y-17385000D01*
X58014250Y-17385000D01*
X58173000Y-17226250D01*
X58173000Y-15452000D01*
X56623750Y-15452000D01*
X56465000Y-15610750D01*
X50447440Y-15610750D01*
X50447440Y-13900000D01*
X50422316Y-13773690D01*
X56465000Y-13773690D01*
X56465000Y-15039250D01*
X56623750Y-15198000D01*
X58173000Y-15198000D01*
X58173000Y-13423750D01*
X58014250Y-13265000D01*
X56973691Y-13265000D01*
X56740302Y-13361673D01*
X56561673Y-13540301D01*
X56465000Y-13773690D01*
X50422316Y-13773690D01*
X50398157Y-13652235D01*
X50257809Y-13442191D01*
X50047765Y-13301843D01*
X49800000Y-13252560D01*
X47400000Y-13252560D01*
X47152235Y-13301843D01*
X46942191Y-13442191D01*
X46801843Y-13652235D01*
X46752560Y-13900000D01*
X42455132Y-13900000D01*
X43052567Y-13302566D01*
X43298604Y-12934345D01*
X43385000Y-12500000D01*
X43385000Y-12224775D01*
X49864803Y-12224775D01*
X50037233Y-12642086D01*
X50356235Y-12961645D01*
X50773244Y-13134803D01*
X51224775Y-13135197D01*
X51642086Y-12962767D01*
X51961645Y-12643765D01*
X52134803Y-12226756D01*
X52134804Y-12224775D01*
X55864803Y-12224775D01*
X56037233Y-12642086D01*
X56356235Y-12961645D01*
X56773244Y-13134803D01*
X57224775Y-13135197D01*
X57642086Y-12962767D01*
X57961645Y-12643765D01*
X58134803Y-12226756D01*
X58135197Y-11775225D01*
X57962767Y-11357914D01*
X57643765Y-11038355D01*
X57226756Y-10865197D01*
X56775225Y-10864803D01*
X56357914Y-11037233D01*
X56038355Y-11356235D01*
X55865197Y-11773244D01*
X55864803Y-12224775D01*
X52134804Y-12224775D01*
X52135197Y-11775225D01*
X51962767Y-11357914D01*
X51643765Y-11038355D01*
X51226756Y-10865197D01*
X50775225Y-10864803D01*
X50357914Y-11037233D01*
X50038355Y-11356235D01*
X49865197Y-11773244D01*
X49864803Y-12224775D01*
X43385000Y-12224775D01*
X43385000Y-8960750D01*
X46765000Y-8960750D01*
X46765000Y-10226310D01*
X46861673Y-10459699D01*
X47040302Y-10638327D01*
X47273691Y-10735000D01*
X48314250Y-10735000D01*
X48473000Y-10576250D01*
X48473000Y-8802000D01*
X48727000Y-8802000D01*
X48727000Y-10576250D01*
X48885750Y-10735000D01*
X49926309Y-10735000D01*
X50159698Y-10638327D01*
X50338327Y-10459699D01*
X50435000Y-10226310D01*
X50435000Y-8960750D01*
X50276250Y-8802000D01*
X48727000Y-8802000D01*
X48473000Y-8802000D01*
X46923750Y-8802000D01*
X46765000Y-8960750D01*
X43385000Y-8960750D01*
X43385000Y-7500000D01*
X43310148Y-7123690D01*
X46765000Y-7123690D01*
X46765000Y-8389250D01*
X46923750Y-8548000D01*
X48473000Y-8548000D01*
X48473000Y-6773750D01*
X48727000Y-6773750D01*
X48727000Y-8548000D01*
X50276250Y-8548000D01*
X50435000Y-8389250D01*
X50435000Y-7123690D01*
X50338327Y-6890301D01*
X50159698Y-6711673D01*
X49926309Y-6615000D01*
X48885750Y-6615000D01*
X48727000Y-6773750D01*
X48473000Y-6773750D01*
X48314250Y-6615000D01*
X47273691Y-6615000D01*
X47040302Y-6711673D01*
X46861673Y-6890301D01*
X46765000Y-7123690D01*
X43310148Y-7123690D01*
X43298603Y-7065654D01*
X43052566Y-6697434D01*
X42684346Y-6451397D01*
X42250000Y-6365000D01*
X41815654Y-6451397D01*
X41447434Y-6697434D01*
X41201397Y-7065654D01*
X41115000Y-7500000D01*
X41115000Y-12029867D01*
X40437000Y-12707867D01*
X40437000Y-12108167D01*
X40330660Y-11573558D01*
X40079323Y-11197407D01*
X40259809Y-11076809D01*
X40400157Y-10866765D01*
X40449440Y-10619000D01*
X40449440Y-8333000D01*
X40400157Y-8085235D01*
X40259809Y-7875191D01*
X40049765Y-7734843D01*
X39802000Y-7685560D01*
X38278000Y-7685560D01*
X38030235Y-7734843D01*
X37820191Y-7875191D01*
X37679843Y-8085235D01*
X37637772Y-8296745D01*
X37487828Y-8072339D01*
X37034609Y-7769507D01*
X36500000Y-7663167D01*
X35965391Y-7769507D01*
X35512172Y-8072339D01*
X35230000Y-8494638D01*
X35127000Y-8340488D01*
X35127000Y-735000D01*
X53623000Y-735000D01*
X53623000Y-4500000D01*
X53632667Y-4548601D01*
X53660197Y-4589803D01*
X55410197Y-6339803D01*
X55451399Y-6367333D01*
X55500000Y-6377000D01*
X59265000Y-6377000D01*
X59265000Y-13265000D01*
X58585750Y-13265000D01*
X58427000Y-13423750D01*
X58427000Y-15198000D01*
X58447000Y-15198000D01*
X58447000Y-15452000D01*
X58427000Y-15452000D01*
X58427000Y-17226250D01*
X58585750Y-17385000D01*
X59265000Y-17385000D01*
X59265000Y-49265000D01*
X30627000Y-49265000D01*
X30627000Y-36353963D01*
X31366201Y-36048531D01*
X32046144Y-35369774D01*
X32414580Y-34482481D01*
X32415419Y-33521734D01*
X32048531Y-32633799D01*
X31369774Y-31953856D01*
X30627000Y-31645429D01*
X30627000Y-31454971D01*
X52464821Y-31454971D01*
X52622058Y-31835515D01*
X52912954Y-32126919D01*
X53293223Y-32284820D01*
X53704971Y-32285179D01*
X54085515Y-32127942D01*
X54203663Y-32010000D01*
X54796239Y-32010000D01*
X54912954Y-32126919D01*
X55293223Y-32284820D01*
X55704971Y-32285179D01*
X56085515Y-32127942D01*
X56376919Y-31837046D01*
X56534820Y-31456777D01*
X56535179Y-31045029D01*
X56377942Y-30664485D01*
X56087046Y-30373081D01*
X55706777Y-30215180D01*
X55295029Y-30214821D01*
X54914485Y-30372058D01*
X54796337Y-30490000D01*
X54203761Y-30490000D01*
X54087046Y-30373081D01*
X53706777Y-30215180D01*
X53295029Y-30214821D01*
X52914485Y-30372058D01*
X52623081Y-30662954D01*
X52465180Y-31043223D01*
X52464821Y-31454971D01*
X30627000Y-31454971D01*
X30627000Y-24000000D01*
X30617333Y-23951399D01*
X30589803Y-23910197D01*
X30548601Y-23882667D01*
X30500000Y-23873000D01*
X29500000Y-23873000D01*
X29451399Y-23882667D01*
X29410197Y-23910197D01*
X29382667Y-23951399D01*
X29373000Y-24000000D01*
X29373000Y-31646037D01*
X28633799Y-31951469D01*
X27953856Y-32630226D01*
X27585420Y-33517519D01*
X27584581Y-34478266D01*
X27951469Y-35366201D01*
X28630226Y-36046144D01*
X29373000Y-36354571D01*
X29373000Y-49265000D01*
X735000Y-49265000D01*
X735000Y-41118795D01*
X2204716Y-41118795D01*
X2453106Y-41719943D01*
X2912637Y-42180278D01*
X3513352Y-42429716D01*
X4163795Y-42430284D01*
X4764943Y-42181894D01*
X5225278Y-41722363D01*
X5474716Y-41121648D01*
X5475284Y-40471205D01*
X5226894Y-39870057D01*
X4767363Y-39409722D01*
X4166648Y-39160284D01*
X3516205Y-39159716D01*
X2915057Y-39408106D01*
X2454722Y-39867637D01*
X2205284Y-40468352D01*
X2204716Y-41118795D01*
X735000Y-41118795D01*
X735000Y-28357532D01*
X2867073Y-28357532D01*
X2965736Y-28624387D01*
X3575461Y-28850908D01*
X4225460Y-28826856D01*
X4714264Y-28624387D01*
X4812927Y-28357532D01*
X4660366Y-28204971D01*
X6714821Y-28204971D01*
X6872058Y-28585515D01*
X6911288Y-28624814D01*
X6873081Y-28662954D01*
X6715180Y-29043223D01*
X6714821Y-29454971D01*
X6872058Y-29835515D01*
X7162954Y-30126919D01*
X7543223Y-30284820D01*
X7954971Y-30285179D01*
X8335515Y-30127942D01*
X8453663Y-30010000D01*
X9546239Y-30010000D01*
X9662954Y-30126919D01*
X10043223Y-30284820D01*
X10454971Y-30285179D01*
X10835515Y-30127942D01*
X11126919Y-29837046D01*
X11266872Y-29500000D01*
X14687167Y-29500000D01*
X14793507Y-30034609D01*
X15096339Y-30487828D01*
X15518638Y-30770000D01*
X15096339Y-31052172D01*
X14793507Y-31505391D01*
X14687167Y-32040000D01*
X14793507Y-32574609D01*
X15096339Y-33027828D01*
X15549558Y-33330660D01*
X16084167Y-33437000D01*
X16915833Y-33437000D01*
X17450442Y-33330660D01*
X17903661Y-33027828D01*
X18206493Y-32574609D01*
X18312833Y-32040000D01*
X18206493Y-31505391D01*
X17903661Y-31052172D01*
X17481362Y-30770000D01*
X17903661Y-30487828D01*
X18206493Y-30034609D01*
X18312833Y-29500000D01*
X18206493Y-28965391D01*
X17903661Y-28512172D01*
X17671430Y-28357000D01*
X17769310Y-28357000D01*
X18002699Y-28260327D01*
X18181327Y-28081698D01*
X18278000Y-27848309D01*
X18278000Y-27245750D01*
X18119250Y-27087000D01*
X16627000Y-27087000D01*
X16627000Y-27107000D01*
X16373000Y-27107000D01*
X16373000Y-27087000D01*
X14880750Y-27087000D01*
X14722000Y-27245750D01*
X14722000Y-27848309D01*
X14818673Y-28081698D01*
X14997301Y-28260327D01*
X15230690Y-28357000D01*
X15328570Y-28357000D01*
X15096339Y-28512172D01*
X14793507Y-28965391D01*
X14687167Y-29500000D01*
X11266872Y-29500000D01*
X11284820Y-29456777D01*
X11285179Y-29045029D01*
X11127942Y-28664485D01*
X11088712Y-28625186D01*
X11126919Y-28587046D01*
X11284820Y-28206777D01*
X11285179Y-27795029D01*
X11127942Y-27414485D01*
X10837046Y-27123081D01*
X10456777Y-26965180D01*
X10045029Y-26964821D01*
X9664485Y-27122058D01*
X9546337Y-27240000D01*
X8453761Y-27240000D01*
X8337046Y-27123081D01*
X7956777Y-26965180D01*
X7545029Y-26964821D01*
X7164485Y-27122058D01*
X6873081Y-27412954D01*
X6715180Y-27793223D01*
X6714821Y-28204971D01*
X4660366Y-28204971D01*
X3840000Y-27384605D01*
X2867073Y-28357532D01*
X735000Y-28357532D01*
X735000Y-26940461D01*
X2194092Y-26940461D01*
X2218144Y-27590460D01*
X2420613Y-28079264D01*
X2687468Y-28177927D01*
X3660395Y-27205000D01*
X4019605Y-27205000D01*
X4992532Y-28177927D01*
X5259387Y-28079264D01*
X5485908Y-27469539D01*
X5461856Y-26819540D01*
X5259387Y-26330736D01*
X4992532Y-26232073D01*
X4019605Y-27205000D01*
X3660395Y-27205000D01*
X2687468Y-26232073D01*
X2420613Y-26330736D01*
X2194092Y-26940461D01*
X735000Y-26940461D01*
X735000Y-26052468D01*
X2867073Y-26052468D01*
X3840000Y-27025395D01*
X4793704Y-26071691D01*
X14722000Y-26071691D01*
X14722000Y-26674250D01*
X14880750Y-26833000D01*
X16373000Y-26833000D01*
X16373000Y-25721750D01*
X16627000Y-25721750D01*
X16627000Y-26833000D01*
X18119250Y-26833000D01*
X18278000Y-26674250D01*
X18278000Y-26071691D01*
X18181327Y-25838302D01*
X18002699Y-25659673D01*
X17769310Y-25563000D01*
X16785750Y-25563000D01*
X16627000Y-25721750D01*
X16373000Y-25721750D01*
X16214250Y-25563000D01*
X15230690Y-25563000D01*
X14997301Y-25659673D01*
X14818673Y-25838302D01*
X14722000Y-26071691D01*
X4793704Y-26071691D01*
X4812927Y-26052468D01*
X4714264Y-25785613D01*
X4104539Y-25559092D01*
X3454540Y-25583144D01*
X2965736Y-25785613D01*
X2867073Y-26052468D01*
X735000Y-26052468D01*
X735000Y-24475275D01*
X2244331Y-24475275D01*
X2306169Y-24711042D01*
X2807122Y-24887419D01*
X3337440Y-24858664D01*
X3693831Y-24711042D01*
X3755669Y-24475275D01*
X3000000Y-23719605D01*
X2244331Y-24475275D01*
X735000Y-24475275D01*
X735000Y-23347122D01*
X1652581Y-23347122D01*
X1681336Y-23877440D01*
X1828958Y-24233831D01*
X2064725Y-24295669D01*
X2820395Y-23540000D01*
X3179605Y-23540000D01*
X3935275Y-24295669D01*
X4171042Y-24233831D01*
X4347419Y-23732878D01*
X4318664Y-23202560D01*
X4171042Y-22846169D01*
X3935275Y-22784331D01*
X3179605Y-23540000D01*
X2820395Y-23540000D01*
X2064725Y-22784331D01*
X1828958Y-22846169D01*
X1652581Y-23347122D01*
X735000Y-23347122D01*
X735000Y-18724383D01*
X1664769Y-18724383D01*
X1867582Y-19215229D01*
X2242796Y-19591098D01*
X2577527Y-19730091D01*
X2244771Y-19867582D01*
X1868902Y-20242796D01*
X1665232Y-20733287D01*
X1664769Y-21264383D01*
X1867582Y-21755229D01*
X2242796Y-22131098D01*
X2561212Y-22263316D01*
X2306169Y-22368958D01*
X2244331Y-22604725D01*
X3000000Y-23360395D01*
X3655423Y-22704971D01*
X22189821Y-22704971D01*
X22347058Y-23085515D01*
X22465000Y-23203663D01*
X22465000Y-25296239D01*
X22348081Y-25412954D01*
X22190180Y-25793223D01*
X22189821Y-26204971D01*
X22347058Y-26585515D01*
X22637954Y-26876919D01*
X23018223Y-27034820D01*
X23429971Y-27035179D01*
X23810515Y-26877942D01*
X24101919Y-26587046D01*
X24231882Y-26274060D01*
X24585515Y-26127942D01*
X24876919Y-25837046D01*
X25034820Y-25456777D01*
X25035179Y-25045029D01*
X24877942Y-24664485D01*
X24760000Y-24546337D01*
X24760000Y-22453761D01*
X24876919Y-22337046D01*
X25034820Y-21956777D01*
X25035179Y-21545029D01*
X24877942Y-21164485D01*
X24587046Y-20873081D01*
X24206777Y-20715180D01*
X23795029Y-20714821D01*
X23414485Y-20872058D01*
X23123081Y-21162954D01*
X22993118Y-21475940D01*
X22639485Y-21622058D01*
X22348081Y-21912954D01*
X22190180Y-22293223D01*
X22189821Y-22704971D01*
X3655423Y-22704971D01*
X3755669Y-22604725D01*
X3693831Y-22368958D01*
X3417889Y-22271804D01*
X3755229Y-22132418D01*
X4131098Y-21757204D01*
X4334768Y-21266713D01*
X4335231Y-20735617D01*
X4132418Y-20244771D01*
X3757204Y-19868902D01*
X3422473Y-19729909D01*
X3755229Y-19592418D01*
X4131098Y-19217204D01*
X4334768Y-18726713D01*
X4335231Y-18195617D01*
X4132418Y-17704771D01*
X3757204Y-17328902D01*
X3266713Y-17125232D01*
X2735617Y-17124769D01*
X2244771Y-17327582D01*
X1868902Y-17702796D01*
X1665232Y-18193287D01*
X1664769Y-18724383D01*
X735000Y-18724383D01*
X735000Y-13294089D01*
X2014743Y-13294089D01*
X2240344Y-13840086D01*
X2657717Y-14258188D01*
X3203319Y-14484742D01*
X3794089Y-14485257D01*
X4340086Y-14259656D01*
X4758188Y-13842283D01*
X4984742Y-13296681D01*
X4985257Y-12705911D01*
X4759656Y-12159914D01*
X4342283Y-11741812D01*
X3796681Y-11515258D01*
X3205911Y-11514743D01*
X2659914Y-11740344D01*
X2241812Y-12157717D01*
X2015258Y-12703319D01*
X2014743Y-13294089D01*
X735000Y-13294089D01*
X735000Y-10997388D01*
X842191Y-11157809D01*
X1052235Y-11298157D01*
X1300000Y-11347440D01*
X3500000Y-11347440D01*
X3747765Y-11298157D01*
X3957809Y-11157809D01*
X4098157Y-10947765D01*
X4147440Y-10700000D01*
X4147440Y-9585000D01*
X5371108Y-9585000D01*
X5412954Y-9626919D01*
X5793223Y-9784820D01*
X6204971Y-9785179D01*
X6243806Y-9769133D01*
X6297852Y-10040839D01*
X6462599Y-10287401D01*
X8212599Y-12037401D01*
X8459160Y-12202148D01*
X8750000Y-12260000D01*
X9199340Y-12260000D01*
X9015258Y-12703319D01*
X9014743Y-13294089D01*
X9240344Y-13840086D01*
X9657717Y-14258188D01*
X10203319Y-14484742D01*
X10794089Y-14485257D01*
X11340086Y-14259656D01*
X11758188Y-13842283D01*
X11984742Y-13296681D01*
X11984949Y-13059751D01*
X12462599Y-13537401D01*
X12709160Y-13702148D01*
X13000000Y-13760000D01*
X13852560Y-13760000D01*
X13852560Y-14400000D01*
X13901843Y-14647765D01*
X14042191Y-14857809D01*
X14252235Y-14998157D01*
X14500000Y-15047440D01*
X17300000Y-15047440D01*
X17547765Y-14998157D01*
X17757809Y-14857809D01*
X17898157Y-14647765D01*
X17947440Y-14400000D01*
X17947440Y-14022248D01*
X20947010Y-14022248D01*
X21142228Y-14494710D01*
X21503388Y-14856502D01*
X21975509Y-15052544D01*
X22486714Y-15052990D01*
X22959176Y-14857772D01*
X23320968Y-14496612D01*
X23517010Y-14024491D01*
X23517456Y-13513286D01*
X23322238Y-13040824D01*
X22961078Y-12679032D01*
X22488957Y-12482990D01*
X21977752Y-12482544D01*
X21505290Y-12677762D01*
X21143498Y-13038922D01*
X20947456Y-13511043D01*
X20947010Y-14022248D01*
X17947440Y-14022248D01*
X17947440Y-12454971D01*
X23464821Y-12454971D01*
X23622058Y-12835515D01*
X23665000Y-12878532D01*
X23665000Y-13250000D01*
X23728561Y-13569541D01*
X23849140Y-13750000D01*
X23909566Y-13840434D01*
X24165000Y-14095868D01*
X24165000Y-14621108D01*
X24123081Y-14662954D01*
X23965180Y-15043223D01*
X23964821Y-15454971D01*
X24122058Y-15835515D01*
X24412954Y-16126919D01*
X24793223Y-16284820D01*
X25204971Y-16285179D01*
X25585515Y-16127942D01*
X25876919Y-15837046D01*
X26034820Y-15456777D01*
X26035179Y-15045029D01*
X25877942Y-14664485D01*
X25835000Y-14621468D01*
X25835000Y-13750000D01*
X25812125Y-13635000D01*
X25771440Y-13430460D01*
X25590434Y-13159566D01*
X25335000Y-12904132D01*
X25335000Y-12878892D01*
X25376919Y-12837046D01*
X25534820Y-12456777D01*
X25535179Y-12045029D01*
X25377942Y-11664485D01*
X25087046Y-11373081D01*
X24706777Y-11215180D01*
X24295029Y-11214821D01*
X23914485Y-11372058D01*
X23623081Y-11662954D01*
X23465180Y-12043223D01*
X23464821Y-12454971D01*
X17947440Y-12454971D01*
X17947440Y-11600000D01*
X17898157Y-11352235D01*
X17757809Y-11142191D01*
X17547765Y-11001843D01*
X17300000Y-10952560D01*
X14500000Y-10952560D01*
X14252235Y-11001843D01*
X14042191Y-11142191D01*
X13901843Y-11352235D01*
X13852560Y-11600000D01*
X13852560Y-12240000D01*
X13314802Y-12240000D01*
X12422242Y-11347440D01*
X13200000Y-11347440D01*
X13447765Y-11298157D01*
X13657809Y-11157809D01*
X13798157Y-10947765D01*
X13847440Y-10700000D01*
X13847440Y-10486714D01*
X24482544Y-10486714D01*
X24677762Y-10959176D01*
X25038922Y-11320968D01*
X25511043Y-11517010D01*
X26022248Y-11517456D01*
X26494710Y-11322238D01*
X26856502Y-10961078D01*
X27052544Y-10488957D01*
X27052990Y-9977752D01*
X26857772Y-9505290D01*
X26496612Y-9143498D01*
X26024491Y-8947456D01*
X25513286Y-8947010D01*
X25040824Y-9142228D01*
X24679032Y-9503388D01*
X24482990Y-9975509D01*
X24482544Y-10486714D01*
X13847440Y-10486714D01*
X13847440Y-7900000D01*
X13798157Y-7652235D01*
X13657809Y-7442191D01*
X13447765Y-7301843D01*
X13200000Y-7252560D01*
X10400000Y-7252560D01*
X10152235Y-7301843D01*
X9942191Y-7442191D01*
X9801843Y-7652235D01*
X9752560Y-7900000D01*
X9752560Y-7915000D01*
X8878892Y-7915000D01*
X8837046Y-7873081D01*
X8456777Y-7715180D01*
X8045029Y-7714821D01*
X7664485Y-7872058D01*
X7652165Y-7884356D01*
X7537401Y-7712599D01*
X6287401Y-6462599D01*
X6040839Y-6297852D01*
X5750000Y-6240000D01*
X4953761Y-6240000D01*
X4837046Y-6123081D01*
X4815480Y-6114126D01*
X6339803Y-4589803D01*
X6367333Y-4548601D01*
X6377000Y-4500000D01*
X6377000Y-4000000D01*
X6850786Y-4000000D01*
X7014385Y-4822469D01*
X7480276Y-5519724D01*
X8177531Y-5985615D01*
X9000000Y-6149214D01*
X9822469Y-5985615D01*
X10519724Y-5519724D01*
X10985615Y-4822469D01*
X11000000Y-4750151D01*
X11014385Y-4822469D01*
X11480276Y-5519724D01*
X12177531Y-5985615D01*
X13000000Y-6149214D01*
X13822469Y-5985615D01*
X14519724Y-5519724D01*
X14985615Y-4822469D01*
X15149214Y-4000000D01*
X14985615Y-3177531D01*
X14686585Y-2730000D01*
X15187167Y-2730000D01*
X15293507Y-3264609D01*
X15596339Y-3717828D01*
X16018638Y-4000000D01*
X15596339Y-4282172D01*
X15293507Y-4735391D01*
X15187167Y-5270000D01*
X15293507Y-5804609D01*
X15596339Y-6257828D01*
X16049558Y-6560660D01*
X16584167Y-6667000D01*
X17415833Y-6667000D01*
X17950442Y-6560660D01*
X18403661Y-6257828D01*
X18706493Y-5804609D01*
X18812833Y-5270000D01*
X18706493Y-4735391D01*
X18403661Y-4282172D01*
X17981362Y-4000000D01*
X18403661Y-3717828D01*
X18706493Y-3264609D01*
X18812833Y-2730000D01*
X18706493Y-2195391D01*
X18403661Y-1742172D01*
X17950442Y-1439340D01*
X17415833Y-1333000D01*
X16584167Y-1333000D01*
X16049558Y-1439340D01*
X15596339Y-1742172D01*
X15293507Y-2195391D01*
X15187167Y-2730000D01*
X14686585Y-2730000D01*
X14519724Y-2480276D01*
X13822469Y-2014385D01*
X13000000Y-1850786D01*
X12177531Y-2014385D01*
X11480276Y-2480276D01*
X11014385Y-3177531D01*
X11000000Y-3249849D01*
X10985615Y-3177531D01*
X10519724Y-2480276D01*
X9822469Y-2014385D01*
X9000000Y-1850786D01*
X8177531Y-2014385D01*
X7480276Y-2480276D01*
X7014385Y-3177531D01*
X6850786Y-4000000D01*
X6377000Y-4000000D01*
X6377000Y-735000D01*
X33873000Y-735000D01*
X33873000Y-7680472D01*
X33873000Y-7680472D01*
G37*
X33873000Y-7680472D02*
X33425391Y-7769507D01*
X32972172Y-8072339D01*
X32669340Y-8525558D01*
X32563000Y-9060167D01*
X32563000Y-9891833D01*
X32669340Y-10426442D01*
X32972172Y-10879661D01*
X33165657Y-11008944D01*
X33061974Y-11065370D01*
X32717941Y-11491059D01*
X32563000Y-12016000D01*
X32563000Y-12397000D01*
X33833000Y-12397000D01*
X33833000Y-12377000D01*
X33873000Y-12377000D01*
X33873000Y-12671000D01*
X33833000Y-12671000D01*
X33833000Y-12651000D01*
X32563000Y-12651000D01*
X32563000Y-13032000D01*
X32717941Y-13556941D01*
X33061974Y-13982630D01*
X33542723Y-14244260D01*
X33616930Y-14259220D01*
X33832998Y-14136721D01*
X33832998Y-14302000D01*
X33873000Y-14302000D01*
X33873000Y-17447394D01*
X31855302Y-19465092D01*
X31545029Y-19464821D01*
X31164485Y-19622058D01*
X31121468Y-19665000D01*
X30250000Y-19665000D01*
X29930459Y-19728561D01*
X29720424Y-19868902D01*
X29659566Y-19909566D01*
X29409566Y-20159566D01*
X29228561Y-20430459D01*
X29165000Y-20750000D01*
X29165000Y-20871108D01*
X29123081Y-20912954D01*
X28965180Y-21293223D01*
X28964821Y-21704971D01*
X29122058Y-22085515D01*
X29412954Y-22376919D01*
X29793223Y-22534820D01*
X30204971Y-22535179D01*
X30585515Y-22377942D01*
X30876919Y-22087046D01*
X31034820Y-21706777D01*
X31035144Y-21335000D01*
X31121108Y-21335000D01*
X31162954Y-21376919D01*
X31543223Y-21534820D01*
X31954971Y-21535179D01*
X32196001Y-21435588D01*
X32244763Y-21680730D01*
X32212032Y-21727126D01*
X32413861Y-22131038D01*
X32754897Y-22426968D01*
X33022874Y-22537968D01*
X33069270Y-22505237D01*
X33328249Y-22556751D01*
X33587228Y-22505237D01*
X33633624Y-22537968D01*
X34037536Y-22336139D01*
X34159192Y-22195940D01*
X35473903Y-20881229D01*
X35633396Y-20722014D01*
X35633593Y-20721539D01*
X42455132Y-13900000D01*
X46752560Y-13900000D01*
X46752560Y-16750000D01*
X46801843Y-16997765D01*
X46942191Y-17207809D01*
X47152235Y-17348157D01*
X47400000Y-17397440D01*
X47765000Y-17397440D01*
X47765000Y-17600000D01*
X47828561Y-17919541D01*
X47882322Y-18000000D01*
X47964892Y-18123574D01*
X47964821Y-18204971D01*
X48122058Y-18585515D01*
X48412954Y-18876919D01*
X48793223Y-19034820D01*
X49204971Y-19035179D01*
X49585515Y-18877942D01*
X49876919Y-18587046D01*
X50034820Y-18206777D01*
X50035179Y-17795029D01*
X49877942Y-17414485D01*
X49850833Y-17387329D01*
X50047765Y-17348157D01*
X50257809Y-17207809D01*
X50398157Y-16997765D01*
X50447440Y-16750000D01*
X50447440Y-15610750D01*
X56465000Y-15610750D01*
X56465000Y-16876310D01*
X56561673Y-17109699D01*
X56740302Y-17288327D01*
X56973691Y-17385000D01*
X58014250Y-17385000D01*
X58173000Y-17226250D01*
X58173000Y-15452000D01*
X56623750Y-15452000D01*
X56465000Y-15610750D01*
X50447440Y-15610750D01*
X50447440Y-13900000D01*
X50422316Y-13773690D01*
X56465000Y-13773690D01*
X56465000Y-15039250D01*
X56623750Y-15198000D01*
X58173000Y-15198000D01*
X58173000Y-13423750D01*
X58014250Y-13265000D01*
X56973691Y-13265000D01*
X56740302Y-13361673D01*
X56561673Y-13540301D01*
X56465000Y-13773690D01*
X50422316Y-13773690D01*
X50398157Y-13652235D01*
X50257809Y-13442191D01*
X50047765Y-13301843D01*
X49800000Y-13252560D01*
X47400000Y-13252560D01*
X47152235Y-13301843D01*
X46942191Y-13442191D01*
X46801843Y-13652235D01*
X46752560Y-13900000D01*
X42455132Y-13900000D01*
X43052567Y-13302566D01*
X43298604Y-12934345D01*
X43385000Y-12500000D01*
X43385000Y-12224775D01*
X49864803Y-12224775D01*
X50037233Y-12642086D01*
X50356235Y-12961645D01*
X50773244Y-13134803D01*
X51224775Y-13135197D01*
X51642086Y-12962767D01*
X51961645Y-12643765D01*
X52134803Y-12226756D01*
X52134804Y-12224775D01*
X55864803Y-12224775D01*
X56037233Y-12642086D01*
X56356235Y-12961645D01*
X56773244Y-13134803D01*
X57224775Y-13135197D01*
X57642086Y-12962767D01*
X57961645Y-12643765D01*
X58134803Y-12226756D01*
X58135197Y-11775225D01*
X57962767Y-11357914D01*
X57643765Y-11038355D01*
X57226756Y-10865197D01*
X56775225Y-10864803D01*
X56357914Y-11037233D01*
X56038355Y-11356235D01*
X55865197Y-11773244D01*
X55864803Y-12224775D01*
X52134804Y-12224775D01*
X52135197Y-11775225D01*
X51962767Y-11357914D01*
X51643765Y-11038355D01*
X51226756Y-10865197D01*
X50775225Y-10864803D01*
X50357914Y-11037233D01*
X50038355Y-11356235D01*
X49865197Y-11773244D01*
X49864803Y-12224775D01*
X43385000Y-12224775D01*
X43385000Y-8960750D01*
X46765000Y-8960750D01*
X46765000Y-10226310D01*
X46861673Y-10459699D01*
X47040302Y-10638327D01*
X47273691Y-10735000D01*
X48314250Y-10735000D01*
X48473000Y-10576250D01*
X48473000Y-8802000D01*
X48727000Y-8802000D01*
X48727000Y-10576250D01*
X48885750Y-10735000D01*
X49926309Y-10735000D01*
X50159698Y-10638327D01*
X50338327Y-10459699D01*
X50435000Y-10226310D01*
X50435000Y-8960750D01*
X50276250Y-8802000D01*
X48727000Y-8802000D01*
X48473000Y-8802000D01*
X46923750Y-8802000D01*
X46765000Y-8960750D01*
X43385000Y-8960750D01*
X43385000Y-7500000D01*
X43310148Y-7123690D01*
X46765000Y-7123690D01*
X46765000Y-8389250D01*
X46923750Y-8548000D01*
X48473000Y-8548000D01*
X48473000Y-6773750D01*
X48727000Y-6773750D01*
X48727000Y-8548000D01*
X50276250Y-8548000D01*
X50435000Y-8389250D01*
X50435000Y-7123690D01*
X50338327Y-6890301D01*
X50159698Y-6711673D01*
X49926309Y-6615000D01*
X48885750Y-6615000D01*
X48727000Y-6773750D01*
X48473000Y-6773750D01*
X48314250Y-6615000D01*
X47273691Y-6615000D01*
X47040302Y-6711673D01*
X46861673Y-6890301D01*
X46765000Y-7123690D01*
X43310148Y-7123690D01*
X43298603Y-7065654D01*
X43052566Y-6697434D01*
X42684346Y-6451397D01*
X42250000Y-6365000D01*
X41815654Y-6451397D01*
X41447434Y-6697434D01*
X41201397Y-7065654D01*
X41115000Y-7500000D01*
X41115000Y-12029867D01*
X40437000Y-12707867D01*
X40437000Y-12108167D01*
X40330660Y-11573558D01*
X40079323Y-11197407D01*
X40259809Y-11076809D01*
X40400157Y-10866765D01*
X40449440Y-10619000D01*
X40449440Y-8333000D01*
X40400157Y-8085235D01*
X40259809Y-7875191D01*
X40049765Y-7734843D01*
X39802000Y-7685560D01*
X38278000Y-7685560D01*
X38030235Y-7734843D01*
X37820191Y-7875191D01*
X37679843Y-8085235D01*
X37637772Y-8296745D01*
X37487828Y-8072339D01*
X37034609Y-7769507D01*
X36500000Y-7663167D01*
X35965391Y-7769507D01*
X35512172Y-8072339D01*
X35230000Y-8494638D01*
X35127000Y-8340488D01*
X35127000Y-735000D01*
X53623000Y-735000D01*
X53623000Y-4500000D01*
X53632667Y-4548601D01*
X53660197Y-4589803D01*
X55410197Y-6339803D01*
X55451399Y-6367333D01*
X55500000Y-6377000D01*
X59265000Y-6377000D01*
X59265000Y-13265000D01*
X58585750Y-13265000D01*
X58427000Y-13423750D01*
X58427000Y-15198000D01*
X58447000Y-15198000D01*
X58447000Y-15452000D01*
X58427000Y-15452000D01*
X58427000Y-17226250D01*
X58585750Y-17385000D01*
X59265000Y-17385000D01*
X59265000Y-49265000D01*
X30627000Y-49265000D01*
X30627000Y-36353963D01*
X31366201Y-36048531D01*
X32046144Y-35369774D01*
X32414580Y-34482481D01*
X32415419Y-33521734D01*
X32048531Y-32633799D01*
X31369774Y-31953856D01*
X30627000Y-31645429D01*
X30627000Y-31454971D01*
X52464821Y-31454971D01*
X52622058Y-31835515D01*
X52912954Y-32126919D01*
X53293223Y-32284820D01*
X53704971Y-32285179D01*
X54085515Y-32127942D01*
X54203663Y-32010000D01*
X54796239Y-32010000D01*
X54912954Y-32126919D01*
X55293223Y-32284820D01*
X55704971Y-32285179D01*
X56085515Y-32127942D01*
X56376919Y-31837046D01*
X56534820Y-31456777D01*
X56535179Y-31045029D01*
X56377942Y-30664485D01*
X56087046Y-30373081D01*
X55706777Y-30215180D01*
X55295029Y-30214821D01*
X54914485Y-30372058D01*
X54796337Y-30490000D01*
X54203761Y-30490000D01*
X54087046Y-30373081D01*
X53706777Y-30215180D01*
X53295029Y-30214821D01*
X52914485Y-30372058D01*
X52623081Y-30662954D01*
X52465180Y-31043223D01*
X52464821Y-31454971D01*
X30627000Y-31454971D01*
X30627000Y-24000000D01*
X30617333Y-23951399D01*
X30589803Y-23910197D01*
X30548601Y-23882667D01*
X30500000Y-23873000D01*
X29500000Y-23873000D01*
X29451399Y-23882667D01*
X29410197Y-23910197D01*
X29382667Y-23951399D01*
X29373000Y-24000000D01*
X29373000Y-31646037D01*
X28633799Y-31951469D01*
X27953856Y-32630226D01*
X27585420Y-33517519D01*
X27584581Y-34478266D01*
X27951469Y-35366201D01*
X28630226Y-36046144D01*
X29373000Y-36354571D01*
X29373000Y-49265000D01*
X735000Y-49265000D01*
X735000Y-41118795D01*
X2204716Y-41118795D01*
X2453106Y-41719943D01*
X2912637Y-42180278D01*
X3513352Y-42429716D01*
X4163795Y-42430284D01*
X4764943Y-42181894D01*
X5225278Y-41722363D01*
X5474716Y-41121648D01*
X5475284Y-40471205D01*
X5226894Y-39870057D01*
X4767363Y-39409722D01*
X4166648Y-39160284D01*
X3516205Y-39159716D01*
X2915057Y-39408106D01*
X2454722Y-39867637D01*
X2205284Y-40468352D01*
X2204716Y-41118795D01*
X735000Y-41118795D01*
X735000Y-28357532D01*
X2867073Y-28357532D01*
X2965736Y-28624387D01*
X3575461Y-28850908D01*
X4225460Y-28826856D01*
X4714264Y-28624387D01*
X4812927Y-28357532D01*
X4660366Y-28204971D01*
X6714821Y-28204971D01*
X6872058Y-28585515D01*
X6911288Y-28624814D01*
X6873081Y-28662954D01*
X6715180Y-29043223D01*
X6714821Y-29454971D01*
X6872058Y-29835515D01*
X7162954Y-30126919D01*
X7543223Y-30284820D01*
X7954971Y-30285179D01*
X8335515Y-30127942D01*
X8453663Y-30010000D01*
X9546239Y-30010000D01*
X9662954Y-30126919D01*
X10043223Y-30284820D01*
X10454971Y-30285179D01*
X10835515Y-30127942D01*
X11126919Y-29837046D01*
X11266872Y-29500000D01*
X14687167Y-29500000D01*
X14793507Y-30034609D01*
X15096339Y-30487828D01*
X15518638Y-30770000D01*
X15096339Y-31052172D01*
X14793507Y-31505391D01*
X14687167Y-32040000D01*
X14793507Y-32574609D01*
X15096339Y-33027828D01*
X15549558Y-33330660D01*
X16084167Y-33437000D01*
X16915833Y-33437000D01*
X17450442Y-33330660D01*
X17903661Y-33027828D01*
X18206493Y-32574609D01*
X18312833Y-32040000D01*
X18206493Y-31505391D01*
X17903661Y-31052172D01*
X17481362Y-30770000D01*
X17903661Y-30487828D01*
X18206493Y-30034609D01*
X18312833Y-29500000D01*
X18206493Y-28965391D01*
X17903661Y-28512172D01*
X17671430Y-28357000D01*
X17769310Y-28357000D01*
X18002699Y-28260327D01*
X18181327Y-28081698D01*
X18278000Y-27848309D01*
X18278000Y-27245750D01*
X18119250Y-27087000D01*
X16627000Y-27087000D01*
X16627000Y-27107000D01*
X16373000Y-27107000D01*
X16373000Y-27087000D01*
X14880750Y-27087000D01*
X14722000Y-27245750D01*
X14722000Y-27848309D01*
X14818673Y-28081698D01*
X14997301Y-28260327D01*
X15230690Y-28357000D01*
X15328570Y-28357000D01*
X15096339Y-28512172D01*
X14793507Y-28965391D01*
X14687167Y-29500000D01*
X11266872Y-29500000D01*
X11284820Y-29456777D01*
X11285179Y-29045029D01*
X11127942Y-28664485D01*
X11088712Y-28625186D01*
X11126919Y-28587046D01*
X11284820Y-28206777D01*
X11285179Y-27795029D01*
X11127942Y-27414485D01*
X10837046Y-27123081D01*
X10456777Y-26965180D01*
X10045029Y-26964821D01*
X9664485Y-27122058D01*
X9546337Y-27240000D01*
X8453761Y-27240000D01*
X8337046Y-27123081D01*
X7956777Y-26965180D01*
X7545029Y-26964821D01*
X7164485Y-27122058D01*
X6873081Y-27412954D01*
X6715180Y-27793223D01*
X6714821Y-28204971D01*
X4660366Y-28204971D01*
X3840000Y-27384605D01*
X2867073Y-28357532D01*
X735000Y-28357532D01*
X735000Y-26940461D01*
X2194092Y-26940461D01*
X2218144Y-27590460D01*
X2420613Y-28079264D01*
X2687468Y-28177927D01*
X3660395Y-27205000D01*
X4019605Y-27205000D01*
X4992532Y-28177927D01*
X5259387Y-28079264D01*
X5485908Y-27469539D01*
X5461856Y-26819540D01*
X5259387Y-26330736D01*
X4992532Y-26232073D01*
X4019605Y-27205000D01*
X3660395Y-27205000D01*
X2687468Y-26232073D01*
X2420613Y-26330736D01*
X2194092Y-26940461D01*
X735000Y-26940461D01*
X735000Y-26052468D01*
X2867073Y-26052468D01*
X3840000Y-27025395D01*
X4793704Y-26071691D01*
X14722000Y-26071691D01*
X14722000Y-26674250D01*
X14880750Y-26833000D01*
X16373000Y-26833000D01*
X16373000Y-25721750D01*
X16627000Y-25721750D01*
X16627000Y-26833000D01*
X18119250Y-26833000D01*
X18278000Y-26674250D01*
X18278000Y-26071691D01*
X18181327Y-25838302D01*
X18002699Y-25659673D01*
X17769310Y-25563000D01*
X16785750Y-25563000D01*
X16627000Y-25721750D01*
X16373000Y-25721750D01*
X16214250Y-25563000D01*
X15230690Y-25563000D01*
X14997301Y-25659673D01*
X14818673Y-25838302D01*
X14722000Y-26071691D01*
X4793704Y-26071691D01*
X4812927Y-26052468D01*
X4714264Y-25785613D01*
X4104539Y-25559092D01*
X3454540Y-25583144D01*
X2965736Y-25785613D01*
X2867073Y-26052468D01*
X735000Y-26052468D01*
X735000Y-24475275D01*
X2244331Y-24475275D01*
X2306169Y-24711042D01*
X2807122Y-24887419D01*
X3337440Y-24858664D01*
X3693831Y-24711042D01*
X3755669Y-24475275D01*
X3000000Y-23719605D01*
X2244331Y-24475275D01*
X735000Y-24475275D01*
X735000Y-23347122D01*
X1652581Y-23347122D01*
X1681336Y-23877440D01*
X1828958Y-24233831D01*
X2064725Y-24295669D01*
X2820395Y-23540000D01*
X3179605Y-23540000D01*
X3935275Y-24295669D01*
X4171042Y-24233831D01*
X4347419Y-23732878D01*
X4318664Y-23202560D01*
X4171042Y-22846169D01*
X3935275Y-22784331D01*
X3179605Y-23540000D01*
X2820395Y-23540000D01*
X2064725Y-22784331D01*
X1828958Y-22846169D01*
X1652581Y-23347122D01*
X735000Y-23347122D01*
X735000Y-18724383D01*
X1664769Y-18724383D01*
X1867582Y-19215229D01*
X2242796Y-19591098D01*
X2577527Y-19730091D01*
X2244771Y-19867582D01*
X1868902Y-20242796D01*
X1665232Y-20733287D01*
X1664769Y-21264383D01*
X1867582Y-21755229D01*
X2242796Y-22131098D01*
X2561212Y-22263316D01*
X2306169Y-22368958D01*
X2244331Y-22604725D01*
X3000000Y-23360395D01*
X3655423Y-22704971D01*
X22189821Y-22704971D01*
X22347058Y-23085515D01*
X22465000Y-23203663D01*
X22465000Y-25296239D01*
X22348081Y-25412954D01*
X22190180Y-25793223D01*
X22189821Y-26204971D01*
X22347058Y-26585515D01*
X22637954Y-26876919D01*
X23018223Y-27034820D01*
X23429971Y-27035179D01*
X23810515Y-26877942D01*
X24101919Y-26587046D01*
X24231882Y-26274060D01*
X24585515Y-26127942D01*
X24876919Y-25837046D01*
X25034820Y-25456777D01*
X25035179Y-25045029D01*
X24877942Y-24664485D01*
X24760000Y-24546337D01*
X24760000Y-22453761D01*
X24876919Y-22337046D01*
X25034820Y-21956777D01*
X25035179Y-21545029D01*
X24877942Y-21164485D01*
X24587046Y-20873081D01*
X24206777Y-20715180D01*
X23795029Y-20714821D01*
X23414485Y-20872058D01*
X23123081Y-21162954D01*
X22993118Y-21475940D01*
X22639485Y-21622058D01*
X22348081Y-21912954D01*
X22190180Y-22293223D01*
X22189821Y-22704971D01*
X3655423Y-22704971D01*
X3755669Y-22604725D01*
X3693831Y-22368958D01*
X3417889Y-22271804D01*
X3755229Y-22132418D01*
X4131098Y-21757204D01*
X4334768Y-21266713D01*
X4335231Y-20735617D01*
X4132418Y-20244771D01*
X3757204Y-19868902D01*
X3422473Y-19729909D01*
X3755229Y-19592418D01*
X4131098Y-19217204D01*
X4334768Y-18726713D01*
X4335231Y-18195617D01*
X4132418Y-17704771D01*
X3757204Y-17328902D01*
X3266713Y-17125232D01*
X2735617Y-17124769D01*
X2244771Y-17327582D01*
X1868902Y-17702796D01*
X1665232Y-18193287D01*
X1664769Y-18724383D01*
X735000Y-18724383D01*
X735000Y-13294089D01*
X2014743Y-13294089D01*
X2240344Y-13840086D01*
X2657717Y-14258188D01*
X3203319Y-14484742D01*
X3794089Y-14485257D01*
X4340086Y-14259656D01*
X4758188Y-13842283D01*
X4984742Y-13296681D01*
X4985257Y-12705911D01*
X4759656Y-12159914D01*
X4342283Y-11741812D01*
X3796681Y-11515258D01*
X3205911Y-11514743D01*
X2659914Y-11740344D01*
X2241812Y-12157717D01*
X2015258Y-12703319D01*
X2014743Y-13294089D01*
X735000Y-13294089D01*
X735000Y-10997388D01*
X842191Y-11157809D01*
X1052235Y-11298157D01*
X1300000Y-11347440D01*
X3500000Y-11347440D01*
X3747765Y-11298157D01*
X3957809Y-11157809D01*
X4098157Y-10947765D01*
X4147440Y-10700000D01*
X4147440Y-9585000D01*
X5371108Y-9585000D01*
X5412954Y-9626919D01*
X5793223Y-9784820D01*
X6204971Y-9785179D01*
X6243806Y-9769133D01*
X6297852Y-10040839D01*
X6462599Y-10287401D01*
X8212599Y-12037401D01*
X8459160Y-12202148D01*
X8750000Y-12260000D01*
X9199340Y-12260000D01*
X9015258Y-12703319D01*
X9014743Y-13294089D01*
X9240344Y-13840086D01*
X9657717Y-14258188D01*
X10203319Y-14484742D01*
X10794089Y-14485257D01*
X11340086Y-14259656D01*
X11758188Y-13842283D01*
X11984742Y-13296681D01*
X11984949Y-13059751D01*
X12462599Y-13537401D01*
X12709160Y-13702148D01*
X13000000Y-13760000D01*
X13852560Y-13760000D01*
X13852560Y-14400000D01*
X13901843Y-14647765D01*
X14042191Y-14857809D01*
X14252235Y-14998157D01*
X14500000Y-15047440D01*
X17300000Y-15047440D01*
X17547765Y-14998157D01*
X17757809Y-14857809D01*
X17898157Y-14647765D01*
X17947440Y-14400000D01*
X17947440Y-14022248D01*
X20947010Y-14022248D01*
X21142228Y-14494710D01*
X21503388Y-14856502D01*
X21975509Y-15052544D01*
X22486714Y-15052990D01*
X22959176Y-14857772D01*
X23320968Y-14496612D01*
X23517010Y-14024491D01*
X23517456Y-13513286D01*
X23322238Y-13040824D01*
X22961078Y-12679032D01*
X22488957Y-12482990D01*
X21977752Y-12482544D01*
X21505290Y-12677762D01*
X21143498Y-13038922D01*
X20947456Y-13511043D01*
X20947010Y-14022248D01*
X17947440Y-14022248D01*
X17947440Y-12454971D01*
X23464821Y-12454971D01*
X23622058Y-12835515D01*
X23665000Y-12878532D01*
X23665000Y-13250000D01*
X23728561Y-13569541D01*
X23849140Y-13750000D01*
X23909566Y-13840434D01*
X24165000Y-14095868D01*
X24165000Y-14621108D01*
X24123081Y-14662954D01*
X23965180Y-15043223D01*
X23964821Y-15454971D01*
X24122058Y-15835515D01*
X24412954Y-16126919D01*
X24793223Y-16284820D01*
X25204971Y-16285179D01*
X25585515Y-16127942D01*
X25876919Y-15837046D01*
X26034820Y-15456777D01*
X26035179Y-15045029D01*
X25877942Y-14664485D01*
X25835000Y-14621468D01*
X25835000Y-13750000D01*
X25812125Y-13635000D01*
X25771440Y-13430460D01*
X25590434Y-13159566D01*
X25335000Y-12904132D01*
X25335000Y-12878892D01*
X25376919Y-12837046D01*
X25534820Y-12456777D01*
X25535179Y-12045029D01*
X25377942Y-11664485D01*
X25087046Y-11373081D01*
X24706777Y-11215180D01*
X24295029Y-11214821D01*
X23914485Y-11372058D01*
X23623081Y-11662954D01*
X23465180Y-12043223D01*
X23464821Y-12454971D01*
X17947440Y-12454971D01*
X17947440Y-11600000D01*
X17898157Y-11352235D01*
X17757809Y-11142191D01*
X17547765Y-11001843D01*
X17300000Y-10952560D01*
X14500000Y-10952560D01*
X14252235Y-11001843D01*
X14042191Y-11142191D01*
X13901843Y-11352235D01*
X13852560Y-11600000D01*
X13852560Y-12240000D01*
X13314802Y-12240000D01*
X12422242Y-11347440D01*
X13200000Y-11347440D01*
X13447765Y-11298157D01*
X13657809Y-11157809D01*
X13798157Y-10947765D01*
X13847440Y-10700000D01*
X13847440Y-10486714D01*
X24482544Y-10486714D01*
X24677762Y-10959176D01*
X25038922Y-11320968D01*
X25511043Y-11517010D01*
X26022248Y-11517456D01*
X26494710Y-11322238D01*
X26856502Y-10961078D01*
X27052544Y-10488957D01*
X27052990Y-9977752D01*
X26857772Y-9505290D01*
X26496612Y-9143498D01*
X26024491Y-8947456D01*
X25513286Y-8947010D01*
X25040824Y-9142228D01*
X24679032Y-9503388D01*
X24482990Y-9975509D01*
X24482544Y-10486714D01*
X13847440Y-10486714D01*
X13847440Y-7900000D01*
X13798157Y-7652235D01*
X13657809Y-7442191D01*
X13447765Y-7301843D01*
X13200000Y-7252560D01*
X10400000Y-7252560D01*
X10152235Y-7301843D01*
X9942191Y-7442191D01*
X9801843Y-7652235D01*
X9752560Y-7900000D01*
X9752560Y-7915000D01*
X8878892Y-7915000D01*
X8837046Y-7873081D01*
X8456777Y-7715180D01*
X8045029Y-7714821D01*
X7664485Y-7872058D01*
X7652165Y-7884356D01*
X7537401Y-7712599D01*
X6287401Y-6462599D01*
X6040839Y-6297852D01*
X5750000Y-6240000D01*
X4953761Y-6240000D01*
X4837046Y-6123081D01*
X4815480Y-6114126D01*
X6339803Y-4589803D01*
X6367333Y-4548601D01*
X6377000Y-4500000D01*
X6377000Y-4000000D01*
X6850786Y-4000000D01*
X7014385Y-4822469D01*
X7480276Y-5519724D01*
X8177531Y-5985615D01*
X9000000Y-6149214D01*
X9822469Y-5985615D01*
X10519724Y-5519724D01*
X10985615Y-4822469D01*
X11000000Y-4750151D01*
X11014385Y-4822469D01*
X11480276Y-5519724D01*
X12177531Y-5985615D01*
X13000000Y-6149214D01*
X13822469Y-5985615D01*
X14519724Y-5519724D01*
X14985615Y-4822469D01*
X15149214Y-4000000D01*
X14985615Y-3177531D01*
X14686585Y-2730000D01*
X15187167Y-2730000D01*
X15293507Y-3264609D01*
X15596339Y-3717828D01*
X16018638Y-4000000D01*
X15596339Y-4282172D01*
X15293507Y-4735391D01*
X15187167Y-5270000D01*
X15293507Y-5804609D01*
X15596339Y-6257828D01*
X16049558Y-6560660D01*
X16584167Y-6667000D01*
X17415833Y-6667000D01*
X17950442Y-6560660D01*
X18403661Y-6257828D01*
X18706493Y-5804609D01*
X18812833Y-5270000D01*
X18706493Y-4735391D01*
X18403661Y-4282172D01*
X17981362Y-4000000D01*
X18403661Y-3717828D01*
X18706493Y-3264609D01*
X18812833Y-2730000D01*
X18706493Y-2195391D01*
X18403661Y-1742172D01*
X17950442Y-1439340D01*
X17415833Y-1333000D01*
X16584167Y-1333000D01*
X16049558Y-1439340D01*
X15596339Y-1742172D01*
X15293507Y-2195391D01*
X15187167Y-2730000D01*
X14686585Y-2730000D01*
X14519724Y-2480276D01*
X13822469Y-2014385D01*
X13000000Y-1850786D01*
X12177531Y-2014385D01*
X11480276Y-2480276D01*
X11014385Y-3177531D01*
X11000000Y-3249849D01*
X10985615Y-3177531D01*
X10519724Y-2480276D01*
X9822469Y-2014385D01*
X9000000Y-1850786D01*
X8177531Y-2014385D01*
X7480276Y-2480276D01*
X7014385Y-3177531D01*
X6850786Y-4000000D01*
X6377000Y-4000000D01*
X6377000Y-735000D01*
X33873000Y-735000D01*
X33873000Y-7680472D01*
M02*
